<svg id="directionsbus_outline" xmlns="http://www.w3.org/2000/svg" width="13.793" height="16.379" viewBox="0 0 13.793 16.379">
  <path id="Path_350" data-name="Path 350" d="M12.9,3C9.086,3,6,3.431,6,6.448v8.621a2.574,2.574,0,0,0,.862,1.914v1.534a.865.865,0,0,0,.862.862h.862a.865.865,0,0,0,.862-.862v-.862h6.9v.862a.865.865,0,0,0,.862.862h.862a.865.865,0,0,0,.862-.862V16.983a2.574,2.574,0,0,0,.862-1.914V6.448C19.793,3.431,16.707,3,12.9,3Zm4.879,2.578H8.017c.474-.457,1.7-.853,4.879-.853S17.3,5.121,17.776,5.578ZM18.069,7.3V9.9H7.724V7.3H18.069Zm-.293,8.4-.25.233H8.267l-.25-.233a.834.834,0,0,1-.293-.629V11.621H18.069v3.448a.834.834,0,0,1-.293.629Z" transform="translate(-6 -3)" fill="#087fc9"/>
  <path id="Path_351" data-name="Path 351" d="M13.086,20.793A1.293,1.293,0,1,1,11.793,19.5,1.293,1.293,0,0,1,13.086,20.793Z" transform="translate(-7.914 -10.017)" fill="#087fc9"/>
  <path id="Path_352" data-name="Path 352" d="M23.586,20.793A1.293,1.293,0,1,1,22.293,19.5,1.293,1.293,0,0,1,23.586,20.793Z" transform="translate(-12.379 -10.017)" fill="#087fc9"/>
</svg>
