<svg xmlns="http://www.w3.org/2000/svg" width="11.207" height="18.535" viewBox="0 0 11.207 18.535">
  <path id="directionswalk_round" d="M15.466,5.7a1.724,1.724,0,1,0-1.724-1.724A1.729,1.729,0,0,0,15.466,5.7Zm-3.19,2.931L10.069,19.759a.858.858,0,0,0,.845,1.026h.069a.866.866,0,0,0,.845-.672l1.4-6.224,1.81,1.724v4.31a.862.862,0,1,0,1.724,0V15.06a1.714,1.714,0,0,0-.534-1.25l-1.276-1.216.517-2.586a6.312,6.312,0,0,0,3.759,2.078.863.863,0,0,0,.25-1.707A4.193,4.193,0,0,1,16.5,8.371l-.862-1.379a1.849,1.849,0,0,0-2.284-.724l-3.3,1.4A1.733,1.733,0,0,0,9,9.259V11.3a.862.862,0,0,0,1.724,0V9.233l1.552-.6" transform="translate(-9 -2.25)" fill="#333"/>
</svg>
