<svg xmlns="http://www.w3.org/2000/svg" width="39.738" height="51.159" viewBox="0 0 39.738 51.159">
  <g id="Group_220" data-name="Group 220" transform="translate(296.313 -24.639) rotate(109)">
    <path id="Path_199" data-name="Path 199" d="M159.117,242.268l.85-.259V235.6a3.842,3.842,0,0,0-3.838-3.838H118.838A3.842,3.842,0,0,0,115,235.6v6.411l.85.259a2.891,2.891,0,0,1,0,5.53l-.85.259v6.411a3.842,3.842,0,0,0,3.838,3.838h37.291a3.842,3.842,0,0,0,3.838-3.838v-6.411l-.85-.259a2.891,2.891,0,0,1,0-5.53Zm-1.549-1.954a5.293,5.293,0,0,0,0,9.439v4.715a1.441,1.441,0,0,1-1.439,1.439h-6.535c0-.021-.007-.043-.011-.064a1.319,1.319,0,0,0-.037-.144c-.014-.047-.031-.094-.05-.14s-.041-.091-.064-.135-.049-.086-.076-.127a1.42,1.42,0,0,0-.089-.12,1.325,1.325,0,0,0-.1-.111c-.035-.035-.073-.069-.111-.1a1.468,1.468,0,0,0-.12-.088,1.277,1.277,0,0,0-.128-.077,1.366,1.366,0,0,0-.134-.063,1.443,1.443,0,0,0-.14-.05c-.047-.014-.1-.026-.144-.037a1.491,1.491,0,0,0-.148-.022,1.424,1.424,0,0,0-.3,0,1.482,1.482,0,0,0-.148.022c-.048.01-.1.022-.144.037a1.442,1.442,0,0,0-.14.05,1.409,1.409,0,0,0-.262.14,1.309,1.309,0,0,0-.12.088c-.039.032-.076.066-.111.1s-.069.072-.1.111a1.417,1.417,0,0,0-.088.12,1.371,1.371,0,0,0-.077.127,1.391,1.391,0,0,0-.063.135,1.463,1.463,0,0,0-.05.14c-.014.047-.026.1-.037.144,0,.021-.006.043-.009.064H118.838a1.441,1.441,0,0,1-1.439-1.439v-4.715a5.293,5.293,0,0,0,0-9.439V235.6a1.441,1.441,0,0,1,1.439-1.439h27.746c0,.045.011.091.02.137s.022.1.037.145a1.566,1.566,0,0,0,.113.274c.023.044.049.086.076.128s.058.082.089.12.066.076.1.111.072.069.11.1.079.061.12.089.085.053.128.076a1.384,1.384,0,0,0,.135.063,1.466,1.466,0,0,0,.14.05c.047.014.1.027.144.037s.1.018.147.022.1.007.15.007.1,0,.149-.007.1-.013.148-.022.1-.022.144-.037a1.468,1.468,0,0,0,.14-.05,1.38,1.38,0,0,0,.134-.063,1.447,1.447,0,0,0,.128-.076q.062-.042.12-.089c.038-.031.076-.065.111-.1a1.461,1.461,0,0,0,.1-.111c.031-.038.062-.079.089-.12s.053-.084.076-.128.045-.089.064-.134.035-.093.05-.14.026-.1.036-.145.016-.091.021-.137h6.525a1.441,1.441,0,0,1,1.439,1.439Z" transform="translate(0 0)" fill="#1d2087"/>
    <circle id="Ellipse_29" data-name="Ellipse 29" cx="1.519" cy="1.519" r="1.519" transform="translate(146.574 245.765)" fill="#1d2087"/>
    <circle id="Ellipse_30" data-name="Ellipse 30" cx="1.519" cy="1.519" r="1.519" transform="translate(146.574 250.193)" fill="#1d2087"/>
    <circle id="Ellipse_31" data-name="Ellipse 31" cx="1.519" cy="1.519" r="1.519" transform="translate(146.574 236.908)" fill="#1d2087"/>
    <path id="Path_200" data-name="Path 200" d="M516.756,353.146a1.519,1.519,0,1,0,1.519,1.519A1.519,1.519,0,0,0,516.756,353.146Z" transform="translate(-368.663 -111.809)" fill="#1d2087"/>
  </g>
</svg>
