<svg xmlns="http://www.w3.org/2000/svg" xmlns:xlink="http://www.w3.org/1999/xlink" width="20" height="20" viewBox="0 0 20 20">
  <defs>
    <clipPath id="clip-path">
      <rect id="Rectangle_120" data-name="Rectangle 120" width="20" height="20" transform="translate(1090 991)" fill="#1d2087"/>
    </clipPath>
  </defs>
  <g id="Mask_Group_5" data-name="Mask Group 5" transform="translate(-1090 -991)" clip-path="url(#clip-path)">
    <path id="__TEMP__SVG__" d="M1.273,9.375H4.386a17.133,17.133,0,0,1,.39-3.125H2.092a8.7,8.7,0,0,0-.82,3.125ZM2.819,5H5.113a11.583,11.583,0,0,1,.8-1.924A8.375,8.375,0,0,1,6.659,1.91,8.78,8.78,0,0,0,2.819,5ZM10,0A10,10,0,1,0,20,10,10,10,0,0,0,10,0ZM9.375,1.346A4.4,4.4,0,0,0,7.016,3.665,9.953,9.953,0,0,0,6.431,5H9.375Zm0,4.9H6.059a15.625,15.625,0,0,0-.423,3.125H9.375Zm1.25,3.125V6.25h3.316a15.555,15.555,0,0,1,.423,3.125Zm-1.25,1.25H5.637a15.625,15.625,0,0,0,.421,3.125H9.375Zm1.25,3.125V10.625h3.738a15.619,15.619,0,0,1-.421,3.125ZM9.375,15H6.431a9.922,9.922,0,0,0,.585,1.335,4.407,4.407,0,0,0,2.359,2.319ZM6.659,18.09a8.369,8.369,0,0,1-.746-1.166A11.584,11.584,0,0,1,5.113,15H2.819a8.78,8.78,0,0,0,3.84,3.09ZM2.092,13.75H4.775a17.064,17.064,0,0,1-.39-3.125H1.272a8.669,8.669,0,0,0,.82,3.125Zm11.249,4.34A8.78,8.78,0,0,0,17.181,15H14.888a11.6,11.6,0,0,1-.8,1.924,8.36,8.36,0,0,1-.746,1.166ZM13.569,15H10.625v3.654a4.4,4.4,0,0,0,2.359-2.319A9.975,9.975,0,0,0,13.569,15Zm1.656-1.25h2.683a8.657,8.657,0,0,0,.82-3.125H15.615a17.063,17.063,0,0,1-.39,3.125Zm.39-4.375h3.113a8.7,8.7,0,0,0-.82-3.125H15.225a17.181,17.181,0,0,1,.39,3.125ZM14.887,5a11.6,11.6,0,0,0-.8-1.924,8.365,8.365,0,0,0-.746-1.166A8.78,8.78,0,0,1,17.181,5H14.888ZM13.568,5H10.625V1.346a4.4,4.4,0,0,1,2.359,2.319A9.953,9.953,0,0,1,13.569,5Z" transform="translate(1090 991)" fill="#1d2087" fill-rule="evenodd"/>
  </g>
</svg>
