<svg id="train_outline" xmlns="http://www.w3.org/2000/svg" width="13.793" height="16.379" viewBox="0 0 13.793 16.379">
  <path id="Path_347" data-name="Path 347" d="M13.086,20.793A1.293,1.293,0,1,1,11.793,19.5,1.293,1.293,0,0,1,13.086,20.793Z" transform="translate(-7.914 -10.017)" fill="#1c6724"/>
  <path id="Path_348" data-name="Path 348" d="M23.586,20.793A1.293,1.293,0,1,1,22.293,19.5,1.293,1.293,0,0,1,23.586,20.793Z" transform="translate(-12.379 -10.017)" fill="#1c6724"/>
  <path id="Path_349" data-name="Path 349" d="M12.9,3C9.448,3,6,3.431,6,6.448v8.19a3.021,3.021,0,0,0,3.017,3.017L7.724,18.948v.431H9.448l1.724-1.724h3.448l1.724,1.724h1.724v-.431l-1.293-1.293a3.021,3.021,0,0,0,3.017-3.017V6.448C19.793,3.431,16.345,3,12.9,3Zm0,1.724c3.026,0,4.276.414,4.8.862h-9.6C8.621,5.138,9.871,4.724,12.9,4.724ZM7.724,7.31h4.31V9.9H7.724Zm10.345,7.328a1.291,1.291,0,0,1-1.293,1.293H9.017a1.291,1.291,0,0,1-1.293-1.293V11.621H18.069Zm0-4.741h-4.31V7.31h4.31Z" transform="translate(-6 -3)" fill="#1c6724"/>
</svg>
