<svg id="Group_269" data-name="Group 269" xmlns="http://www.w3.org/2000/svg" xmlns:xlink="http://www.w3.org/1999/xlink" width="53.838" height="45.593" viewBox="0 0 53.838 45.593">
  <defs>
    <clipPath id="clip-path">
      <rect id="Rectangle_189" data-name="Rectangle 189" width="53.838" height="45.593" fill="#fff"/>
    </clipPath>
  </defs>
  <g id="Group_268" data-name="Group 268" clip-path="url(#clip-path)">
    <path id="Path_373" data-name="Path 373" d="M85.179,106.458l1.855-.627a3.836,3.836,0,0,1,3.3-3.007l7.05-.83-.092-.492c-.016-.085-.029-.171-.039-.256a3.832,3.832,0,0,1,3.356-4.251l10.371-1.221a6.354,6.354,0,0,1,3.3.451,8.973,8.973,0,0,1,2.937,2.245c.107.112.24.252.358.369l.158.158,7.112-.766L120.35,84.943s-6.915,2.3-9.123,3.047c-1.468.5-3.268-3.11-6.945-1.868l-9.893,3.342a1.961,1.961,0,0,0-1.229,2.482,1.756,1.756,0,0,0,2.384,1.108l4.047-1.365a.347.347,0,0,1,.462.268.242.242,0,0,1,.01.111.455.455,0,0,1-.31.426l-14.21,4.8a1.96,1.96,0,0,0-1.229,2.482,1.756,1.756,0,0,0,2.384,1.108l10.073-3.4a.44.44,0,0,1,.551.279.433.433,0,0,1-.272.548l-13.125,4.437a1.961,1.961,0,0,0-1.229,2.482,1.841,1.841,0,0,0,2.482,1.229" transform="translate(-74.211 -76.321)" fill="#fff"/>
    <path id="Path_374" data-name="Path 374" d="M157.27,212.006s-6.232.631-8.546.9c-1.54.181-2.553-3.72-6.408-3.266l-10.371,1.221a1.961,1.961,0,0,0-1.716,2.174,1.756,1.756,0,0,0,2.1,1.578l4.241-.5c.316-.037.381.224.4.358a.245.245,0,0,1-.013.111.455.455,0,0,1-.391.352l-14.9,1.753a1.96,1.96,0,0,0-1.716,2.174,1.756,1.756,0,0,0,2.1,1.578l10.56-1.243a.44.44,0,0,1,.481.387.433.433,0,0,1-.379.48l-13.76,1.623a1.961,1.961,0,0,0-1.716,2.174,1.841,1.841,0,0,0,2.174,1.716l13.76-1.619a.425.425,0,0,1,.479.371.433.433,0,0,1-.379.48l-10.364,1.222a1.908,1.908,0,0,0-1.864,2.126,1.932,1.932,0,0,0,2.271,1.627l10.4-1.224a.433.433,0,1,1,.1.859l-7.33.867a1.855,1.855,0,0,0-1.829,2.059,2.1,2.1,0,0,0,2.412,1.558l16.753-1.97c2.769-.326,4.741-1.094,6.029-2.349a5.431,5.431,0,0,0,.472-.523l8.842-.938Z" transform="translate(-105.33 -188.331)" fill="#fff"/>
    <path id="Path_375" data-name="Path 375" d="M13.837,10.336A4,4,0,0,1,9.911,6.1C9.911,3.525,12.8.914,13.127.624L13.837,0l.71.624c.329.289,3.216,2.9,3.216,5.475a4.043,4.043,0,0,1-3.926,4.237" transform="translate(-8.905)" fill="#fff"/>
    <path id="Path_376" data-name="Path 376" d="M3.926,147.189A4,4,0,0,1,0,142.952c0-2.574,2.887-5.185,3.216-5.475l.71-.624.71.624c.329.289,3.216,2.9,3.216,5.475a4.043,4.043,0,0,1-3.926,4.237" transform="translate(0 -122.962)" fill="#fff"/>
    <path id="Path_377" data-name="Path 377" d="M84.823,85.785A4,4,0,0,1,80.9,81.548c0-2.574,2.887-5.185,3.216-5.475l.71-.624.71.624c.329.289,3.216,2.9,3.216,5.475a4.043,4.043,0,0,1-3.926,4.237" transform="translate(-72.686 -67.791)" fill="#fff"/>
  </g>
</svg>
