<svg xmlns="http://www.w3.org/2000/svg" width="50.866" height="38.317" viewBox="0 0 50.866 38.317">
  <g id="ノートパソコンのアイコン素材4" transform="translate(0 -63.156)">
    <path id="Path_371" data-name="Path 371" d="M37.789,91.175H76.348a2.666,2.666,0,0,0,2.665-2.665V65.82a2.666,2.666,0,0,0-2.665-2.664H37.789a2.664,2.664,0,0,0-2.664,2.664V88.51A2.665,2.665,0,0,0,37.789,91.175ZM39.2,66.736h35.74V86.968H39.2Z" transform="translate(-31.635)" fill="#fff"/>
    <path id="Path_372" data-name="Path 372" d="M50.472,377.517,45.719,373.3a1.836,1.836,0,0,0-1.209-.424H6.357a1.837,1.837,0,0,0-1.209.424L.394,377.517a1.092,1.092,0,0,0-.394.815v1.47a.727.727,0,0,0,.8.619H50.065a.726.726,0,0,0,.8-.619v-1.47A1.093,1.093,0,0,0,50.472,377.517Zm-30.489.5,1.375-1.86h8.716l1.374,1.86Z" transform="translate(0 -278.948)" fill="#fff"/>
  </g>
</svg>
