<svg xmlns="http://www.w3.org/2000/svg" width="28.038" height="23.844" viewBox="0 0 28.038 23.844">
  <g id="鳥居のアイコン" transform="translate(0 0)">
    <path id="Path_360" data-name="Path 360" d="M23.4,44.207l-.033-.29-.027-.243h1.8V41.488h1.475L28.038,38.3H0l1.42,3.191H2.9v2.186h1.8l-.061.533h0l-.446,3.915H.548v3.287H3.815l-.044.387h0l-.022.193-.821,7.218h0l-.334,2.934H6.719l.24-2.934.59-7.218.016-.193.032-.387H20.442l.033.387.014.193.59,7.218h0l.24,2.934h4.125l-.335-2.934h0l-.821-7.218-.021-.193h0l-.01-.086-.034-.3H27.49V48.122H23.849Zm-7.955-.533h4.36l.045.533.32,3.915H15.448V43.674Zm-7.262.533.044-.533h4.36v4.448H7.865Z" transform="translate(0 -38.297)" fill="#1d2087"/>
  </g>
</svg>
