<svg id="Group_271" data-name="Group 271" xmlns="http://www.w3.org/2000/svg" xmlns:xlink="http://www.w3.org/1999/xlink" width="58.586" height="50.853" viewBox="0 0 58.586 50.853">
  <defs>
    <clipPath id="clip-path">
      <rect id="Rectangle_192" data-name="Rectangle 192" width="58.586" height="50.853" fill="none"/>
    </clipPath>
  </defs>
  <g id="Group_270" data-name="Group 270" clip-path="url(#clip-path)">
    <path id="Path_378" data-name="Path 378" d="M250.485,39.958a4.394,4.394,0,1,0-4.394-4.393,4.394,4.394,0,0,0,4.394,4.393" transform="translate(-212.979 -26.976)" fill="#fff"/>
    <path id="Path_379" data-name="Path 379" d="M228.9,111.957h-7.7a4.94,4.94,0,0,0-4.445,4.446v14.769a1.927,1.927,0,0,0,1.927,1.928h1.345l.733,12.595a2.051,2.051,0,0,0,2.052,2.052h4.482a2.051,2.051,0,0,0,2.052-2.052l.733-12.595h1.345a1.928,1.928,0,0,0,1.927-1.928V116.4a4.94,4.94,0,0,0-4.446-4.446" transform="translate(-187.582 -96.893)" fill="#fff"/>
    <path id="Path_380" data-name="Path 380" d="M150.883,82.779a3.837,3.837,0,1,0-3.837-3.837,3.837,3.837,0,0,0,3.837,3.837" transform="translate(-127.261 -64.999)" fill="#fff"/>
    <path id="Path_381" data-name="Path 381" d="M357.169,82.779a3.837,3.837,0,1,0-3.837-3.837,3.836,3.836,0,0,0,3.837,3.837" transform="translate(-305.791 -64.999)" fill="#fff"/>
    <path id="Path_382" data-name="Path 382" d="M131.719,145.649H125.3a4.316,4.316,0,0,0-3.882,3.883v12.9a1.683,1.683,0,0,0,1.683,1.684h1.174l.64,11A1.792,1.792,0,0,0,126.7,176.9h3.914a1.792,1.792,0,0,0,1.792-1.791l.639-11v-.624a4.423,4.423,0,0,1-1.331-3.159Z" transform="translate(-105.078 -126.052)" fill="#fff"/>
    <path id="Path_383" data-name="Path 383" d="M356.695,145.649h-6.422V160.33a4.421,4.421,0,0,1-1.332,3.159v.624l.639,11a1.793,1.793,0,0,0,1.793,1.791h3.914a1.791,1.791,0,0,0,1.792-1.791l.641-11h1.174a1.683,1.683,0,0,0,1.683-1.684v-12.9a4.315,4.315,0,0,0-3.882-3.883" transform="translate(-301.99 -126.052)" fill="#fff"/>
    <path id="Path_384" data-name="Path 384" d="M8.833,17.666a8.833,8.833,0,1,1,8.833-8.833,8.843,8.843,0,0,1-8.833,8.833m0-15.783a6.949,6.949,0,1,0,6.949,6.949A6.957,6.957,0,0,0,8.833,1.884" fill="#fff"/>
    <rect id="Rectangle_190" data-name="Rectangle 190" width="1.884" height="9.689" transform="translate(4.741 6.073) rotate(-45)" fill="#fff"/>
    <rect id="Rectangle_191" data-name="Rectangle 191" width="9.689" height="1.884" transform="matrix(0.707, -0.707, 0.707, 0.707, 4.741, 11.593)" fill="#fff"/>
  </g>
</svg>
