<svg xmlns="http://www.w3.org/2000/svg" width="22.269" height="29.691" viewBox="0 0 22.269 29.691">
  <path id="ios-restaurant" d="M28.906,4.5c-1.918,0-3.711,5.977-3.711,12.371,0,4.408,2.474,6.186,2.474,6.186v9.9a1.237,1.237,0,1,0,2.474,0V5.35C30.144,4.5,29.293,4.5,28.906,4.5Zm-7.423,0,.773,8.042a.619.619,0,0,1-1.238,0L20.554,4.5h-.619l-.464,8.042a.619.619,0,0,1-1.238,0L19.006,4.5h-.619s-1.856,8.289-1.856,9.9A3.719,3.719,0,0,0,19,17.892V32.954a1.237,1.237,0,1,0,2.474,0V17.892A3.7,3.7,0,0,0,23.953,14.4c0-1.623-1.851-9.9-1.851-9.9Zm-9.9,0c-2.049,0-3.711,4.949-3.711,9.9a3.718,3.718,0,0,0,2.474,3.495V32.954a1.237,1.237,0,1,0,2.474,0V17.892A3.7,3.7,0,0,0,15.3,14.4C15.3,9.449,13.635,4.5,11.586,4.5Z" transform="translate(-7.875 -4.5)" fill="#1d2087"/>
</svg>
