<svg id="Group_279" data-name="Group 279" xmlns="http://www.w3.org/2000/svg" xmlns:xlink="http://www.w3.org/1999/xlink" width="47.727" height="47.726" viewBox="0 0 47.727 47.726">
  <defs>
    <clipPath id="clip-path">
      <rect id="Rectangle_199" data-name="Rectangle 199" width="47.727" height="47.726" fill="none"/>
    </clipPath>
  </defs>
  <g id="Group_278" data-name="Group 278" clip-path="url(#clip-path)">
    <path id="Path_397" data-name="Path 397" d="M45.088,3.15l-.51-.51a9,9,0,0,0-12.736,0L15.273,19.209A9.3,9.3,0,0,0,12.784,23.7l-.891,3.857A9.307,9.307,0,0,1,9.4,32.05L4.553,36.9,3.391,38.062,1.3,40.154a4.437,4.437,0,1,0,6.275,6.275l2.092-2.092,1.162-1.162,4.849-4.85a9.323,9.323,0,0,1,4.493-2.491l3.857-.888a9.313,9.313,0,0,0,4.492-2.491L45.088,15.885a9,9,0,0,0,0-12.736M43.54,14.336,26.971,30.9a7.1,7.1,0,0,1-3.437,1.905l-3.855.889a11.507,11.507,0,0,0-5.549,3.076L9.666,41.238,6.491,38.062,10.952,33.6a11.483,11.483,0,0,0,3.076-5.549l.89-3.857a7.126,7.126,0,0,1,1.905-3.437L33.392,4.189a6.818,6.818,0,0,1,9.638,0l.51.507a6.825,6.825,0,0,1,0,9.639" transform="translate(0 0)" fill="#fff"/>
    <path id="Path_398" data-name="Path 398" d="M238.021,114.562a1.139,1.139,0,0,0-1.612,0l-10.121,10.12a1.141,1.141,0,0,0,0,1.614l3.614,3.615a1.141,1.141,0,0,0,1.614,0l10.12-10.12a1.141,1.141,0,0,0,0-1.614Z" transform="translate(-204.891 -103.579)" fill="#fff"/>
  </g>
</svg>
