<svg xmlns="http://www.w3.org/2000/svg" width="29.238" height="27.007" viewBox="0 0 29.238 27.007">
  <g id="ios-cart" transform="translate(-3.383 -4.493)">
    <path id="Path_355" data-name="Path 355" d="M12.938,29.813a1.688,1.688,0,1,1-1.687-1.647,1.688,1.688,0,0,1,1.687,1.647Z" fill="#1d2087"/>
    <path id="Path_356" data-name="Path 356" d="M28.723,29.813a1.688,1.688,0,1,1-1.687-1.647,1.688,1.688,0,0,1,1.688,1.647Z" fill="#1d2087"/>
    <path id="Path_357" data-name="Path 357" d="M32.611,9.3a.413.413,0,0,0-.366-.3L9.345,6.785a.7.7,0,0,1-.527-.33A7.176,7.176,0,0,0,7.96,5.147c-.541-.661-1.561-.64-3.431-.654a1.024,1.024,0,0,0-1.146.991,1,1,0,0,0,1.1.991,9.288,9.288,0,0,1,1.828.134c.33.1.6.64.7,1.111a.026.026,0,0,0,.007.021c.014.084.141.717.141.724L9.965,23.343a5.461,5.461,0,0,0,1.02,2.51A2.807,2.807,0,0,0,13.3,26.992H29.934a1,1,0,0,0,1.012-.942.98.98,0,0,0-.984-1.027H13.282a.817.817,0,0,1-.584-.2A3.155,3.155,0,0,1,11.889,23l-.3-1.666a.038.038,0,0,1,.028-.042l19.526-3.305a.412.412,0,0,0,.345-.366l1.125-8.142a.4.4,0,0,0,0-.183Z" fill="#1d2087"/>
  </g>
</svg>
