<svg xmlns="http://www.w3.org/2000/svg" width="65.284" height="26.855" viewBox="0 0 65.284 26.855">
  <g id="風邪対策のマスクの無料アイコン素材_3" data-name="風邪対策のマスクの無料アイコン素材 3" transform="translate(0 -150.692)">
    <path id="Path_361" data-name="Path 361" d="M14.5,152.872l.014-.016c-3.96-2.639-9.957-2.908-12.824,1.421a10.775,10.775,0,0,0-1.409,8.205A10.929,10.929,0,0,0,4.9,168.858a16.042,16.042,0,0,0,8.294,2.525v-2.328c-3.827-.245-7.865-1.646-9.877-5.161-1.729-3.019-1.193-8.08,2.009-9.942a4.939,4.939,0,0,1,.6-.287l-.075.028c.08-.035.154-.078.237-.11-.343.128-1.128.418.012-.005.191-.07.141-.051.011,0a6.248,6.248,0,0,1,2.7-.334c.059,0,.118.009.178.015a7.929,7.929,0,0,1,.815.131c.057.013.116.03.174.043a9.9,9.9,0,0,1,1.361.438c.132.053.265.1.4.161.179.079.355.166.529.254.347.177.694.359,1.04.577l0,0,.018.01a4.146,4.146,0,0,1,1.074-1.895c.033-.031.06-.067.094-.1Z" transform="translate(0 -0.213)" fill="#fff"/>
    <path id="Path_362" data-name="Path 362" d="M47.739,171.644l.024-.008-.011,0Z" transform="translate(-41.652 -18.274)" fill="#fff"/>
    <path id="Path_363" data-name="Path 363" d="M508.615,198.44c.106.355.165.555.19.637C508.775,198.975,508.7,198.725,508.615,198.44Z" transform="translate(-443.762 -41.66)" fill="#fff"/>
    <path id="Path_364" data-name="Path 364" d="M507.467,194.6l-.122-.408Z" transform="translate(-442.654 -37.953)" fill="#fff"/>
    <path id="Path_365" data-name="Path 365" d="M412.536,156.648l.04.132-.04-.133a8.065,8.065,0,0,0-4.725-5.438c-.223-.085-.452-.136-.68-.2l-.061-.018a9.491,9.491,0,0,0-4.678-.012l-.011,0a11.78,11.78,0,0,0-2.107.719c-.146.065-.292.133-.436.2s-.278.137-.413.212c-.3.159-.587.328-.87.512l0,0-.018.01a4.115,4.115,0,0,1,1.109,1.794c.018.067.045.13.059.2l0,0c0,.007,0,.013.006.02.17-.113.349-.22.528-.323l.174-.1a9.867,9.867,0,0,1,1.177-.548c.042-.016.085-.034.128-.05a9.2,9.2,0,0,1,2.1-.518c.023,0,.047,0,.07-.006a5.5,5.5,0,0,1,5.949,3.02,8.4,8.4,0,0,1,.37,6.53,9.159,9.159,0,0,1-3.947,4.413c-.2.117-.4.222-.6.325-.082.042-.163.084-.247.125a11.769,11.769,0,0,1-1.334.543c-.054.018-.108.038-.163.056-.411.133-.831.241-1.254.335-.153.033-.3.068-.462.1q-.43.081-.865.141c-.447.059-.9.112-1.384.142l-.107.009v2.328a15.281,15.281,0,0,0,9.8-3.72A10.409,10.409,0,0,0,412.536,156.648Z" transform="translate(-347.723)" fill="#fff"/>
    <path id="Path_366" data-name="Path 366" d="M506.681,191.949l-.1-.328Z" transform="translate(-441.99 -35.711)" fill="#fff"/>
    <path id="Path_367" data-name="Path 367" d="M191.581,260.193H203.76v0h2.085v-1.28h-3.429v0h-3.46v0h-3.437v0H195.5v0h-3.429v0h-.016v0H188.63v1.28h2.951Z" transform="translate(-164.578 -94.419)" fill="#fff"/>
    <path id="Path_368" data-name="Path 368" d="M192.059,225.385h13.786v-1.28H188.63v1.28h3.429Z" transform="translate(-164.578 -64.053)" fill="#fff"/>
    <path id="Path_369" data-name="Path 369" d="M192.059,295.045h13.786v-1.272H188.63v1.272h3.429Z" transform="translate(-164.578 -124.837)" fill="#fff"/>
    <path id="Path_370" data-name="Path 370" d="M148.466,167.245l.106.083-.106-.084-.077-.061.077.06a2.959,2.959,0,0,0-1.846-.636H116.137a3.03,3.03,0,0,0-2.987,2.987c-.011.287,0,.577,0,.865v17.979a2.99,2.99,0,0,0,2.987,2.995h30.482a3,3,0,0,0,3-2.995V171.485C149.614,169.962,149.826,168.316,148.466,167.245Zm-28.853,4.166v16.921h-3.359v-18.62h3.359Zm21.979,1.529v15.392H121.165v-18.62h20.427v3.228Zm4.919-1.35v16.742h-3.367v-18.62h3.367Z" transform="translate(-98.719 -13.887)" fill="#fff"/>
  </g>
</svg>
