<svg id="Group_273" data-name="Group 273" xmlns="http://www.w3.org/2000/svg" xmlns:xlink="http://www.w3.org/1999/xlink" width="64.673" height="50.801" viewBox="0 0 64.673 50.801">
  <defs>
    <clipPath id="clip-path">
      <rect id="Rectangle_195" data-name="Rectangle 195" width="64.673" height="50.8" fill="none"/>
    </clipPath>
  </defs>
  <g id="Group_272" data-name="Group 272" clip-path="url(#clip-path)">
    <path id="Path_385" data-name="Path 385" d="M118.877,75.3l-7.752,6.753-.032.68a5.5,5.5,0,0,1-.367,1.494c-.119.3-.256.591-.4.887l-8.79-7.584a1.608,1.608,0,0,0-1.246-.375,55.493,55.493,0,0,0-12.954,3.532,3.794,3.794,0,0,1-1.439.352,1.191,1.191,0,0,1-.535-.1.874.874,0,0,1-.415-.431,1.986,1.986,0,0,1-.2-.9,2.177,2.177,0,0,1,.375-1.246c.248-.32.552-.759.967-1.327a32.714,32.714,0,0,1,2.478-2.989,16.137,16.137,0,0,1,3.4-2.8,8.323,8.323,0,0,1,4.4-1.223,16.63,16.63,0,0,1,2.39.216,15.734,15.734,0,0,0,2.317.256,4.175,4.175,0,0,0,1.622-.288h.008a14.2,14.2,0,0,0,2.614-1.551,43.737,43.737,0,0,0,3.548-2.941c.192-.168.368-.336.528-.488l-2.181-2.325c-.48.447-1.1,1.007-1.775,1.574-.687.592-1.431,1.191-2.134,1.686a10,10,0,0,1-1.83,1.086,1.055,1.055,0,0,1-.4.048,14.359,14.359,0,0,1-1.846-.216,19.059,19.059,0,0,0-2.861-.256,11.33,11.33,0,0,0-3.093.416,11.551,11.551,0,0,0-3.093-.416,18.928,18.928,0,0,0-2.853.256,14.318,14.318,0,0,1-1.853.216,1.034,1.034,0,0,1-.392-.048,10.439,10.439,0,0,1-1.966-1.182,38.9,38.9,0,0,1-3.276-2.717c-.248-.224-.472-.431-.672-.615l-2.189,2.325c.471.44,1.086,1.007,1.774,1.607.767.655,1.622,1.358,2.486,1.989A14.178,14.178,0,0,0,83.851,70.2a4.2,4.2,0,0,0,1.623.288,14.76,14.76,0,0,0,2.325-.256c.056-.008.1-.008.151-.016a25.489,25.489,0,0,0-2.773,2.821c-.663.775-1.215,1.5-1.662,2.1-.432.591-.767,1.071-.919,1.263a5.252,5.252,0,0,0-1.047,3.2,5,5,0,0,0,1.015,3.085,3.988,3.988,0,0,0,1.415,1.135,4.518,4.518,0,0,0,1.918.416,6.878,6.878,0,0,0,2.685-.608,50.009,50.009,0,0,1,8.3-2.6c1.151-.255,2.11-.432,2.781-.543.128-.024.232-.04.336-.056l10.045,8.655V89.1h.008a.642.642,0,0,1-.088.255,2.186,2.186,0,0,1-1.814,1.055,2.152,2.152,0,0,0-.392.048,3.632,3.632,0,0,1-.679-.208,6.909,6.909,0,0,1-1.8-1.079,6.476,6.476,0,0,1-.535-.471l-.136-.128-.032-.032v-.008a1.219,1.219,0,0,0-.887-.384,1.194,1.194,0,0,0-.879,2.006,9.624,9.624,0,0,0,1.629,1.383,9.113,9.113,0,0,0,1.767.95c.151.056.319.12.487.168a1.679,1.679,0,0,0,.176.3h-.008l.008.009a1.231,1.231,0,0,1,.064.471,2.481,2.481,0,0,1-.383,1.334.994.994,0,0,1-.336.328.913.913,0,0,1-.448.112h-.08a.355.355,0,0,0-.128.008h-.008a4.949,4.949,0,0,1-2.717-.935,6.92,6.92,0,0,1-.839-.663,2.288,2.288,0,0,1-.208-.208l-.048-.048-.008-.009v-.008a1.2,1.2,0,0,0-1.806,1.575,8.209,8.209,0,0,0,1.559,1.342,7.9,7.9,0,0,0,2.445,1.135.357.357,0,0,0-.032.08,1.715,1.715,0,0,1-.8.863,3.844,3.844,0,0,1-.735.344,1.189,1.189,0,0,1-.375.056,4.149,4.149,0,0,1-.775-.112A1.868,1.868,0,0,0,101,98.6a.5.5,0,0,1-.08-.032,7.568,7.568,0,0,1-1.239-.815c-.176-.136-.327-.272-.432-.36l-.119-.111-.024-.024H99.1a1.2,1.2,0,1,0-1.655,1.726A11.351,11.351,0,0,0,98.682,100c.12.1.264.184.4.272a2.139,2.139,0,0,1-.6.663,1.824,1.824,0,0,1-1.111.328,3.527,3.527,0,0,1-1.342-.3,5.082,5.082,0,0,1-.464-.24,4.189,4.189,0,0,0,.136-1.039,3.973,3.973,0,0,0-3.645-3.971c0-.041.009-.088.009-.128a4.455,4.455,0,0,0-.655-2.318A4.375,4.375,0,0,0,87.7,91.2h-.024c-.064,0-.12.008-.176.008a4.276,4.276,0,0,0-.624-1.8,4.377,4.377,0,0,0-2.941-2,4.443,4.443,0,0,0-.656-2.27,4.393,4.393,0,0,0-6.05-1.406l-1.534.951c-.04-.08-.087-.168-.119-.247a5.334,5.334,0,0,1-.456-1.71l-.032-.68L67.34,75.3l-2.189,2.325,6.865,5.986a9.433,9.433,0,0,0,.607,2.045c.168.416.36.808.551,1.175a4.364,4.364,0,0,0,2.957,6.577,4.385,4.385,0,0,0,4.387,4.348,1.22,1.22,0,0,0,.168-.016,4.477,4.477,0,0,0,.631,1.806,4.394,4.394,0,0,0,3.732,2.071,4.013,4.013,0,0,0,.432-.032,4.071,4.071,0,0,0,.567,1.622,4,4,0,0,0,5.506,1.287l2-1.238a7.052,7.052,0,0,0,1.239.656,6.562,6.562,0,0,0,2.581.551,5.038,5.038,0,0,0,2.949-.9,5.419,5.419,0,0,0,1.486-1.63c.064,0,.12.008.184.008a4.348,4.348,0,0,0,1.318-.2,6.815,6.815,0,0,0,1.375-.615,5.031,5.031,0,0,0,2.166-2.405c.072-.184.128-.352.176-.512a3.807,3.807,0,0,0,.784-.335,4.5,4.5,0,0,0,1.814-2.054,5.808,5.808,0,0,0,.511-2.381,2.3,2.3,0,0,0-.016-.232,5.376,5.376,0,0,0,1.542-.951,4.942,4.942,0,0,0,1.119-1.39,3.771,3.771,0,0,0,.471-1.782,3.173,3.173,0,0,0-.279-1.3,2.2,2.2,0,0,0-.232-.384,14.912,14.912,0,0,0,.967-2.021,9.243,9.243,0,0,0,.5-1.75l6.864-5.994ZM77.626,90.07l-.072.048a1.215,1.215,0,0,1-.631.176,1.178,1.178,0,0,1-1.015-.56,1.163,1.163,0,0,1-.183-.631,1.213,1.213,0,0,1,.567-1.015l2.629-1.638a1.24,1.24,0,0,1,.631-.176,1.183,1.183,0,0,1,1.015.56l1.359-.84-1.359.848a1.129,1.129,0,0,1,.184.623,1.231,1.231,0,0,1-.288.767L78.2,89.638a4.33,4.33,0,0,0-.575.432m3.524,4.307a1.157,1.157,0,0,1-.631.184,1.185,1.185,0,0,1-1.015-.567,1.136,1.136,0,0,1-.183-.624,1.228,1.228,0,0,1,.288-.767L81.869,91.2a4.444,4.444,0,0,0,.568-.432l.08-.048a1.172,1.172,0,0,1,.631-.183,1.191,1.191,0,0,1,1.015.567,1.13,1.13,0,0,1,.184.624,1.215,1.215,0,0,1-.567,1.022Zm7.16,2.23-2.637,1.638a1.2,1.2,0,0,1-1.638-.383,1.186,1.186,0,0,1,.383-1.647l2.629-1.638a1.219,1.219,0,0,1,.631-.176,1.186,1.186,0,0,1,1.015.56,1.216,1.216,0,0,1,.176.631,1.186,1.186,0,0,1-.56,1.014m3.82,3.764-2.262,1.406a.74.74,0,0,1-.424.12.791.791,0,0,1-.679-.375.806.806,0,0,1-.12-.424.777.777,0,0,1,.375-.671v-.008l2.262-1.407a.858.858,0,0,1,.424-.119.808.808,0,0,1,.679.383.734.734,0,0,1,.12.416.782.782,0,0,1-.375.679" transform="translate(-56.394 -54.293)" fill="#fff"/>
    <path id="Path_386" data-name="Path 386" d="M8.824,17.648a8.824,8.824,0,1,1,8.824-8.824,8.834,8.834,0,0,1-8.824,8.824m0-15.766a6.942,6.942,0,1,0,6.942,6.942A6.95,6.95,0,0,0,8.824,1.882" fill="#fff"/>
    <rect id="Rectangle_193" data-name="Rectangle 193" width="1.882" height="9.679" transform="translate(4.737 6.067) rotate(-45)" fill="#fff"/>
    <rect id="Rectangle_194" data-name="Rectangle 194" width="9.679" height="1.882" transform="matrix(0.707, -0.707, 0.707, 0.707, 4.737, 11.581)" fill="#fff"/>
  </g>
</svg>
