<svg id="Group_281" data-name="Group 281" xmlns="http://www.w3.org/2000/svg" xmlns:xlink="http://www.w3.org/1999/xlink" width="48.393" height="53.966" viewBox="0 0 48.393 53.966">
  <defs>
    <clipPath id="clip-path">
      <rect id="Rectangle_202" data-name="Rectangle 202" width="48.393" height="53.966" fill="none"/>
    </clipPath>
  </defs>
  <g id="Group_280" data-name="Group 280" clip-path="url(#clip-path)">
    <path id="Path_399" data-name="Path 399" d="M9.373,18.745a9.373,9.373,0,1,1,9.373-9.373,9.383,9.383,0,0,1-9.373,9.373M9.373,2a7.374,7.374,0,1,0,7.374,7.374A7.382,7.382,0,0,0,9.373,2" fill="#fff"/>
    <rect id="Rectangle_200" data-name="Rectangle 200" width="1.999" height="10.281" transform="translate(5.031 6.444) rotate(-45)" fill="#fff"/>
    <rect id="Rectangle_201" data-name="Rectangle 201" width="10.281" height="1.999" transform="matrix(0.707, -0.707, 0.707, 0.707, 5.031, 12.301)" fill="#fff"/>
    <path id="Path_400" data-name="Path 400" d="M132.948,33.517a4.549,4.549,0,0,0-1.365.208,4.579,4.579,0,0,0-6.8-2.605,4.577,4.577,0,0,0-7.907,2.607,4.579,4.579,0,0,0-5.785,4.414c0,1.209-.005,4.731-.007,8.114a5.71,5.71,0,0,0-2.878-.8h0a4.155,4.155,0,0,0-3.5,1.733,4.926,4.926,0,0,0-.27,4.75A102.779,102.779,0,0,0,111.68,68.56c1.418,2.632,1.949,3.617,1.949,5.582v.8a4.45,4.45,0,0,0,4.445,4.445h10.761a4.45,4.45,0,0,0,4.445-4.445v-.65a9.029,9.029,0,0,1,1.141-3.221,27.393,27.393,0,0,0,3.108-12.993V38.1a4.587,4.587,0,0,0-4.581-4.582m2.179,24.56c0,9.519-4.249,12.644-4.249,16.215v.65a2.043,2.043,0,0,1-2.042,2.043H118.074a2.044,2.044,0,0,1-2.043-2.043v-.8c0-5.32-3.267-5.694-9.332-23.021-.859-2.275.182-3.262,1.511-3.262a3.449,3.449,0,0,1,2.982,1.869c1.317,3.109,1.793,4.807,2.047,4.807.107,0,.174-.3.248-.924-.006-.336.009-15.468.009-15.468a2.178,2.178,0,0,1,4.355,0v8.79a8.823,8.823,0,0,1,1.4-.114V34.232a2.177,2.177,0,0,1,4.354,0V47.35q.7.136,1.4.291V35.018a2.178,2.178,0,0,1,4.357,0V48.546c.495.1.964.2,1.4.31V38.1a2.178,2.178,0,1,1,4.355,0Z" transform="translate(-89.137 -25.42)" fill="#fff"/>
  </g>
</svg>
