<svg id="Group_277" data-name="Group 277" xmlns="http://www.w3.org/2000/svg" xmlns:xlink="http://www.w3.org/1999/xlink" width="47.84" height="44.402" viewBox="0 0 47.84 44.402">
  <defs>
    <clipPath id="clip-path">
      <rect id="Rectangle_198" data-name="Rectangle 198" width="47.84" height="44.402" fill="none"/>
    </clipPath>
  </defs>
  <g id="Group_276" data-name="Group 276" clip-path="url(#clip-path)">
    <path id="Path_393" data-name="Path 393" d="M277.271,209.469l-.173,0v11.062a17.057,17.057,0,0,0,2.451.219V209.623a17,17,0,0,0-2.277-.154" transform="translate(-254.403 -192.313)" fill="#fff"/>
    <path id="Path_394" data-name="Path 394" d="M25.145,4.1h0L0,0V36.6l22.695,3.7L47.84,44.4V7.8ZM45.463,41.638,25.145,38.326V35.534q-1.207.19-2.451.262v2.131L2.377,34.615V2.766L22.695,6.077v4.062q1.207-.213,2.451-.307V6.477L45.463,9.789Z" transform="translate(0 -0.001)" fill="#fff"/>
    <path id="Path_395" data-name="Path 395" d="M170.475,146.326c-.265.1-.534.224-.794.34l-.128.057c-.1.048-.2.1-.3.145l-.155.074c-.141.066-.279.138-.437.22a23.01,23.01,0,0,0-3.294,2.082l-.013.01a.172.172,0,0,0,.179.291l.132-.063a23.033,23.033,0,0,1,3.558-1.33c.164-.047.312-.089.467-.125l.449-.111.175-.038c.243-.053.493-.108.749-.152.659-.121,1.262-.2,1.841-.252s1.141-.077,1.712-.077a19.576,19.576,0,0,1,5.459.782,20.3,20.3,0,0,1,3.261,1.259c.441.215.87.447,1.281.689L182.7,152.1l9.7,1.547-2.281-9.216-2.009,2.077c-.323-.131-.651-.255-1-.377-.676-.236-1.377-.446-2.086-.626a25.658,25.658,0,0,0-4.252-.706c-.638-.051-1.285-.078-1.924-.078a22.316,22.316,0,0,0-6.445.924c-.622.183-1.252.4-1.931.679" transform="translate(-151.743 -132.604)" fill="#fff"/>
    <path id="Path_396" data-name="Path 396" d="M120.043,303.865l-.132.063a23.038,23.038,0,0,1-3.559,1.33c-.141.04-.3.086-.467.125l-.449.111-.173.038c-.243.053-.494.108-.75.152-.659.121-1.262.2-1.84.252s-1.141.077-1.712.077a19.577,19.577,0,0,1-5.459-.782,20.3,20.3,0,0,1-3.261-1.259c-.441-.215-.87-.447-1.281-.689l1.91-1.974-9.7-1.547,2.281,9.216,2.01-2.077c.323.131.651.255,1,.377.676.236,1.377.446,2.086.626a25.641,25.641,0,0,0,4.252.706c.638.052,1.285.078,1.924.078a22.317,22.317,0,0,0,6.445-.924c.622-.183,1.252-.4,1.931-.679.266-.1.536-.225.8-.342l.125-.056c.1-.048.2-.1.306-.146l.153-.074c.142-.066.286-.141.437-.22a22.706,22.706,0,0,0,3.294-2.082l.013-.01a.172.172,0,0,0-.179-.29" transform="translate(-85.537 -275.211)" fill="#fff"/>
  </g>
</svg>
