<svg xmlns="http://www.w3.org/2000/svg" width="34.094" height="27.727" viewBox="0 0 34.094 27.727">
  <path id="Path_102" data-name="Path 102" d="M1912.519,231.081h.021a6.827,6.827,0,0,1-.184-1.594,7,7,0,0,1,12.106-4.781,13.971,13.971,0,0,0,3.7-1.3c.249-.124.5-.247.74-.384a6.978,6.978,0,0,1-2.243,3.253,6.5,6.5,0,0,1-.826.578l.038-.005c-.013.007-.023.019-.036.026a13.9,13.9,0,0,0,3.283-.8c.238-.084.477-.17.714-.266a14.164,14.164,0,0,1-3.476,3.592c.02.306.02.6.02.909,0,9.246-7.038,19.911-19.911,19.911a19.741,19.741,0,0,1-10.727-3.147,15.018,15.018,0,0,0,1.676.1,13.977,13.977,0,0,0,6.6-1.653c.042-.022.085-.041.127-.064.126-.069.246-.146.369-.218a14.624,14.624,0,0,0,1.583-1.048l-.024,0,.025-.018a6.919,6.919,0,0,1-6.526-4.851,6.734,6.734,0,0,0,2.652-.022c.166-.027.334-.048.5-.082-.013,0-.025-.008-.038-.011.014,0,.028,0,.042-.008a7,7,0,0,1-5.619-6.865v-.082a7.005,7.005,0,0,0,2.446.8c.238.037.478.067.719.082l-.026-.02c.013,0,.025,0,.038,0a6.95,6.95,0,0,1-2.392-8.885c.076-.149.144-.3.232-.445a19.828,19.828,0,0,0,14.2,7.28c.068,0,.134.018.2.021C1912.52,231.085,1912.52,231.083,1912.519,231.081Z" transform="translate(-1895.734 -222.49)" fill="#ccc"/>
</svg>
