<svg xmlns="http://www.w3.org/2000/svg" width="22.456" height="22.813" viewBox="0 0 22.456 22.813"><g transform="translate(-4.007 0)"><path d="M26.038,15.071c-.453-.279-1.1-.074-1.717.633l-2.549-1.566a7.064,7.064,0,0,0,.516-4.983l1.73-.515a1.194,1.194,0,0,0,1.371.683c.63-.187.972-.905.672-1.914s-.979-1.423-1.61-1.236a1.208,1.208,0,0,0-.77,1.37l-1.765.525a7.2,7.2,0,0,0-2.061-2.7l.662-1.062c.639.232,1.152.106,1.39-.276.3-.483.051-1.184-.832-1.734s-1.623-.467-1.924.016c-.243.39-.12.922.4,1.4l-.633,1.014a7.135,7.135,0,0,0-3.575-.959,7.221,7.221,0,0,0-1.383.136l-.643-1.769c.7-.428.97-.991.793-1.479C13.886.042,13.04-.218,11.856.213S10.19,1.386,10.415,2c.181.5.773.757,1.615.614L12.643,4.3A7.2,7.2,0,0,0,8.891,7.818L6.5,6.713c.175-.737-.018-1.279-.452-1.479-.55-.255-1.269.131-1.757,1.184s-.315,1.851.235,2.106c.444.205,1-.014,1.45-.658L8.438,9a7.018,7.018,0,0,0-.083,3.579l-1.545.686c-.468-.649-1.046-.868-1.523-.656-.6.268-.817,1.115-.319,2.235s1.266,1.531,1.871,1.262c.488-.217.713-.814.522-1.624l1.417-.629A7.2,7.2,0,0,0,11.6,17.069L10.74,18.6a1.194,1.194,0,0,0-1.459.466c-.321.573-.066,1.327.853,1.841s1.694.337,2.015-.237a1.208,1.208,0,0,0-.4-1.519l.871-1.559a7.155,7.155,0,0,0,2.726.539,7.252,7.252,0,0,0,.984-.075l.682,3.026c-.652.279-.953.7-.863,1.1.114.506.8.782,1.868.542s1.569-.785,1.454-1.291c-.092-.409-.564-.662-1.3-.62l-.678-3.008a7.184,7.184,0,0,0,3.474-2.392L23.538,17c-.324.84-.208,1.487.235,1.759.561.345,1.423-.037,2.149-1.217S26.6,15.415,26.038,15.071Z" transform="translate(0 0)" fill="#1d2087"/></g></svg>