<svg id="Group_21" data-name="Group 21" xmlns="http://www.w3.org/2000/svg" width="30.762" height="30.764" viewBox="0 0 30.762 30.764">
  <path id="Path_103" data-name="Path 103" d="M732.9,200.006h-27.37a1.7,1.7,0,0,0-1.7,1.7v27.365a1.7,1.7,0,0,0,1.7,1.7h13.2V220.492h-4.47v-5.177h4.47v-3.821a8.944,8.944,0,0,1,.275-2.273c.006-.021.013-.04.019-.06q.079-.29.177-.562c.052-.142.112-.278.173-.414.025-.057.047-.116.074-.171q.132-.273.286-.525l.014-.025a5.68,5.68,0,0,1,.748-.965l.019-.021c.121-.124.25-.239.382-.351.03-.025.057-.053.087-.077.1-.085.216-.162.327-.239.066-.046.129-.1.2-.139s.149-.085.223-.129c.116-.066.23-.135.351-.194.021-.011.044-.019.065-.029a7.541,7.541,0,0,1,3.24-.671,36.508,36.508,0,0,1,3.995.207v4.629h-2.74c-2.149,0-2.567,1.024-2.567,2.524v3.307H729.2l-.668,5.176h-4.461V230.77H732.9a1.7,1.7,0,0,0,1.7-1.7V201.7A1.7,1.7,0,0,0,732.9,200.006Z" transform="translate(-703.831 -200.006)" fill="#ccc"/>
</svg>
