<svg id="Group_20" data-name="Group 20" xmlns="http://www.w3.org/2000/svg" width="32.414" height="32.967" viewBox="0 0 32.414 32.967">
  <path id="Path_100" data-name="Path 100" d="M1312.7,181.8h-13.782a9.317,9.317,0,0,0-9.317,9.317v14.333a9.317,9.317,0,0,0,9.317,9.317H1312.7a9.317,9.317,0,0,0,9.317-9.317V191.122A9.317,9.317,0,0,0,1312.7,181.8Zm-19.791,9.317a6.016,6.016,0,0,1,6.009-6.009H1312.7a6.016,6.016,0,0,1,6.009,6.009v14.333a6.016,6.016,0,0,1-6.009,6.009h-13.782a6.016,6.016,0,0,1-6.009-6.009Z" transform="translate(-1289.599 -181.805)" fill="#ccc"/>
  <path id="Path_101" data-name="Path 101" d="M1412.371,317.145a8.49,8.49,0,1,0-8.49-8.49A8.5,8.5,0,0,0,1412.371,317.145Zm0-14.333a5.844,5.844,0,1,1-5.843,5.844A5.85,5.85,0,0,1,1412.371,302.811Z" transform="translate(-1396.163 -292.172)" fill="#ccc"/>
  <circle id="Ellipse_1" data-name="Ellipse 1" cx="1.902" cy="1.902" r="1.902" transform="translate(23.044 5.844)" fill="#ccc"/>
</svg>
