<svg xmlns="http://www.w3.org/2000/svg" xmlns:xlink="http://www.w3.org/1999/xlink" width="20" height="20" viewBox="0 0 20 20"><defs><clipPath id="a"><rect width="20" height="20" transform="translate(1090 991)" fill="#1d2087"/></clipPath></defs><g transform="translate(-1090 -991)" clip-path="url(#a)"><g transform="translate(1090 991.442)"><path d="M17.5,1.25H2.5A1.25,1.25,0,0,0,1.25,2.5V16.983l2.5-2.5a2.5,2.5,0,0,1,1.767-.733H17.5a1.25,1.25,0,0,0,1.25-1.25V2.5A1.25,1.25,0,0,0,17.5,1.25ZM2.5,0A2.5,2.5,0,0,0,0,2.5V18.491a.625.625,0,0,0,1.067.441l3.566-3.566A1.25,1.25,0,0,1,5.517,15H17.5A2.5,2.5,0,0,0,20,12.5V2.5A2.5,2.5,0,0,0,17.5,0Z" fill="#1d2087" fill-rule="evenodd"/><path d="M6.25,7.5A1.25,1.25,0,1,1,5,6.25,1.25,1.25,0,0,1,6.25,7.5Zm5,0A1.25,1.25,0,1,1,10,6.25,1.25,1.25,0,0,1,11.25,7.5Zm5,0A1.25,1.25,0,1,1,15,6.25,1.25,1.25,0,0,1,16.25,7.5Z" fill="#1d2087"/></g></g></svg>