<svg xmlns="http://www.w3.org/2000/svg" width="22.815" height="29.372" viewBox="0 0 22.815 29.372"><g transform="translate(279.39 -28.319) rotate(109)"><path d="M140.329,237.794l.488-.149v-3.681a2.206,2.206,0,0,0-2.2-2.2H117.2a2.206,2.206,0,0,0-2.2,2.2v3.681l.488.149a1.66,1.66,0,0,1,0,3.175l-.488.149V244.8a2.206,2.206,0,0,0,2.2,2.2h21.41a2.206,2.206,0,0,0,2.2-2.2v-3.681l-.488-.149a1.66,1.66,0,0,1,0-3.175Zm-.889-1.122a3.039,3.039,0,0,0,0,5.419V244.8a.827.827,0,0,1-.826.826h-3.752c0-.012,0-.025-.006-.037a.76.76,0,0,0-.021-.083c-.008-.027-.018-.054-.028-.08s-.023-.052-.037-.078-.028-.05-.044-.073a.812.812,0,0,0-.051-.069.76.76,0,0,0-.057-.064c-.02-.02-.042-.039-.064-.058a.84.84,0,0,0-.069-.05.732.732,0,0,0-.073-.044.786.786,0,0,0-.077-.036.831.831,0,0,0-.08-.029c-.027-.008-.055-.015-.083-.021a.857.857,0,0,0-.085-.012.819.819,0,0,0-.171,0,.852.852,0,0,0-.085.012c-.028.006-.056.013-.083.021a.831.831,0,0,0-.08.029.788.788,0,0,0-.078.036.775.775,0,0,0-.073.044.75.75,0,0,0-.069.05c-.023.018-.044.038-.064.058s-.039.041-.058.064a.809.809,0,0,0-.05.069.784.784,0,0,0-.044.073.8.8,0,0,0-.036.078.84.84,0,0,0-.029.08c-.008.027-.015.055-.021.083,0,.012,0,.024-.005.037H117.2a.827.827,0,0,1-.826-.826v-2.707a3.039,3.039,0,0,0,0-5.419v-2.707a.827.827,0,0,1,.826-.826h15.93c0,.026.006.053.012.079s.013.056.021.083a.836.836,0,0,0,.029.08.844.844,0,0,0,.036.077c.013.025.028.05.044.073s.033.047.051.069.038.044.058.064.041.039.063.057.045.035.069.051.049.03.073.044a.8.8,0,0,0,.078.036.843.843,0,0,0,.08.029c.027.008.055.016.083.021s.056.01.084.013.057,0,.086,0,.057,0,.086,0,.057-.007.085-.013.056-.013.083-.021a.844.844,0,0,0,.08-.029.793.793,0,0,0,.077-.036.828.828,0,0,0,.073-.044q.036-.024.069-.051c.022-.018.044-.038.064-.057a.833.833,0,0,0,.057-.064c.018-.022.035-.045.051-.069s.03-.048.044-.073.026-.051.037-.077.02-.053.029-.08.015-.055.021-.083.009-.052.012-.079h3.746a.827.827,0,0,1,.826.826Z" transform="translate(0 0)" fill="#fff"/><circle cx="0.872" cy="0.872" r="0.872" transform="translate(133.128 239.801)" fill="#fff"/><circle cx="0.872" cy="0.872" r="0.872" transform="translate(133.128 242.343)" fill="#fff"/><circle cx="0.872" cy="0.872" r="0.872" transform="translate(133.128 234.716)" fill="#fff"/><path d="M516.109,353.146a.872.872,0,1,0,.872.872A.872.872,0,0,0,516.109,353.146Z" transform="translate(-382.109 -115.887)" fill="#fff"/></g></svg>