<?xml version="1.0" encoding="utf-8"?>
<!-- Generator: Adobe Illustrator 23.0.2, SVG Export Plug-In . SVG Version: 6.00 Build 0)  -->
<svg version="1.1" id="Group_21" xmlns="http://www.w3.org/2000/svg" xmlns:xlink="http://www.w3.org/1999/xlink" x="0px" y="0px"
	 viewBox="0 0 30.8 30.8" style="enable-background:new 0 0 30.8 30.8;" xml:space="preserve">
<style type="text/css">
	.st0{fill:#1D2087;}
</style>
<path id="Path_103" class="st0" d="M29.1,0H1.7C0.8,0,0,0.8,0,1.7c0,0,0,0,0,0v27.4c0,0.9,0.8,1.7,1.7,1.7l0,0h13.2V20.5h-4.5v-5.2
	h4.5v-3.8c0-0.8,0.1-1.5,0.3-2.3c0,0,0,0,0-0.1c0.1-0.2,0.1-0.4,0.2-0.6c0.1-0.1,0.1-0.3,0.2-0.4c0-0.1,0-0.1,0.1-0.2
	c0.1-0.2,0.2-0.4,0.3-0.5l0,0c0.2-0.3,0.5-0.7,0.7-1l0,0c0.1-0.1,0.3-0.2,0.4-0.4c0,0,0.1-0.1,0.1-0.1c0.1-0.1,0.2-0.2,0.3-0.2
	c0.1,0,0.1-0.1,0.2-0.1s0.1-0.1,0.2-0.1c0.1-0.1,0.2-0.1,0.4-0.2c0,0,0,0,0.1,0c1-0.5,2.1-0.7,3.2-0.7c1.3,0,2.7,0.1,4,0.2v4.6h-2.7
	c-2.1,0-2.6,1-2.6,2.5v3.3h5.1l-0.7,5.2h-4.5v10.3h8.8c0.9,0,1.7-0.8,1.7-1.7c0,0,0,0,0,0V1.7C30.8,0.8,30,0,29.1,0z"/>
</svg>
