<svg id="Group_20" data-name="Group 20" xmlns="http://www.w3.org/2000/svg" viewBox="0 0 32.42 32.97"><defs><style>.cls-1{fill:#1d2087;}</style></defs><title>icon-instagram</title><path id="Path_100" data-name="Path 100" class="cls-1" d="M23.1,0H9.32A9.31,9.31,0,0,0,0,9.31H0V23.65A9.31,9.31,0,0,0,9.32,33H23.1a9.31,9.31,0,0,0,9.32-9.31h0V9.32A9.31,9.31,0,0,0,23.11,0ZM3.31,9.31a6,6,0,0,1,6-6H23.1a6,6,0,0,1,6,6V23.65a6,6,0,0,1-6,6H9.32a6,6,0,0,1-6-6Z" transform="translate(0 0)"/><path id="Path_101" data-name="Path 101" class="cls-1" d="M16.21,25a8.49,8.49,0,1,0-8.49-8.49h0A8.49,8.49,0,0,0,16.21,25Zm0-14.33a5.85,5.85,0,1,1-5.85,5.84h0a5.86,5.86,0,0,1,5.85-5.84Z" transform="translate(0 0)"/><circle id="Ellipse_1" data-name="Ellipse 1" class="cls-1" cx="24.94" cy="7.75" r="1.9"/></svg>