<svg xmlns="http://www.w3.org/2000/svg" width="30.398" height="30.398" viewBox="0 0 30.398 30.398">
  <g id="Group_25" data-name="Group 25" transform="translate(-0.004)">
    <path id="Path_106" data-name="Path 106" d="M28.265,0H2.141A2.137,2.137,0,0,0,0,2.137V28.261A2.137,2.137,0,0,0,2.141,30.4H9.009a21.484,21.484,0,0,1,.551-5.1c.252-1.093,1.562-6.65,1.738-7.381a5.771,5.771,0,0,1-.437-2.251c0-2.175,1.3-3.88,2.954-3.88a2.11,2.11,0,0,1,2.137,2.351,12.019,12.019,0,0,1-.7,3.13c-.195.632-.4,1.287-.551,1.919a1.917,1.917,0,0,0,.337,1.658,2.086,2.086,0,0,0,1.658.76c2.593,0,4.479-2.788,4.479-6.635A5.688,5.688,0,0,0,15.146,9.11a6.268,6.268,0,0,0-6.54,6.275A5.589,5.589,0,0,0,9.67,18.657a.691.691,0,0,1,.147.636c-.109.47-.366,1.5-.418,1.705a.492.492,0,0,1-.484.446.873.873,0,0,1-.347-.09c-1.99-.926-3.182-3.79-3.182-6.027,0-4.488,3.177-9.319,10.155-9.319,5.405,0,9.485,3.828,9.485,8.906,0,5.458-3.453,9.566-8.027,9.566a4.766,4.766,0,0,1-3.043-1.1,2.942,2.942,0,0,1-.286-.3l0,.005-.008-.008c-.223.855-.67,2.555-.8,3.073A30.185,30.185,0,0,1,11.3,30.1c-.049.1-.1.2-.143.292h0l0,.01h17.1A2.134,2.134,0,0,0,30.4,28.261V2.137A2.135,2.135,0,0,0,28.265,0Z" fill="#ccc"/>
  </g>
</svg>
