<svg xmlns="http://www.w3.org/2000/svg" width="115.406" height="81.276" viewBox="0 0 115.406 81.276">
  <path id="Path_107" data-name="Path 107" d="M385.753,274.693c-11.482-.387-22.782-.707-34.075-1.187a63.147,63.147,0,0,1-9.187-1.173c-6.376-1.225-10.332-5.157-11.77-11.446a68.217,68.217,0,0,1-1.392-9.163,182.172,182.172,0,0,1,.622-40.594,34.924,34.924,0,0,1,1.362-6.25,13.387,13.387,0,0,1,10.35-9.352,56.413,56.413,0,0,1,10.6-1.369c15.941-.381,31.886-.78,47.829-.739,8.906.022,17.812.852,26.712,1.409a21.03,21.03,0,0,1,5.239,1.008,13.375,13.375,0,0,1,9.454,10.277,99.066,99.066,0,0,1,2.008,14.816,203,203,0,0,1-.6,33.162,49.355,49.355,0,0,1-1.416,7.707c-1.51,5.5-5.093,9.111-10.7,10.336a58.468,58.468,0,0,1-9.878,1.343C409.137,273.988,397.361,274.307,385.753,274.693Zm-11.044-57.815c-.647,6.455-.422,30.992.315,33.742l29.512-16.784Z" transform="translate(-328.494 -193.417)"/>
</svg>
