<svg xmlns="http://www.w3.org/2000/svg" width="215.242" height="68.891" viewBox="0 0 215.242 68.891">
  <g id="Group_198" data-name="Group 198" transform="translate(20960.563 23595.832)">
    <g id="Group_2" data-name="Group 2" transform="translate(-20960.563 -23595.832)">
      <rect id="Rectangle_4" data-name="Rectangle 4" width="68.893" height="68.891" transform="translate(0)" fill="#dc000c"/>
      <g id="Group_1" data-name="Group 1" transform="translate(6.418 14.977)">
        <path id="Path_1" data-name="Path 1" d="M7120.289,6701.263a17.317,17.317,0,0,1,2.522-.164,5.394,5.394,0,0,1,3.249.786,3.46,3.46,0,0,1,1.432,3.039,3.9,3.9,0,0,1-1.385,3.249,6,6,0,0,1-3.707.973,13.265,13.265,0,0,1-2.111-.129Zm2.123,6.217a2.633,2.633,0,0,0,.447.023,2.2,2.2,0,0,0,2.38-2.521,2.033,2.033,0,0,0-2.181-2.264,3.269,3.269,0,0,0-.646.046Z" transform="translate(-7118.049 -6701.028)" fill="#fff"/>
        <path id="Path_2" data-name="Path 2" d="M7146.926,6701.276v7.906H7144.8v-7.906Z" transform="translate(-7134.468 -6701.146)" fill="#fff"/>
        <path id="Path_3" data-name="Path 3" d="M7153.834,6706.809a4.811,4.811,0,0,0,2.051.493c.729,0,1.079-.248,1.079-.646s-.351-.61-1.243-.915c-1.338-.469-2.216-1.208-2.216-2.381,0-1.4,1.173-2.474,3.167-2.474a5.122,5.122,0,0,1,2.146.41l-.444,1.689a4.144,4.144,0,0,0-1.726-.375c-.645,0-1,.235-1,.587,0,.4.423.563,1.42.938,1.42.516,2.064,1.277,2.064,2.381,0,1.36-1.067,2.521-3.38,2.521a5.6,5.6,0,0,1-2.32-.481Z" transform="translate(-7140.25 -6700.885)" fill="#fff"/>
        <path id="Path_4" data-name="Path 4" d="M7178.69,6708.72a5.4,5.4,0,0,1-1.994.317c-2.957,0-4.258-1.841-4.258-3.941a4.071,4.071,0,0,1,4.4-4.211,4.773,4.773,0,0,1,1.982.351l-.411,1.666a3.867,3.867,0,0,0-1.466-.281,2.335,2.335,0,0,0,.035,4.668,4.349,4.349,0,0,0,1.419-.235Z" transform="translate(-7152.979 -6700.885)" fill="#fff"/>
        <path id="Path_5" data-name="Path 5" d="M7200.167,6704.885c0,2.544-1.524,4.163-3.965,4.163a3.731,3.731,0,0,1-3.8-4.035,3.872,3.872,0,0,1,3.931-4.128A3.719,3.719,0,0,1,7200.167,6704.885Zm-5.524.092c0,1.479.646,2.394,1.666,2.394s1.619-1,1.619-2.416c0-1.362-.61-2.394-1.631-2.394S7194.643,6703.523,7194.643,6704.978Z" transform="translate(-7166.349 -6700.885)" fill="#fff"/>
        <path id="Path_6" data-name="Path 6" d="M7218.643,6709.182l-2.51-7.906h2.321l.834,3.109a26.692,26.692,0,0,1,.657,2.768h.023c.2-.974.422-1.888.656-2.733l.857-3.144h2.251l-2.592,7.906Z" transform="translate(-7182.244 -6701.146)" fill="#fff"/>
        <path id="Path_7" data-name="Path 7" d="M7246,6705.991h-2.839v1.455h3.178v1.736h-5.3v-7.906h5.138V6703h-3.015v1.278H7246Z" transform="translate(-7198.923 -6701.146)" fill="#fff"/>
        <path id="Path_8" data-name="Path 8" d="M7260.642,6701.263a17.478,17.478,0,0,1,2.557-.164,4.423,4.423,0,0,1,2.675.61,2.041,2.041,0,0,1,.786,1.725,2.1,2.1,0,0,1-1.358,1.912v.046a1.971,1.971,0,0,1,1.009,1.407c.245.81.5,1.959.656,2.264h-2.171a10.747,10.747,0,0,1-.552-1.818c-.212-.95-.5-1.149-1.162-1.149h-.34v2.967h-2.1Zm2.1,3.319h.553c.8,0,1.256-.4,1.256-.985s-.389-.927-1.093-.938a3.661,3.661,0,0,0-.716.047Z" transform="translate(-7212.055 -6701.028)" fill="#fff"/>
        <path id="Path_9" data-name="Path 9" d="M7120.543,6743.483v1.285h1.152v.351h-1.152V6748c0,.564.159.925.588.925a1.374,1.374,0,0,0,.463-.074l.05.341a1.464,1.464,0,0,1-.563.1.807.807,0,0,1-.691-.314,1.714,1.714,0,0,1-.252-1.055v-2.81h-.682v-.351h.682v-1.147Z" transform="translate(-7117.492 -6729.417)" fill="#fff"/>
        <path id="Path_10" data-name="Path 10" d="M7128.425,6740.937h.4v2.921h.017a1.6,1.6,0,0,1,.555-.648,1.432,1.432,0,0,1,.818-.249c.378,0,1.4.213,1.4,1.858v2.682h-.4v-2.626c0-.8-.285-1.536-1.109-1.536a1.345,1.345,0,0,0-1.219,1.009,1.291,1.291,0,0,0-.061.435v2.719h-.4Z" transform="translate(-7123.498 -6727.71)" fill="#fff"/>
        <path id="Path_11" data-name="Path 11" d="M7140.44,6749.342c0,1.424.708,1.978,1.541,1.978a2.188,2.188,0,0,0,1.119-.248l.1.352a2.5,2.5,0,0,1-1.269.275c-1.162,0-1.886-.924-1.886-2.227,0-1.48.774-2.4,1.818-2.4,1.321,0,1.574,1.368,1.574,2.007a1.193,1.193,0,0,1-.017.268Zm2.576-.352c.008-.62-.228-1.562-1.2-1.562-.893,0-1.279.878-1.347,1.563Z" transform="translate(-7131.28 -6731.817)" fill="#fff"/>
        <path id="Path_12" data-name="Path 12" d="M7154.419,6742.942a4.815,4.815,0,0,0,2.052.492c.728,0,1.079-.247,1.079-.646s-.351-.609-1.243-.914c-1.337-.47-2.217-1.209-2.217-2.381,0-1.4,1.173-2.476,3.168-2.476a5.106,5.106,0,0,1,2.146.411l-.445,1.688a4.138,4.138,0,0,0-1.725-.375c-.645,0-1,.233-1,.586,0,.4.424.563,1.419.938,1.42.516,2.065,1.279,2.065,2.38,0,1.362-1.068,2.523-3.377,2.523a5.605,5.605,0,0,1-2.324-.481Z" transform="translate(-7140.641 -6725.086)" fill="#fff"/>
        <path id="Path_13" data-name="Path 13" d="M7173.629,6737.4a16.645,16.645,0,0,1,2.617-.165,4.033,4.033,0,0,1,2.5.622,2.364,2.364,0,0,1,.9,1.912,2.587,2.587,0,0,1-.761,1.947,3.89,3.89,0,0,1-2.639.822c-.2,0-.388-.012-.516-.023v2.686h-2.1Zm2.1,3.495a4.267,4.267,0,0,0,.479.024c.834,0,1.35-.422,1.35-1.1,0-.587-.4-.985-1.2-.985a3.253,3.253,0,0,0-.632.046Z" transform="translate(-7153.775 -6725.228)" fill="#fff"/>
        <path id="Path_14" data-name="Path 14" d="M7196.429,6737.407v7.907h-2.124v-7.907Z" transform="translate(-7167.624 -6725.346)" fill="#fff"/>
        <path id="Path_15" data-name="Path 15" d="M7204.428,6737.4a17.508,17.508,0,0,1,2.558-.165,4.427,4.427,0,0,1,2.674.611,2.039,2.039,0,0,1,.786,1.723,2.1,2.1,0,0,1-1.361,1.912v.048a1.959,1.959,0,0,1,1.009,1.407c.247.809.5,1.959.657,2.264h-2.17a10.8,10.8,0,0,1-.552-1.817c-.212-.951-.5-1.15-1.161-1.15h-.34v2.968h-2.1Zm2.1,3.318h.551c.8,0,1.255-.4,1.255-.984s-.387-.929-1.089-.938a3.675,3.675,0,0,0-.717.047Z" transform="translate(-7174.404 -6725.228)" fill="#fff"/>
        <path id="Path_16" data-name="Path 16" d="M7227.758,6737.407v7.907h-2.125v-7.907Z" transform="translate(-7188.606 -6725.346)" fill="#fff"/>
        <path id="Path_17" data-name="Path 17" d="M7236.321,6739.179H7234.3v-1.772h6.194v1.772h-2.054v6.135h-2.122Z" transform="translate(-7194.414 -6725.346)" fill="#fff"/>
        <path id="Path_18" data-name="Path 18" d="M7257.885,6749.418a2.306,2.306,0,0,1-2.5,2.282,2.214,2.214,0,0,1-2.394-2.2,2.284,2.284,0,0,1,2.47-2.273A2.2,2.2,0,0,1,7257.885,6749.418Zm-4.374.052a1.857,1.857,0,0,0,1.905,1.872,1.884,1.884,0,0,0,1.945-1.9,1.926,1.926,0,0,0-3.851.027Z" transform="translate(-7206.93 -6731.922)" fill="#fff"/>
        <path id="Path_19" data-name="Path 19" d="M7270.408,6747.442v-3.94h-.75v-.338h.75v-.232a1.874,1.874,0,0,1,.576-1.542,1.848,1.848,0,0,1,1.154-.375,2.022,2.022,0,0,1,.782.142l-.163.339a1.585,1.585,0,0,0-.664-.125c-.967,0-1.175.729-1.175,1.551v.241h1.4v.338h-1.4v3.94Z" transform="translate(-7218.092 -6727.764)" fill="#fff"/>
        <path id="Path_20" data-name="Path 20" d="M7117.267,6773.192h3.509v8.066c0,3.8-1.823,5.216-4.963,5.216a8.189,8.189,0,0,1-2.308-.309l.369-2.811a6,6,0,0,0,1.532.213c1.124,0,1.861-.5,1.861-2.309Z" transform="translate(-7113.505 -6749.314)" fill="#fff"/>
        <path id="Path_21" data-name="Path 21" d="M7140.71,6783.237l-.736,3.024h-3.626l3.8-13.069h4.654l3.9,13.069h-3.779l-.835-3.024Zm2.89-2.6-.6-2.345c-.194-.739-.446-1.8-.639-2.58h-.04c-.193.775-.388,1.86-.581,2.6l-.562,2.326Z" transform="translate(-7128.805 -6749.314)" fill="#fff"/>
        <path id="Path_22" data-name="Path 22" d="M7176.455,6773.171a27.55,27.55,0,0,1,4.323-.271,6.68,6.68,0,0,1,4.131,1.027,3.912,3.912,0,0,1,1.493,3.161,4.272,4.272,0,0,1-1.262,3.219,6.426,6.426,0,0,1-4.362,1.356c-.329,0-.64-.019-.853-.039v4.44h-3.471Zm3.471,5.778a7.341,7.341,0,0,0,.8.039c1.375,0,2.229-.7,2.229-1.823,0-.97-.659-1.629-1.978-1.629a5.379,5.379,0,0,0-1.047.078Z" transform="translate(-7155.668 -6749.119)" fill="#fff"/>
        <path id="Path_23" data-name="Path 23" d="M7207.477,6783.237l-.735,3.024h-3.627l3.8-13.069h4.651l3.9,13.069h-3.782l-.833-3.024Zm2.891-2.6-.6-2.345c-.2-.739-.447-1.8-.642-2.58h-.039c-.193.775-.388,1.86-.581,2.6l-.562,2.326Z" transform="translate(-7173.523 -6749.314)" fill="#fff"/>
        <path id="Path_24" data-name="Path 24" d="M7243.223,6786.262v-13.069h4.13l2.075,4.014a38.384,38.384,0,0,1,2.055,4.576h.06a49.048,49.048,0,0,1-.272-5.507v-3.083h3.2v13.069h-3.684l-2.211-4.344a48.6,48.6,0,0,1-2.211-4.73h-.057c.076,1.764.115,3.742.115,5.855v3.219Z" transform="translate(-7200.388 -6749.314)" fill="#fff"/>
      </g>
    </g>
    <g id="Group_19" data-name="Group 19" transform="translate(-20860.848 -23584.545)">
      <g id="Group_3" data-name="Group 3" transform="translate(0 0)">
        <path id="Path_25" data-name="Path 25" d="M6205.24,6720.788a22.925,22.925,0,1,1-22.917-22.916,22.917,22.917,0,0,1,22.917,22.916" transform="translate(-6155.548 -6697.872)" fill="#fff"/>
        <path id="Path_26" data-name="Path 26" d="M6308.463,6705.049v6.638a3.155,3.155,0,0,1-3.331,3.509c-2.494,0-3.168-1.4-3.337-3.387h2.135c.015.716.151,1.847,1.2,1.847,1.138,0,1.138-1.3,1.2-2.01v-6.6Z" transform="translate(-6227.614 -6701.504)" fill="#1a1311"/>
        <path id="Path_27" data-name="Path 27" d="M6317.947,6712.929a1.876,1.876,0,0,1,.937-1.724,4.03,4.03,0,0,1,2.037-.44c1.39,0,2.946.512,2.946,2.586v3.776a5.353,5.353,0,0,0,.095.755h-1.856a7.373,7.373,0,0,1-.071-.92h-.029a2.243,2.243,0,0,1-2.12,1.125,2.041,2.041,0,0,1-2.257-2.093,2.409,2.409,0,0,1,1.476-2.188,6.523,6.523,0,0,1,2.7-.372v-.647a.878.878,0,0,0-.946-.847.929.929,0,0,0-.927.988Zm1.666,2.789a.967.967,0,0,0,1.005.994c1.142,0,1.183-1.265,1.183-2.078-.714-.014-2.188-.027-2.188,1.084" transform="translate(-6235.626 -6704.396)" fill="#1a1311"/>
        <path id="Path_28" data-name="Path 28" d="M6335.369,6711.772h.022a2.338,2.338,0,0,1,1.848-1.007c2.15,0,3.237,1.805,3.237,3.664,0,1.771-.95,3.659-2.98,3.659a2.275,2.275,0,0,1-2.105-1.183h-.022v3.619H6333.3v-8.175c0-.453-.041-.924-.067-1.379h2.095Zm1.481,4.939c1.321,0,1.486-1.226,1.486-2.283s-.166-2.285-1.486-2.285c-1.111,0-1.481,1.332-1.481,2.285s.37,2.283,1.481,2.283" transform="translate(-6243.521 -6704.396)" fill="#1a1311"/>
        <path id="Path_29" data-name="Path 29" d="M6349.91,6712.929a1.87,1.87,0,0,1,.936-1.724,4.033,4.033,0,0,1,2.039-.44c1.392,0,2.941.512,2.941,2.586v3.776a6.9,6.9,0,0,0,.1.755h-1.856a8.3,8.3,0,0,1-.069-.92h-.025a2.256,2.256,0,0,1-2.122,1.125,2.039,2.039,0,0,1-2.257-2.093,2.407,2.407,0,0,1,1.471-2.188,6.56,6.56,0,0,1,2.7-.372v-.647a.88.88,0,0,0-.951-.847.932.932,0,0,0-.927.988Zm1.662,2.789a.969.969,0,0,0,1,.994c1.147,0,1.19-1.265,1.19-2.078-.718-.014-2.194-.027-2.194,1.084" transform="translate(-6251.801 -6704.396)" fill="#1a1311"/>
        <path id="Path_30" data-name="Path 30" d="M6367.272,6711.772l.028.041a2.351,2.351,0,0,1,2.115-1.048,2.5,2.5,0,0,1,2.276,1.517,4.774,4.774,0,0,1,.139,1.1v4.5h-2.069v-4.159c-.015-.741-.219-1.581-1.238-1.581-.645,0-1.208.579-1.239,1.581v4.159h-2.068v-6.914h2.055Z" transform="translate(-6259.709 -6704.396)" fill="#1a1311"/>
        <rect id="Rectangle_5" data-name="Rectangle 5" width="1.742" height="1.832" transform="translate(113.783 11.655)" fill="#1a1311"/>
        <path id="Path_31" data-name="Path 31" d="M6293.973,6745.526v-9.94h5.9v.831h-5.011v3.56h4.818v.826h-4.818v3.906h5.217v.817Z" transform="translate(-6223.654 -6716.957)" fill="#1a1311"/>
        <path id="Path_32" data-name="Path 32" d="M6311.135,6748.416h-.823v-5.352c0-.539-.044-1.089-.073-1.556h.856l.041,1.018.025.025a2.4,2.4,0,0,1,2.165-1.254c2.255,0,2.436,2,2.436,2.8v4.319h-.824v-4.459a1.708,1.708,0,0,0-1.815-1.9c-1.361,0-1.986,1.146-1.986,2.379Z" transform="translate(-6231.886 -6719.848)" fill="#1a1311"/>
        <path id="Path_33" data-name="Path 33" d="M6329.605,6744.506l-.023-.055a2.828,2.828,0,0,1-2.371,1.289c-2.046,0-2.833-1.962-2.833-3.7,0-1.784.786-3.635,2.833-3.635a2.784,2.784,0,0,1,2.371,1.254l.023-.025v-4.05h.826v8.386c0,.534.041,1.083.068,1.555h-.853Zm-2.256-5.34c-1.57,0-2.079,1.462-2.079,2.781,0,1.281.373,3.026,1.954,3.026,1.8,0,2.357-1.5,2.357-3.068,0-1.4-.623-2.739-2.233-2.739" transform="translate(-6239.042 -6716.957)" fill="#1a1311"/>
        <rect id="Rectangle_6" data-name="Rectangle 6" width="0.824" height="9.939" transform="translate(93.469 18.629)" fill="#1a1311"/>
        <path id="Path_34" data-name="Path 34" d="M6347.062,6745.154c.027,1.477.7,2.709,2.389,2.709a2.059,2.059,0,0,0,2-1.649h.871a2.915,2.915,0,0,1-3.128,2.417c-2.062,0-3.028-1.786-3.028-3.668s1.033-3.666,3.081-3.666c2.316,0,3.153,1.692,3.153,3.857Zm4.442-.759a2.212,2.212,0,0,0-2.248-2.338,2.282,2.282,0,0,0-2.167,2.338Z" transform="translate(-6250.067 -6719.848)" fill="#1a1311"/>
        <path id="Path_35" data-name="Path 35" d="M6363.755,6741.3c1.305,0,2.406.457,2.518,1.915h-.9c-.078-.868-.851-1.156-1.713-1.156-.771,0-1.551.3-1.551,1.116,0,1.019,1.335.924,3.21,1.581a1.68,1.68,0,0,1,1.168,1.615c0,1.551-1.442,2.263-2.908,2.263-1.2,0-2.566-.565-2.6-2.1h.894c.067,1.037.978,1.33,1.918,1.33.885,0,1.8-.408,1.8-1.374,0-.991-1.081-1.155-2.19-1.4-1.085-.266-2.183-.58-2.183-1.86,0-1.433,1.318-1.932,2.533-1.932" transform="translate(-6257.566 -6719.848)" fill="#1a1311"/>
        <path id="Path_36" data-name="Path 36" d="M6377.127,6741.3c1.308,0,2.4.457,2.515,1.915h-.893c-.083-.868-.852-1.156-1.706-1.156-.767,0-1.561.3-1.561,1.116,0,1.019,1.341.924,3.21,1.581a1.683,1.683,0,0,1,1.168,1.615c0,1.551-1.445,2.263-2.9,2.263-1.2,0-2.575-.565-2.607-2.1h.9c.067,1.037.982,1.33,1.918,1.33.877,0,1.8-.408,1.8-1.374,0-.991-1.085-1.155-2.182-1.4-1.093-.266-2.194-.58-2.194-1.86,0-1.433,1.326-1.932,2.537-1.932" transform="translate(-6264.332 -6719.848)" fill="#1a1311"/>
        <path id="Path_37" data-name="Path 37" d="M6266.222,6761.219c3.265,0,5.125,1.67,5.125,4.959s-1.86,4.972-5.125,4.972h-2.675v-9.931Zm.226,9.1c2.792,0,3.931-1.635,3.931-4.143,0-2.921-1.716-4.241-4.539-4.167h-1.4v8.309Z" transform="translate(-6208.257 -6729.93)" fill="#1a1311"/>
        <path id="Path_38" data-name="Path 38" d="M6284.2,6762.246h-.962v-1.025h.962Zm-.07,8.9h-.825v-6.9h.825Z" transform="translate(-6218.225 -6729.93)" fill="#1a1311"/>
        <path id="Path_39" data-name="Path 39" d="M6291.35,6766.9c1.3,0,2.409.451,2.52,1.912h-.9c-.081-.864-.853-1.146-1.7-1.146-.768,0-1.558.3-1.558,1.106,0,1.022,1.339.924,3.208,1.587a1.686,1.686,0,0,1,1.17,1.616c0,1.548-1.446,2.25-2.9,2.25-1.2,0-2.58-.564-2.605-2.094h.9c.066,1.034.982,1.342,1.916,1.342.877,0,1.8-.415,1.8-1.38,0-.99-1.087-1.151-2.187-1.4-1.086-.264-2.19-.584-2.19-1.863,0-1.433,1.324-1.93,2.533-1.93" transform="translate(-6220.927 -6732.807)" fill="#1a1311"/>
        <path id="Path_40" data-name="Path 40" d="M6307.35,6769.233c-.067-1.055-.742-1.563-1.882-1.563-1.269,0-2.053,1.312-2.053,2.887s.784,2.92,2.053,2.92a1.742,1.742,0,0,0,1.882-1.609h.9a2.459,2.459,0,0,1-2.7,2.362c-2.069,0-3.031-1.773-3.031-3.655s1.03-3.67,3.083-3.67a2.452,2.452,0,0,1,2.649,2.329Z" transform="translate(-6227.98 -6732.807)" fill="#1a1311"/>
        <path id="Path_41" data-name="Path 41" d="M6323.4,6770.574c0,1.815-1.02,3.655-3.222,3.655s-3.218-1.84-3.218-3.655,1.019-3.67,3.218-3.67,3.222,1.848,3.222,3.67m-3.222-2.9c-1.662,0-2.321,1.616-2.321,2.9s.659,2.9,2.321,2.9,2.331-1.62,2.331-2.9-.664-2.9-2.331-2.9" transform="translate(-6235.289 -6732.807)" fill="#1a1311"/>
        <path id="Path_42" data-name="Path 42" d="M6331.965,6767.353l2.383,5.759,2.3-5.759h.91l-2.735,6.9h-.939l-2.821-6.9Z" transform="translate(-6242.422 -6733.034)" fill="#1a1311"/>
        <path id="Path_43" data-name="Path 43" d="M6346.335,6770.769c.024,1.467.7,2.708,2.394,2.708a2.068,2.068,0,0,0,2-1.652h.869a2.9,2.9,0,0,1-3.128,2.4c-2.062,0-3.025-1.773-3.025-3.655s1.032-3.67,3.081-3.67c2.314,0,3.154,1.7,3.154,3.865Zm4.445-.768a2.209,2.209,0,0,0-2.242-2.331,2.286,2.286,0,0,0-2.179,2.331Z" transform="translate(-6249.701 -6732.807)" fill="#1a1311"/>
        <path id="Path_44" data-name="Path 44" d="M6362.524,6774.02h-.827v-5.351c.017-.537-.04-1.087-.062-1.549h.846l.043,1.013h.025a1.774,1.774,0,0,1,1.56-1.235,7.661,7.661,0,0,1,.828.015v.8c-.167-.011-.342-.051-.508-.051-1.23,0-1.879.877-1.9,2.2Z" transform="translate(-6257.896 -6732.799)" fill="#1a1311"/>
        <path id="Path_45" data-name="Path 45" d="M6371.158,6767.353l2.324,5.775,2.313-5.775h.894l-3.816,9.545h-.906l1.048-2.646-2.859-6.9Z" transform="translate(-6262.207 -6733.034)" fill="#1a1311"/>
        <rect id="Rectangle_7" data-name="Rectangle 7" width="1.098" height="1.185" transform="translate(114.43 40.035)" fill="#1a1311"/>
        <path id="Path_46" data-name="Path 46" d="M6195.636,6725.044a6.392,6.392,0,0,1,4-4.8,6.588,6.588,0,0,1,1.62-.466,22.91,22.91,0,0,0-45.8,1.008c0,.388.035.765.052,1.147a4.87,4.87,0,0,1,.438-.383,1.271,1.271,0,1,0,2.04.652,6.78,6.78,0,0,1-.007,3.473,5.037,5.037,0,0,1-1.373,2.211,22.912,22.912,0,0,0,34.589,11.9c-.072-.083-.146-.159-.209-.245a5.352,5.352,0,0,1-.819-4.668,4.877,4.877,0,0,1,4.185,2.223c.016.023.029.048.044.07a22.858,22.858,0,0,0,6.389-11.542,7.024,7.024,0,0,1-5.146-.585m-5.986-7.992a6.161,6.161,0,0,1,1.8-2.655,1.17,1.17,0,1,0,1.882.548,6.209,6.209,0,0,1,.087,3.208,5.036,5.036,0,0,1-3.011,3.31,4.6,4.6,0,0,1-.757-4.411m-11.071,4.519a9.514,9.514,0,0,1,4.943-.014,1.806,1.806,0,1,0,.936,2.883,9.413,9.413,0,0,1-4.008,2.886,7.769,7.769,0,0,1-6.831-.964,7.078,7.078,0,0,1,4.96-4.792m-18.422,2.87a1.806,1.806,0,1,0,.937-2.883,9.5,9.5,0,0,1,4.941.014,7.763,7.763,0,0,1,4.961,4.792,7.025,7.025,0,0,1-6.83.964,9.375,9.375,0,0,1-4.009-2.886M6170.3,6734.7a9.562,9.562,0,0,1-3.993,2.923,1.807,1.807,0,1,0-2.449-1.78,9.537,9.537,0,0,1,1.539-4.685,7.784,7.784,0,0,1,6.1-3.268,7.1,7.1,0,0,1-1.193,6.811m-1.024-15.484a9.611,9.611,0,0,1,1.511-4.709,1.807,1.807,0,1,0,3.035,0,9.6,9.6,0,0,1,1.513,4.709,7.762,7.762,0,0,1-3.031,6.2,7.07,7.07,0,0,1-3.027-6.2m11.474,16.627a6.241,6.241,0,0,1-2.864-1.371,6.331,6.331,0,0,1,.417,3.151,9.6,9.6,0,0,1-3.994-2.923,7.769,7.769,0,0,1-1.189-6.811,7.123,7.123,0,0,1,6.091,3.268,9.441,9.441,0,0,1,1.54,4.685m.524-3.344a4.294,4.294,0,0,1,2.135-.389,4.57,4.57,0,0,1-1.493-1.577,6.483,6.483,0,0,1,3.391.007,5.369,5.369,0,0,1,3.4,3.281,4.847,4.847,0,0,1-4.684.667,6.543,6.543,0,0,1-2.747-1.989m6.957,7.046a6.579,6.579,0,0,1-2.733,2,4.2,4.2,0,0,1,.285-2.162,4.331,4.331,0,0,1-1.963.94,6.547,6.547,0,0,1,1.051-3.225,5.34,5.34,0,0,1,4.183-2.217,4.852,4.852,0,0,1-.822,4.663m1.378-6.367a4.89,4.89,0,0,1-2.084-4.274,6.515,6.515,0,0,1,1.042-3.212,4.289,4.289,0,0,1,1.042,1.923,4.242,4.242,0,0,1,1.041-1.923,6.526,6.526,0,0,1,1.038,3.212,5.383,5.383,0,0,1-2.079,4.274m5.584,1.31a5.332,5.332,0,0,1-4.687-.667,4.876,4.876,0,0,1,3.4-3.281,6.48,6.48,0,0,1,3.392-.007,4.574,4.574,0,0,1-1.5,1.577,4.276,4.276,0,0,1,2.134.389,6.479,6.479,0,0,1-2.743,1.989m-1.476,7.057a1.241,1.241,0,1,1,1.685-1.221,6.653,6.653,0,0,0-1.012-3.155,23.124,23.124,0,0,1-3.2,2.621,6.664,6.664,0,0,0,2.527,1.755m-39.8-17.177a5.008,5.008,0,0,0,.712,4.8,5.234,5.234,0,0,0,1.97-1.284,23.545,23.545,0,0,1-1.1-5.953,6.75,6.75,0,0,0-1.583,2.435m53.328-15.02a5.525,5.525,0,0,0,2.148-1.9,8.676,8.676,0,0,0-4.444-.392,6.4,6.4,0,0,0-4.866,3.915,7.04,7.04,0,0,0,6.071,1.427,8.613,8.613,0,0,0,3.85-2.272,5.638,5.638,0,0,0-2.759-.78m-50.557,26.634a4.276,4.276,0,0,0,1.236-1.846,6.72,6.72,0,0,0-3.436.556,5.023,5.023,0,0,0-2.883,3.881,5.432,5.432,0,0,0,4.826-.087,6.765,6.765,0,0,0,2.47-2.448,4.223,4.223,0,0,0-2.213-.056m45.641-13.946a5.673,5.673,0,0,0,1.735-2.283,8.6,8.6,0,0,0-2.816.025c.016.336.051.668.051,1.008a23.084,23.084,0,0,1-.521,4.841,7.237,7.237,0,0,0,1.089-.389,8.669,8.669,0,0,0,3.327-2.988,5.745,5.745,0,0,0-2.865-.214" transform="translate(-6151.611 -6697.872)" fill="#dc000c"/>
      </g>
    </g>
  </g>
</svg>
