<svg xmlns="http://www.w3.org/2000/svg" xmlns:xlink="http://www.w3.org/1999/xlink" width="720.209" height="866.846" viewBox="0 0 720.209 866.846">
  <defs>
    <linearGradient id="linear-gradient" x1="0.253" y1="0.778" x2="0.5" y2="0.311" gradientUnits="objectBoundingBox">
      <stop offset="0" stop-color="#f0f0f0"/>
      <stop offset="1" stop-color="#fff"/>
    </linearGradient>
    <linearGradient id="linear-gradient-2" x1="0.296" y1="0.663" x2="0.746" y2="0.427" gradientUnits="objectBoundingBox">
      <stop offset="0" stop-color="#fff"/>
      <stop offset="1" stop-color="#efefef"/>
    </linearGradient>
    <filter id="Path_135" x="434.449" y="230.789" width="176.879" height="450.533" filterUnits="userSpaceOnUse">
      <feOffset input="SourceAlpha"/>
      <feGaussianBlur stdDeviation="3" result="blur"/>
      <feFlood flood-opacity="0.675"/>
      <feComposite operator="in" in2="blur"/>
      <feComposite in="SourceGraphic"/>
    </filter>
    <filter id="Path_136" x="345.264" y="341.951" width="108.836" height="305.389" filterUnits="userSpaceOnUse">
      <feOffset input="SourceAlpha"/>
      <feGaussianBlur stdDeviation="3" result="blur-2"/>
      <feFlood flood-opacity="0.675"/>
      <feComposite operator="in" in2="blur-2"/>
      <feComposite in="SourceGraphic"/>
    </filter>
    <filter id="Path_137" x="264.494" y="662.867" width="198.732" height="144.328" filterUnits="userSpaceOnUse">
      <feOffset input="SourceAlpha"/>
      <feGaussianBlur stdDeviation="3" result="blur-3"/>
      <feFlood flood-opacity="0.675"/>
      <feComposite operator="in" in2="blur-3"/>
      <feComposite in="SourceGraphic"/>
    </filter>
  </defs>
  <g id="Group_197" data-name="Group 197" transform="translate(22742.057 18296.957)">
    <path id="Path_49" data-name="Path 49" d="M417.792,407.543l2.161-30.26,6.484-12.428,11.888-12.969,8.646-17.832V323.786l10.807-17.292,1.621-24.316,12.428-18.372,4.863-18.913,2.7-28.639L475.071,194.1l-7.565-9.727L456.7,182.211l-10.807,2.161-6.484-1.621V166.54l8.106,3.242L458.86,168.7l7.565-10.807,4.323-23.776,1.081-9.186,206.959-.54-3.242,10.267,5.944,9.186,3.242,12.969,9.727,10.807,3.782,25.4-2.7,24.857-1.081,7.025,6.484-2.7,2.7-5.4,1.081,12.969-.54,5.4L701.1,233.8l1.67,8.629,3.619,2.505L701.93,250.5l-9.464,2.784,3.619,6.959-4.732,1.949,3.341,3.619-5.568,3.619L690.8,275h3.619l-2.227,8.908-7.795,8.629,3.619,5.567-6.681-.557v8.629l3.062,4.732-8.908-4.176-3.34,3.062L668.8,312.3l-2.784,9.186-6.124-9.465.278,11.413-.278,8.629-4.176-5.567v9.743l-4.732-6.959V339.3l-5.289,4.732,3.062,4.732V356h-4.732l-1.67,6.959-2.227,1.949,6.124,2.227-8.351,5.567,6.4,8.073.278,5.567h-6.124l6.4,6.124-8.629,4.732,5.011,3.619,3.9,6.959,1.949,6.959-4.732,2.784-2.858-6.418-5.859-.533-.71-9.055-6.925-1.065-2.841-3.551-8.087-.256L608.4,403.6l-1.948,7.238-1.67-8.073-3.062,6.124-8.908-14.475-3.062,14.475,3.062,6.959-12.526,15.31-3.9,16.424,2.505,19.764v24.775l-51.034,55.51-111.186-60.7Z" transform="translate(-22728.232 -18421.35)" fill="url(#linear-gradient)"/>
    <path id="Path_50" data-name="Path 50" d="M424.412,395.213l-19.89,9.5-7.011,3.69-2.952,14.392-11.439,5.9-13.285-.738-12.547-3.69-8.118-9.594L354.7,402.5l-.738-16.975-.738-3.69-7.011,4.8-12.547-4.059,1.845-10.333,4.428-8.118,7.38,3.321,10.7-3.321,5.166-7.38,1.107-5.9,12.916-.738,2.214-3.321V340.5l-2.952-3.69,5.9-6.273,7.011-.738,1.107-5.9-5.9-5.166h-5.166l-15.13,8.487-8.856,3.321-14.761,7.749L334.04,335.7l-6.273,5.9-8.487,1.476-3.69,7.38,4.059,4.8-5.535,6.273-.369,8.487v4.8l5.535.369v5.166l-1.476,2.952,5.535,5.535v6.273l-4.428,9.594,2.952,3.69.369,6.273-12.916,25.462-13.285,21.034-11.44,15.5-14.761,12.916-9.594,8.118-10.7,2.952-1.543,10.728-3.608,6.133-5.772,5.412-4.329,11.184-5.051,3.608,5.412,8.3,2.165,8.659,5.412,4.329,5.051,10.823-.722,5.773-2.525,8.659-4.329-6.494-1.8-8.3-5.051,5.773-.361,10.463-1.8,2.886-14.962,1.338-7.442,12.758,78.325,181.446,9.67-2.751,4.473-7.207,4.97,2.982,5.716-4.473,7.207-5.219-.5,4.721,9.195-.248,3.727,1.988-3.976,3.231,5.716,1.988,2.237-5.716,3.479-7.455L332.3,762l6.71-.5,2.485-6.71-4.473-4.722-9.443-4.722-7.207-.994-6.71-7.952-9.443-6.958-8.133-1.025.926-5.436,1.242-15.407,9.443-15.9.746-10.437,3.479-6.461,4.722-2.734,12.425-.249,5.716-5.219-4.473,17.147,1.988,12.425,10.437.994,3.249-6.492-.764,5.746,6.461,9.443,17.147.248,2.485-4.473,12.674.994,4.722,3.728-2.236,6.71-10.934,7.7-13.916,5.964-4.225-2.982-3.976,6.461v5.467l21.868-7.207,27.336-7.952,14.662-.994-5.964-4.97.249-7.207,3.976-3.479,4.174,1.275v4.329l2.886,1.8-3.333,8.248,15.6,4.018,5.412.722,14.431-5.051,14.792,3.969,21.286,8.3-3.608-6.494,1.082-7.937,11.545-12.988,2.886-6.855.721-10.463,9.02-5.412,13.349-4.69,1.443-12.627,11.906-5.412,9.741-1.8,8.3,4.69,7.216,3.247,1.8,4.69-12.627,4.69-2.525,6.133,3.608,6.855-3.247,3.608,1.443,5.412-3.247,5.412,4.69,4.69-5.772,9.38,1.082,2.886,5.412,1.443v8.659l4.329,2.886,10.1-6.855,7.216.722v-9.38l5.051-11.184,9.741-9.019,2.525-5.412V686l3.608-3.608-6.133-5.772-2.526-12.988,5.773-26.7-24.172-42.211L463.016,570.912,441.008,398.821Z" transform="translate(-22950.326 -18214.244)" fill="url(#linear-gradient-2)"/>
    <g id="Group_196" data-name="Group 196">
      <path id="Path_51" data-name="Path 51" d="M378.526,494.07l16.4,1.782,4.278,7.13-3.565,10.695,2.139,8.556,5.7,8.556,6.06,1.782,7.486-14.259,11.764-7.843,12.477-3.565,17.824,1.782,6.773,9.982,1.07,10.695,6.417,2.852v-8.556l6.06-4.278v-4.634l-6.417-5.347-2.139-2.852,3.565-2.139-4.634-6.06,2.5-13.19,8.912-.713,5.347-4.634L481.907,457l-84.487-20.676-14.26,36.718Z" transform="translate(-22768.885 -18088.93)" fill="#1d2087" stroke="#fff" stroke-width="1"/>
      <path id="Path_52" data-name="Path 52" d="M402.549,474.043l7.486-2.852,13.19,12.477,17.111.356,12.121,10.695-1.069-14.259,13.547.356,6.06.357,4.991,7.843,7.486,1.426,2.5-6.773,3.208-8.556,5.313,4.073,9.659-10.133-.357-27.093L396.845,422l-17.111,18.181,9.625,34.579Z" transform="translate(-22767.598 -18104.193)" fill="#1d2087" stroke="#fff" stroke-width="1"/>
      <path id="Path_53" data-name="Path 53" d="M398.563,484.965l7.486-6.06,2.5-6.417h5.7l11.051,4.278,17.824,4.278,11.051,6.417,19.607-1.07h26.023l4.991-2.139,9.982,4.278,13.9-53.116L476.99,393.348,373.609,417.589l-8.2,44.917Z" transform="translate(-22782.863 -18134.723)" fill="#1d2087" stroke="#fff" stroke-width="1"/>
      <path id="Path_54" data-name="Path 54" d="M342.353,475.123l8.912,4.278,1.426,15.329-.357,12.121-2.139,6.06,5.7,9.269,8.912.713,3.208,8.556,2.5,5.7,6.06,6.417,7.843-6.06v-6.417l-2.852-7.13,6.06-18.181,4.634,1.069,1.069,3.921,7.486,2.139,3.921,3.565,13.9-3.565,9.982-4.991,11.408-8.912,10.695-5.7,1.426-21.746-8.556-4.634-6.773-5.347L432.9,448.743l-7.486,1.782-6.417-5.7-4.634.713-13.546-10.695-58.107-13.19-2.5,38.144Z" transform="translate(-22809.713 -18104.563)" fill="#1d2087" stroke="#fff" stroke-width="1"/>
      <path id="Path_55" data-name="Path 55" d="M432.493,415.68l2.778,15.079,5.952,11.508,3.968,9.524-2.381,14.682,3.571,7.143-5.159,12.3,3.571,2.381,5.555-4.365.4-4.365h8.73l8.333,13.888-5.159,3.571-7.143,11.9-9.92,3.571v8.333l1.984,4.365-7.539-1.984-2.381,6.349,3.571,8.73v7.143l-3.968,2.778,3.174,5.159-1.19,9.92-2.778,5.159,5.159,3.571-11.9,4.762,4.762,4.365,3.175,3.968,9.523-.794,6.349-8.73,2.381-5.159L469,562.5v-5.555l8.333-3.571,4.365,3.174,12.3-1.984,7.54-9.523,2.778-7.539-.794-11.508L500.745,512.5l4.762-7.936,7.143-11.9L518.6,487.5l10.317-9.127,8.333-3.571H543.2l7.214-2.018,3.5,2.018v-7.143l-3.831-1.172-20.374-26.6-67.061-17.46Z" transform="translate(-22714.332 -18110.924)" fill="#1d2087" stroke="#fff" stroke-width="1"/>
      <path id="Path_56" data-name="Path 56" d="M551.933,361.109l-1.19,21.428-10.317,25-11.9,29.761,4.365,11.9-7.936,6.349,1.587,13.095,9.127,24.6,9.92,19.047,3.174,8.333,4.762,7.143,4.365,3.968-3.175,2-7.539-5.972-5.159-7.539-15.872-12.7H519l-11.507,1.587-8.73,6.349-5.952-1.19L481.3,518.247l-7.936.4-7.539-8.73H456.3l-10.317-13.095-3.174-6.746-13.245-5.763-3.571-7.143.944-27.569,39.681-89.68,45.237-4.365Z" transform="translate(-22718.299 -18175)" fill="#1d2087" stroke="#fff" stroke-width="1"/>
      <path id="Path_57" data-name="Path 57" d="M521.186,376.309l-2.778,24.206,3.968,8.333,1.19,5.159-7.539,1.984v8.333l1.19,13.492-4.762,17.857L494.6,463.211,484.282,464l-11.9,10.317-9.92,10.317-13.095-.4L419.6,476.306l-19.841-53.966-.4-57.538,70.236-25,38.491,1.587Z" transform="translate(-22746.678 -18191.787)" fill="#1d2087" stroke="#fff" stroke-width="1"/>
      <path id="Path_58" data-name="Path 58" d="M464.921,308.57l19.444,1.984h13.492L505,318.888l5.952-3.571,6.349.4,4.365,4.365h13.888l3.968-8.333-5.158-3.968,2.381-4.762V287.936l7.539,3.968h13.492l1.587,3.175,24.6,5.159.794,8.333,7.539,6.349,8.73-1.984,1.984-15.872,9.127,2.778L614.122,305l4.762,8.333,5.159,50.4.4,7.936-3.968,13.888v21.825L616.9,427.614l-8.333,7.143-12.7,5.952-2.381,4.365-15.476-3.968-9.92-.794,3.174,5.158-7.936,2.778-5.555,7.143-8.333-4.762-.4-5.159-7.539-6.746-9.127-1.984.4-9.92-14.682-14.682-14.682-4.365-13.888,1.587-10.317,5.555-19.841,8.73-15.872,7.936-12.3,8.333-15.476-8.73-30.951-57.141,27.777-33.729Z" transform="translate(-22762.236 -18247.061)" fill="#1d2087" stroke="#fff" stroke-width="1"/>
      <path id="Path_59" data-name="Path 59" d="M390.4,513.417l9.524-1.984.4-6.746,3.571-2.778,4.762,2.778,6.746-3.571,1.587-8.333,10.317.794,10.317-5.952,8.73-19.047,5.555,1.587,17.063,5.952,2.381-3.571,13.492,7.539,5.555.4,1.587-3.571,17.857,1.984-7.936-7.539-17.857-1.984-10.317-17.857,7.143-10.317v-9.523l3.968-7.54-13.888-3.174v-12.3l3.174-11.111-1.19-9.92,3.968-9.127-21.031-11.9L441.99,345.565,380.881,378.5l-34.919,51.586,27.777,64.681Z" transform="translate(-22803.588 -18185.646)" fill="#1d2087" stroke="#fff" stroke-width="1"/>
      <path id="Path_60" data-name="Path 60" d="M344.056,379.5v37.7l-7.936,2.778v8.73L325.8,446.96l4.762,5.952v6.746l-6.746,10.317v7.936l-4.762,9.524,6.349,4.762-6.349,11.9L313.1,516.4h-9.92l-7.936,10.714,2.381,3.968,11.9,3.968,3.968,9.523,4.365,4.762-1.984,5.159,3.77,9.92,6.944,2.778,2.778,5.555-3.571,3.175,3.174,5.952-5.555,5.555,1.984,3.968-5.555,11.508,3.174,9.92,15.872-7.539,12.7,5.158,26.19-15.476,5.952-2.381,4.762-9.523-.4-9.92,2.381-12.7,6.349-9.127-5.159-9.127,6.746-9.127-4.365-5.952,5.158-8.333h5.952l6.746-10.317h10.714l1.19,5.952h4.762l3.571-1.19,9.523,1.19,3.175,5.555h3.968l7.539-9.524-8.73-11.111-3.571-13.888L438.1,479.5l5.555-5.952-1.587-13.888,4.365-1.984-.4-15.872-14.682,2.381-7.539-.794-6.349-3.968.4-12.3,4.365-12.7,9.127-6.349,1.587-6.746,15.873-6.349,11.9-18.253-19.444-25.4-83.331,11.9Z" transform="translate(-22857.635 -18179.504)" fill="#1d2087" stroke="#fff" stroke-width="1"/>
      <path id="Path_61" data-name="Path 61" d="M530.194,248.74l-8.73,13.094-2.776,12.3v24.206L507.18,315.8l-12.3,11.109-16.269,5.953h-8.333L447.656,353.5l-5.951,16.269-1.985,12.7-7.934,15.873s-6.35-2.382-6.746,5.158-7.143,12.7-7.143,12.7l-15.476,6.35L392.1,436.828l-20.238,9.523H360.755l-17.063,12.3-24.206,9.525-7.141,1.983,6.745,8.333,1.589,10.318,1.586,10.316,5.951,3.572,5.557-4.761,7.54-18.255,9.92,2.382,6.35,3.572-1.589,5.555,2.382,6.35,7.936-7.143,18.649,1.985L392.9,476.51l14.286-8.73,14.086,3.173v12.7l8.531,5.557.793,15.474h5.953l10.316-3.173,2.778-5.953,7.936-1.586,5.555-10.715V472.542l14.286-3.175,1.983-8.333,9.126,10.316.4,7.143h7.143l.793-30.554-2.549-7.728L487.735,436l7.54-17.42-3.572-6.747,2.382-6.35h13.491l11.031-7.3,5.239,1.745,9.523-2.38.4-5.557-2.756-16.6,9.106-2.847,3.388-12.287,6.135-3.187,1.19-4.761-9.523-9.922v-11.9l5.953-18.253V293.975l4.761,2.778h12.3l6.348-8.73-2.776-9.523-7.54-4.761-3.968,3.57-6.747-8.333v-9.919L554,254.295l-15.29-5.91Z" transform="translate(-22839.414 -18289.211)" fill="#1d2087" stroke="#fff" stroke-width="1"/>
      <g id="Ellipse_5" data-name="Ellipse 5" transform="translate(-22294 -17631)" fill="red" stroke="#fff" stroke-width="1">
        <circle cx="6" cy="6" r="6" stroke="none"/>
        <circle cx="6" cy="6" r="5.5" fill="none"/>
      </g>
      <g id="Ellipse_6" data-name="Ellipse 6" transform="translate(-22235 -17654)" fill="red" stroke="#fff" stroke-width="1">
        <circle cx="6" cy="6" r="6" stroke="none"/>
        <circle cx="6" cy="6" r="5.5" fill="none"/>
      </g>
      <g id="Ellipse_7" data-name="Ellipse 7" transform="translate(-22294 -17618)" fill="red" stroke="#fff" stroke-width="1">
        <circle cx="6" cy="6" r="6" stroke="none"/>
        <circle cx="6" cy="6" r="5.5" fill="none"/>
      </g>
      <text id="Narita_Airport" data-name="Narita
Airport" transform="translate(-22220 -17645)" fill="#fff" font-size="8" font-family="Roboto-Regular, Roboto"><tspan x="0" y="0">Narita</tspan><tspan x="0" y="11">Airport</tspan></text>
      <text id="Haneda_Airport" data-name="Haneda Airport" transform="translate(-22352 -17604)" fill="#fff" font-size="8" font-family="Roboto-Regular, Roboto"><tspan x="0" y="0">Haneda Airport</tspan></text>
      <text id="Tokyo_Station" data-name="Tokyo Station" transform="translate(-22344 -17629)" fill="#fff" font-size="8" font-family="Roboto-Regular, Roboto"><tspan x="0" y="0">Tokyo Station</tspan></text>
    </g>
    <g id="Group_195" data-name="Group 195">
      <g transform="matrix(1, 0, 0, 1, -22742.06, -18296.96)" filter="url(#Path_135)">
        <path id="Path_135-2" data-name="Path 135" d="M1347,1495s1.261-5.017,0-8.472-10.662-8.773-8.937-17.777,16.686-53.565,19.256-58.024,15.791-17.187,16.4-22.1-6.387-15.185-5.47-22.461,11-9.755,11.307-16.989-4.632-18.437-3.039-25.125,46.424-77.321,48.433-85.469-.987-23.706,1.979-30.536,52.143-71.312,53.208-82.086-1.829-20.743,1.626-31.118,12.119-31.442,12.119-31.442" transform="translate(-892.94 -823.04)" fill="none" stroke="#34db15" stroke-width="3" stroke-dasharray="2 2"/>
      </g>
      <g transform="matrix(1, 0, 0, 1, -22742.06, -18296.96)" filter="url(#Path_136)">
        <path id="Path_136-2" data-name="Path 136" d="M1269.357,1174.4s2.7,9.543,2.7,15.194-10.232,33.3-12.972,38.621.677,19.019,0,32.475-11.407,58.752-10.326,71.552,24.348,35.18,25.86,46.418-4.735,20.056,0,34.076c2.571,7.613,25.479,12.2,41.807,20.817,13.245,6.991,19.286,25.262,20.3,27.1" transform="translate(-892.94 -823.04)" fill="none" stroke="#34db15" stroke-width="3" stroke-dasharray="2 2"/>
      </g>
      <g transform="matrix(1, 0, 0, 1, -22742.06, -18296.96)" filter="url(#Path_137)">
        <path id="Path_137-2" data-name="Path 137" d="M1346.034,1495.889s-9.723,11.278-11.482,15.633c-1.667,4.13-4.579,9.614-8.957,13.241-8.4,6.962-24.488,7.717-32.111,10.77s-18.488,7.641-22.088,15.218-3.553,12.743-15.67,15.053-17.962-9.788-27.446-7.864a55.09,55.09,0,0,0-26.671,13.47c-8.435,7.551-15.646,13.969-21.892,21.677s-11.835,27.749-11.835,27.749" transform="translate(-892.94 -823.04)" fill="none" stroke="#34db15" stroke-width="3" stroke-dasharray="2 2"/>
      </g>
    </g>
  </g>
</svg>
