<svg xmlns="http://www.w3.org/2000/svg" width="670.911" height="813.49" viewBox="0 0 670.911 813.49">
  <g id="Group_191" data-name="Group 191" transform="translate(0.601 0.504)">
    <g id="Group_188" data-name="Group 188" transform="translate(0 0)">
      <path id="Path_265" data-name="Path 265" d="M378.526,527.423l25.869,2.812,6.749,11.248-5.624,16.871,3.374,13.5,9,13.5,9.56,2.812,11.81-22.495,18.558-12.372,19.683-5.624,28.119,2.812,10.685,15.747,1.687,16.871,10.123,4.5V574.1l9.56-6.749v-7.311l-10.123-8.436-3.374-4.5,5.624-3.374-7.311-9.56,3.937-20.808,14.059-1.125,8.436-7.311-7.311-35.992L408.331,436.319l-22.495,57.924Z" transform="translate(-107.146 176.106)" fill="#1d2087" stroke="#fff" stroke-width="1"/>
      <path id="Path_266" data-name="Path 266" d="M415.725,504.1l11.81-4.5,20.808,19.683,26.994.562,19.12,16.871-1.687-22.495,21.37.562,9.56.562,7.873,12.372,11.81,2.25,3.936-10.685,5.061-13.5,8.382,6.426L576,496.229l-.562-42.74L406.727,422l-26.994,28.681,15.184,54.55Z" transform="translate(-104.419 143.754)" fill="#1d2087" stroke="#fff" stroke-width="1"/>
      <path id="Path_267" data-name="Path 267" d="M417.71,537.878l11.81-9.56,3.937-10.122h9l17.433,6.748,28.119,6.749,17.433,10.123,30.93-1.687h41.053l7.873-3.374,15.747,6.748,21.932-83.793-81.544-66.36L378.344,431.59,365.41,502.448Z" transform="translate(-136.771 79.048)" fill="#1d2087" stroke="#fff" stroke-width="1"/>
      <path id="Path_268" data-name="Path 268" d="M343.588,506.006l14.059,6.748,2.25,24.182-.562,19.121-3.374,9.56,9,14.622,14.059,1.125,5.061,13.5,3.937,9,9.56,10.122,12.372-9.56V594.3l-4.5-11.247,9.56-28.681,7.311,1.687,1.687,6.186,11.81,3.374L442,571.241l21.932-5.624,15.746-7.873,18-14.059,16.871-9,2.25-34.3-13.5-7.311-10.685-8.436-6.186-20.245-11.81,2.812-10.123-9-7.311,1.125-21.37-16.871-91.667-20.808-3.937,60.174Z" transform="translate(-193.68 142.972)" fill="#1d2087" stroke="#fff" stroke-width="1"/>
      <path id="Path_269" data-name="Path 269" d="M434.1,415.68l4.382,23.788,9.39,18.154,6.26,15.024-3.756,23.161,5.634,11.268-8.138,19.406,5.634,3.756,8.764-6.886.626-6.886h13.772l13.146,21.909-8.138,5.634L470.4,562.787l-15.65,5.634v13.146l3.13,6.886-11.894-3.13-3.756,10.016,5.634,13.772v11.268l-6.26,4.382,5.008,8.138-1.878,15.65-4.382,8.138,8.138,5.634-18.78,7.512,7.512,6.886,5.008,6.26,15.024-1.252,10.016-13.772,3.756-8.138,20.658-12.52v-8.764l13.146-5.634,6.886,5.008,19.406-3.13,11.894-15.024,4.382-11.894L546.149,589.7l-4.382-21.283,7.512-12.52,11.268-18.78,9.39-8.138,16.276-14.4,13.146-5.634h9.39l11.38-3.184,5.521,3.184V497.684l-6.044-1.849-32.141-41.97L481.672,426.322Z" transform="translate(8.477 129.489)" fill="#1d2087" stroke="#fff" stroke-width="1"/>
      <path id="Path_270" data-name="Path 270" d="M624.667,364.318l-1.878,33.8-16.276,39.437-18.779,46.949,6.886,18.78L582.1,513.3l2.5,20.658L599,572.771l15.65,30.047,5.008,13.145,7.512,11.268,6.886,6.26-5.008,3.16-11.894-9.42-8.138-11.894-25.039-20.031H572.71l-18.153,2.5-13.772,10.016-9.39-1.878-18.154,6.26-12.52.626-11.894-13.771H473.8l-16.276-20.658-5.008-10.642-20.894-9.092L425.993,547.4l1.489-43.491,62.6-141.473,71.362-6.886Z" transform="translate(0.07 -6.319)" fill="#1d2087" stroke="#fff" stroke-width="1"/>
      <path id="Path_271" data-name="Path 271" d="M591.542,397.393l-4.382,38.185,6.26,13.146,1.878,8.138-11.894,3.13v13.146l1.878,21.284L577.77,522.59,549.6,534.484l-16.276,1.252-18.78,16.276L498.9,568.287l-20.657-.626-46.949-12.52-31.3-85.134-.626-90.768,110.8-39.437,60.72,2.5Z" transform="translate(-60.079 -41.899)" fill="#1d2087" stroke="#fff" stroke-width="1"/>
      <path id="Path_272" data-name="Path 272" d="M511.214,320.488l30.673,3.13h21.284l11.268,13.146,9.39-5.634,10.016.626,6.886,6.886h21.909L628.9,325.5l-8.138-6.26,3.756-7.512V287.936l11.893,6.26h21.284l2.5,5.008,38.811,8.138,1.252,13.146L712.155,330.5l13.772-3.13,3.13-25.039,14.4,4.382,3.13,8.138L754.1,328l8.138,79.5.626,12.52-6.26,21.909v34.429l-5.634,31.925-13.146,11.268-20.031,9.39-3.756,6.886-24.414-6.26-15.65-1.252,5.008,8.138-12.52,4.382L657.695,552.1l-13.146-7.512-.626-8.138-11.894-10.642-14.4-3.13.626-15.649L595.1,483.87l-23.161-6.886-21.91,2.5-16.275,8.764-31.3,13.772-25.039,12.52-19.406,13.146-24.413-13.772-48.827-90.142,43.819-53.209Z" transform="translate(-93.053 -159.049)" fill="#1d2087" stroke="#fff" stroke-width="1"/>
      <path id="Path_273" data-name="Path 273" d="M416.072,610.357l15.024-3.13.626-10.642,5.634-4.382,7.512,4.382,10.642-5.634,2.5-13.146,16.276,1.252,16.276-9.39,13.772-30.047,8.764,2.5,26.917,9.39,3.756-5.634,21.283,11.894,8.764.626,2.5-5.634,28.169,3.13L591.974,544l-28.169-3.13L547.529,512.7,558.8,496.428V481.4l6.26-11.894L543.147,464.5V445.1l5.008-17.528-1.878-15.65,6.26-14.4-33.177-18.78L497.45,345.565l-96.4,51.957L345.961,478.9,389.78,580.936Z" transform="translate(-180.699 -28.884)" fill="#1d2087" stroke="#fff" stroke-width="1"/>
      <path id="Path_274" data-name="Path 274" d="M372.244,395.773v59.469l-12.52,4.382V473.4l-16.276,28.8,7.512,9.39v10.642L340.319,538.5v12.52l-7.512,15.024,10.016,7.512-10.016,18.78-9.39,19.406h-15.65l-12.52,16.9L299,634.9l18.78,6.26,6.26,15.024,6.886,7.512-3.13,8.138,5.947,15.65,10.955,4.382,4.382,8.764-5.634,5.008,5.008,9.39-8.764,8.764,3.13,6.26L334.059,748.2l5.008,15.65,25.039-11.894,20.032,8.138,41.315-24.414,9.39-3.756,7.512-15.024-.626-15.65,3.756-20.031,10.016-14.4-8.138-14.4L458,638.03l-6.886-9.39,8.138-13.146h9.39l10.642-16.276h16.9l1.878,9.39h7.512l5.634-1.878,15.023,1.878,5.008,8.764h6.26L549.4,602.348l-13.772-17.528-5.634-21.91-9.39-9.39,8.764-9.39-2.5-21.91,6.886-3.13-.626-25.039-23.161,3.756-11.894-1.252-10.016-6.26.626-19.406,6.886-20.031,14.4-10.016,2.5-10.642L537.5,420.186l18.779-28.8-30.673-40.063-131.457,18.78Z" transform="translate(-295.248 -15.865)" fill="#1d2087" stroke="#fff" stroke-width="1"/>
      <path id="Path_275" data-name="Path 275" d="M656.009,248.946,642.237,269.6l-4.38,19.406v38.186L619.7,354.736,600.3,372.262l-25.666,9.392H561.487L525.8,414.2l-9.388,25.666L513.284,459.9l-12.517,25.04s-10.017-3.757-10.643,8.137-11.269,20.031-11.269,20.031l-24.414,10.017-16.274,22.534-31.926,15.023H388.713L361.8,580.09,323.61,595.116l-11.265,3.128,10.64,13.146,2.506,16.277,2.5,16.274,9.388,5.634,8.766-7.511,11.894-28.8,15.648,3.757,10.017,5.634-2.506,8.763,3.757,10.017,12.52-11.269L426.9,633.3l12.52-25.04,22.537-13.771,22.221,5.005v20.031l13.458,8.766,1.251,24.411h9.392l16.274-5.005,4.383-9.392,12.52-2.5,8.763-16.9V602l22.537-5.009,3.128-13.146,14.4,16.274.626,11.269h11.269l1.251-48.2L599.4,551l-10.376-6.651,11.894-27.481-5.634-10.643,3.757-10.017h21.283l17.4-11.516,8.264,2.754,15.023-3.754.626-8.766L657.3,448.741l14.364-4.491L677,424.867l9.678-5.028,1.877-7.511-15.023-15.652V377.9l9.392-28.794V320.3l7.511,4.383h19.406l10.014-13.771-4.38-15.023-11.894-7.511-6.26,5.631-10.643-13.146V265.22l6.885-7.511-24.121-9.323Z" transform="translate(-256.631 -248.385)" fill="#1d2087" stroke="#fff" stroke-width="1"/>
    </g>
    <g id="Group_190" data-name="Group 190" transform="translate(91.943 255.201)">
      <text id="Fukushima" transform="translate(376.068 21.774)" fill="#fff" font-size="23" font-family="Roboto-Bold, Roboto" font-weight="700"><tspan x="0" y="0">Fukushima</tspan></text>
      <text id="Niigata" transform="translate(131.068 57.774)" fill="#fff" font-size="23" font-family="Roboto-Bold, Roboto" font-weight="700"><tspan x="0" y="0">Niigata</tspan></text>
      <text id="Nagano" transform="translate(0.068 286.774)" fill="#fff" font-size="22" font-family="Roboto-Bold, Roboto" font-weight="700"><tspan x="0" y="0">Nagano</tspan></text>
      <text id="Gunma" transform="translate(162.068 205.774)" fill="#fff" font-size="23" font-family="Roboto-Bold, Roboto" font-weight="700"><tspan x="0" y="0">Gunma</tspan></text>
      <text id="Tochigi" transform="translate(316.068 172.774)" fill="#fff" font-size="23" font-family="Roboto-Bold, Roboto" font-weight="700"><tspan x="0" y="0">Tochigi</tspan></text>
      <text id="Ibaraki" transform="translate(399.068 280.774)" fill="#fff" font-size="23" font-family="Roboto-Bold, Roboto" font-weight="700"><tspan x="0" y="0">Ibaraki</tspan></text>
      <text id="Saitama" transform="translate(224.068 324.774)" fill="#fff" font-size="23" font-family="Roboto-Bold, Roboto" font-weight="700"><tspan x="0" y="0">Saitama</tspan></text>
      <text id="Yamanashi" transform="translate(88.068 407.774)" fill="#fff" font-size="23" font-family="Roboto-Bold, Roboto" font-weight="700"><tspan x="0" y="0">Yamanashi</tspan></text>
      <text id="Chiba" transform="translate(410.068 393.774)" fill="#fff" font-size="23" font-family="Roboto-Bold, Roboto" font-weight="700"><tspan x="0" y="0">Chiba</tspan></text>
      <text id="Kanagawa" transform="translate(212.068 450.774)" fill="#fff" font-size="22" font-family="Roboto-Bold, Roboto" font-weight="700"><tspan x="0" y="0">Kanagawa</tspan></text>
      <text id="Tokyo" transform="translate(253.068 388.774)" fill="#fff" font-size="22" font-family="Roboto-Bold, Roboto" font-weight="700"><tspan x="0" y="0">Tokyo</tspan></text>
    </g>
  </g>
</svg>
