<svg xmlns="http://www.w3.org/2000/svg" width="670.912" height="813.488" viewBox="0 0 670.912 813.488">
  <g id="Group_209" data-name="Group 209" transform="translate(18051.613 16937.479)">
    <g id="Group_188" data-name="Group 188" transform="translate(-18051.012 -16936.975)">
      <path id="Path_265" data-name="Path 265" d="M378.526,527.423l25.869,2.812,6.749,11.248-5.624,16.871,3.374,13.5,9,13.5,9.56,2.812,11.81-22.495,18.558-12.372,19.683-5.624,28.119,2.812,10.685,15.747,1.687,16.871,10.123,4.5V574.1l9.56-6.749v-7.311l-10.123-8.436-3.374-4.5,5.624-3.374-7.311-9.56,3.937-20.808,14.059-1.125,8.436-7.311-7.311-35.992L408.331,436.319l-22.495,57.924Z" transform="translate(-107.146 176.106)" fill="#1d2087" stroke="#fff" stroke-width="1"/>
      <path id="Path_266" data-name="Path 266" d="M415.725,504.1l11.81-4.5,20.808,19.683,26.994.562,19.12,16.871-1.687-22.495,21.37.562,9.56.562,7.873,12.372,11.81,2.25,3.936-10.685,5.061-13.5,8.382,6.426L576,496.229l-.562-42.74L406.727,422l-26.994,28.681,15.184,54.55Z" transform="translate(-104.419 143.754)" fill="#1d2087" stroke="#fff" stroke-width="1"/>
      <path id="Path_267" data-name="Path 267" d="M417.71,537.878l11.81-9.56,3.937-10.122h9l17.433,6.748,28.119,6.749,17.433,10.123,30.93-1.687h41.053l7.873-3.374,15.747,6.748,21.932-83.793-81.544-66.36L378.344,431.59,365.41,502.448Z" transform="translate(-136.771 79.048)" fill="#1d2087" stroke="#fff" stroke-width="1"/>
      <path id="Path_268" data-name="Path 268" d="M343.588,506.006l14.059,6.748,2.25,24.182-.562,19.121-3.374,9.56,9,14.622,14.059,1.125,5.061,13.5,3.937,9,9.56,10.122,12.372-9.56V594.3l-4.5-11.247,9.56-28.681,7.311,1.687,1.687,6.186,11.81,3.374L442,571.241l21.932-5.624,15.746-7.873,18-14.059,16.871-9,2.25-34.3-13.5-7.311-10.685-8.436-6.186-20.245-11.81,2.812-10.123-9-7.311,1.125-21.37-16.871-91.667-20.808-3.937,60.174Z" transform="translate(-193.68 142.972)" fill="#1d2087" stroke="#fff" stroke-width="1"/>
      <path id="Path_269" data-name="Path 269" d="M434.1,415.68l4.382,23.788,9.39,18.154,6.26,15.024-3.756,23.161,5.634,11.268-8.138,19.406,5.634,3.756,8.764-6.886.626-6.886h13.772l13.146,21.909-8.138,5.634L470.4,562.787l-15.65,5.634v13.146l3.13,6.886-11.894-3.13-3.756,10.016,5.634,13.772v11.268l-6.26,4.382,5.008,8.138-1.878,15.65-4.382,8.138,8.138,5.634-18.78,7.512,7.512,6.886,5.008,6.26,15.024-1.252,10.016-13.772,3.756-8.138,20.658-12.52v-8.764l13.146-5.634,6.886,5.008,19.406-3.13,11.894-15.024,4.382-11.894L546.149,589.7l-4.382-21.283,7.512-12.52,11.268-18.78,9.39-8.138,16.276-14.4,13.146-5.634h9.39l11.38-3.184,5.521,3.184V497.684l-6.044-1.849-32.141-41.97L481.672,426.322Z" transform="translate(8.477 129.489)" fill="#1d2087" stroke="#fff" stroke-width="1"/>
      <path id="Path_270" data-name="Path 270" d="M624.667,364.318l-1.878,33.8-16.276,39.437-18.779,46.949,6.886,18.78L582.1,513.3l2.5,20.658L599,572.771l15.65,30.047,5.008,13.145,7.512,11.268,6.886,6.26-5.008,3.16-11.894-9.42-8.138-11.894-25.039-20.031H572.71l-18.153,2.5-13.772,10.016-9.39-1.878-18.154,6.26-12.52.626-11.894-13.771H473.8l-16.276-20.658-5.008-10.642-20.894-9.092L425.993,547.4l1.489-43.491,62.6-141.473,71.362-6.886Z" transform="translate(0.07 -6.319)" fill="#1d2087" stroke="#fff" stroke-width="1"/>
      <path id="Path_271" data-name="Path 271" d="M591.542,397.393l-4.382,38.185,6.26,13.146,1.878,8.138-11.894,3.13v13.146l1.878,21.284L577.77,522.59,549.6,534.484l-16.276,1.252-18.78,16.276L498.9,568.287l-20.657-.626-46.949-12.52-31.3-85.134-.626-90.768,110.8-39.437,60.72,2.5Z" transform="translate(-60.079 -41.899)" fill="#1d2087" stroke="#fff" stroke-width="1"/>
      <path id="Path_272" data-name="Path 272" d="M511.214,320.488l30.673,3.13h21.284l11.268,13.146,9.39-5.634,10.016.626,6.886,6.886h21.909L628.9,325.5l-8.138-6.26,3.756-7.512V287.936l11.893,6.26h21.284l2.5,5.008,38.811,8.138,1.252,13.146L712.155,330.5l13.772-3.13,3.13-25.039,14.4,4.382,3.13,8.138L754.1,328l8.138,79.5.626,12.52-6.26,21.909v34.429l-5.634,31.925-13.146,11.268-20.031,9.39-3.756,6.886-24.414-6.26-15.65-1.252,5.008,8.138-12.52,4.382L657.695,552.1l-13.146-7.512-.626-8.138-11.894-10.642-14.4-3.13.626-15.649L595.1,483.87l-23.161-6.886-21.91,2.5-16.275,8.764-31.3,13.772-25.039,12.52-19.406,13.146-24.413-13.772-48.827-90.142,43.819-53.209Z" transform="translate(-93.053 -159.049)" fill="#1d2087" stroke="#fff" stroke-width="1"/>
      <path id="Path_273" data-name="Path 273" d="M416.072,610.357l15.024-3.13.626-10.642,5.634-4.382,7.512,4.382,10.642-5.634,2.5-13.146,16.276,1.252,16.276-9.39,13.772-30.047,8.764,2.5,26.917,9.39,3.756-5.634,21.283,11.894,8.764.626,2.5-5.634,28.169,3.13L591.974,544l-28.169-3.13L547.529,512.7,558.8,496.428V481.4l6.26-11.894L543.147,464.5V445.1l5.008-17.528-1.878-15.65,6.26-14.4-33.177-18.78L497.45,345.565l-96.4,51.957L345.961,478.9,389.78,580.936Z" transform="translate(-180.699 -28.884)" fill="#1d2087" stroke="#fff" stroke-width="1"/>
      <path id="Path_274" data-name="Path 274" d="M372.244,395.773v59.469l-12.52,4.382V473.4l-16.276,28.8,7.512,9.39v10.642L340.319,538.5v12.52l-7.512,15.024,10.016,7.512-10.016,18.78-9.39,19.406h-15.65l-12.52,16.9L299,634.9l18.78,6.26,6.26,15.024,6.886,7.512-3.13,8.138,5.947,15.65,10.955,4.382,4.382,8.764-5.634,5.008,5.008,9.39-8.764,8.764,3.13,6.26L334.059,748.2l5.008,15.65,25.039-11.894,20.032,8.138,41.315-24.414,9.39-3.756,7.512-15.024-.626-15.65,3.756-20.031,10.016-14.4-8.138-14.4L458,638.03l-6.886-9.39,8.138-13.146h9.39l10.642-16.276h16.9l1.878,9.39h7.512l5.634-1.878,15.023,1.878,5.008,8.764h6.26L549.4,602.348l-13.772-17.528-5.634-21.91-9.39-9.39,8.764-9.39-2.5-21.91,6.886-3.13-.626-25.039-23.161,3.756-11.894-1.252-10.016-6.26.626-19.406,6.886-20.031,14.4-10.016,2.5-10.642L537.5,420.186l18.779-28.8-30.673-40.063-131.457,18.78Z" transform="translate(-295.248 -15.865)" fill="#1d2087" stroke="#fff" stroke-width="1"/>
      <path id="Path_275" data-name="Path 275" d="M656.009,248.946,642.237,269.6l-4.38,19.406v38.186L619.7,354.736,600.3,372.262l-25.666,9.392H561.487L525.8,414.2l-9.388,25.666L513.284,459.9l-12.517,25.04s-10.017-3.757-10.643,8.137-11.269,20.031-11.269,20.031l-24.414,10.017-16.274,22.534-31.926,15.023H388.713L361.8,580.09,323.61,595.116l-11.265,3.128,10.64,13.146,2.506,16.277,2.5,16.274,9.388,5.634,8.766-7.511,11.894-28.8,15.648,3.757,10.017,5.634-2.506,8.763,3.757,10.017,12.52-11.269L426.9,633.3l12.52-25.04,22.537-13.771,22.221,5.005v20.031l13.458,8.766,1.251,24.411h9.392l16.274-5.005,4.383-9.392,12.52-2.5,8.763-16.9V602l22.537-5.009,3.128-13.146,14.4,16.274.626,11.269h11.269l1.251-48.2L599.4,551l-10.376-6.651,11.894-27.481-5.634-10.643,3.757-10.017h21.283l17.4-11.516,8.264,2.754,15.023-3.754.626-8.766L657.3,448.741l14.364-4.491L677,424.867l9.678-5.028,1.877-7.511-15.023-15.652V377.9l9.392-28.794V320.3l7.511,4.383h19.406l10.014-13.771-4.38-15.023-11.894-7.511-6.26,5.631-10.643-13.146V265.22l6.885-7.511-24.121-9.323Z" transform="translate(-256.631 -248.385)" fill="#1d2087" stroke="#fff" stroke-width="1"/>
    </g>
    <g id="Group_208" data-name="Group 208">
      <path id="Path_277" data-name="Path 277" d="M11.3-6.682H4.829V0H1.46V-16.352H12.106v2.729H4.829V-9.4H11.3Zm9.58,5.447A4.07,4.07,0,0,1,17.553.225,3.839,3.839,0,0,1,14.572-.9a4.794,4.794,0,0,1-1.05-3.291v-7.962h3.246v7.859q0,1.9,1.729,1.9a2.343,2.343,0,0,0,2.269-1.147v-8.612h3.257V0H20.967ZM30.884-4.874,29.716-3.706V0H26.47V-17.25h3.246v9.557l.629-.809,3.111-3.65h3.9L32.961-7.086,37.734,0H34.006Zm15.15,3.639A4.07,4.07,0,0,1,42.709.225,3.839,3.839,0,0,1,39.728-.9a4.794,4.794,0,0,1-1.05-3.291v-7.962h3.246v7.859q0,1.9,1.729,1.9a2.343,2.343,0,0,0,2.269-1.147v-8.612h3.257V0H46.124ZM58.208-3.358a1.046,1.046,0,0,0-.59-.938,6.7,6.7,0,0,0-1.892-.612q-4.335-.91-4.335-3.684a3.339,3.339,0,0,1,1.342-2.7,5.414,5.414,0,0,1,3.51-1.084,5.827,5.827,0,0,1,3.7,1.089,3.433,3.433,0,0,1,1.387,2.83H58.084a1.57,1.57,0,0,0-.449-1.151,1.9,1.9,0,0,0-1.4-.455,1.943,1.943,0,0,0-1.269.371,1.17,1.17,0,0,0-.449.943,1,1,0,0,0,.511.87,5.257,5.257,0,0,0,1.724.573,14.08,14.08,0,0,1,2.044.545,3.358,3.358,0,0,1,2.572,3.268A3.17,3.17,0,0,1,59.937-.8,6.153,6.153,0,0,1,56.253.225,6.426,6.426,0,0,1,53.541-.32a4.551,4.551,0,0,1-1.859-1.494,3.471,3.471,0,0,1-.674-2.05h3.077a1.694,1.694,0,0,0,.64,1.325,2.539,2.539,0,0,0,1.595.46,2.35,2.35,0,0,0,1.409-.354A1.1,1.1,0,0,0,58.208-3.358Zm8.412-7.468a4.051,4.051,0,0,1,3.246-1.55q3.953,0,4.009,4.593V0H70.628V-7.693a2.258,2.258,0,0,0-.449-1.544,1.926,1.926,0,0,0-1.494-.5,2.209,2.209,0,0,0-2.066,1.1V0H63.374V-17.25h3.246ZM79.748,0H76.491V-12.151h3.257ZM76.3-15.3a1.6,1.6,0,0,1,.489-1.2,1.835,1.835,0,0,1,1.331-.472,1.839,1.839,0,0,1,1.325.472,1.589,1.589,0,0,1,.494,1.2,1.593,1.593,0,0,1-.5,1.213,1.844,1.844,0,0,1-1.32.472,1.844,1.844,0,0,1-1.32-.472A1.593,1.593,0,0,1,76.3-15.3Zm9.164,3.145.1,1.359a4.27,4.27,0,0,1,3.493-1.583,3.241,3.241,0,0,1,3.223,1.853,4.172,4.172,0,0,1,3.65-1.853,3.624,3.624,0,0,1,2.942,1.151,5.291,5.291,0,0,1,.966,3.465V0H96.582V-7.749a2.314,2.314,0,0,0-.4-1.51,1.792,1.792,0,0,0-1.426-.477A2.026,2.026,0,0,0,92.73-8.344L92.741,0H89.5V-7.738a2.286,2.286,0,0,0-.416-1.527,1.809,1.809,0,0,0-1.415-.472,2.1,2.1,0,0,0-2,1.146V0H82.42V-12.151ZM109.374,0a3.6,3.6,0,0,1-.326-1.089A3.927,3.927,0,0,1,105.982.225a4.314,4.314,0,0,1-2.959-1.033,3.323,3.323,0,0,1-1.174-2.605,3.434,3.434,0,0,1,1.432-2.965,7.065,7.065,0,0,1,4.138-1.044h1.494v-.7a2,2,0,0,0-.432-1.348,1.7,1.7,0,0,0-1.365-.505,1.934,1.934,0,0,0-1.286.393,1.335,1.335,0,0,0-.466,1.078h-3.246a3.26,3.26,0,0,1,.651-1.954,4.306,4.306,0,0,1,1.842-1.409,6.712,6.712,0,0,1,2.673-.511,5.3,5.3,0,0,1,3.566,1.129,3.948,3.948,0,0,1,1.32,3.173v5.267a5.809,5.809,0,0,0,.483,2.617V0Zm-2.684-2.257a2.8,2.8,0,0,0,1.325-.32,2.1,2.1,0,0,0,.9-.859V-5.525H107.7q-2.437,0-2.594,1.685l-.011.191a1.3,1.3,0,0,0,.427,1A1.658,1.658,0,0,0,106.689-2.257Z" transform="translate(-17583 -16659.998)" fill="#fff"/>
      <path id="Path_278" data-name="Path 278" d="M14.757,0H11.388L4.829-10.759V0H1.46V-16.352H4.829L11.4-5.57V-16.352h3.358Zm6.154,0H17.654V-12.151h3.257ZM17.463-15.3a1.6,1.6,0,0,1,.489-1.2,1.835,1.835,0,0,1,1.331-.472,1.839,1.839,0,0,1,1.325.472,1.589,1.589,0,0,1,.494,1.2,1.593,1.593,0,0,1-.5,1.213,1.844,1.844,0,0,1-1.32.472,1.844,1.844,0,0,1-1.32-.472A1.593,1.593,0,0,1,17.463-15.3ZM27.009,0H23.752V-12.151h3.257ZM23.562-15.3a1.6,1.6,0,0,1,.489-1.2,1.835,1.835,0,0,1,1.331-.472,1.839,1.839,0,0,1,1.325.472,1.589,1.589,0,0,1,.494,1.2,1.593,1.593,0,0,1-.5,1.213,1.844,1.844,0,0,1-1.32.472,1.844,1.844,0,0,1-1.32-.472A1.593,1.593,0,0,1,23.562-15.3Zm5.649,9.13a7.121,7.121,0,0,1,1.331-4.5,4.312,4.312,0,0,1,3.588-1.707,3.782,3.782,0,0,1,3.111,1.37l.135-1.146h2.942V-.4a5.193,5.193,0,0,1-.724,2.774,4.652,4.652,0,0,1-2.038,1.8,7.166,7.166,0,0,1-3.077.618,6.663,6.663,0,0,1-2.605-.533,4.624,4.624,0,0,1-1.92-1.376L31.389.9a3.8,3.8,0,0,0,2.942,1.359,2.783,2.783,0,0,0,2.01-.691,2.591,2.591,0,0,0,.719-1.96v-.651A3.754,3.754,0,0,1,34.107.225a4.3,4.3,0,0,1-3.543-1.713A7.12,7.12,0,0,1,29.21-6.031Zm3.246.242a4.434,4.434,0,0,0,.663,2.593,2.108,2.108,0,0,0,1.819.939,2.254,2.254,0,0,0,2.123-1.114V-8.623a2.248,2.248,0,0,0-2.1-1.114,2.121,2.121,0,0,0-1.836.956A5,5,0,0,0,32.456-5.924ZM49.852,0a3.6,3.6,0,0,1-.326-1.089A3.927,3.927,0,0,1,46.46.225,4.314,4.314,0,0,1,43.5-.809a3.323,3.323,0,0,1-1.174-2.605A3.434,3.434,0,0,1,43.76-6.379,7.065,7.065,0,0,1,47.9-7.423h1.494v-.7a2,2,0,0,0-.432-1.348,1.7,1.7,0,0,0-1.365-.505,1.934,1.934,0,0,0-1.286.393A1.335,1.335,0,0,0,45.843-8.5H42.6a3.26,3.26,0,0,1,.651-1.954,4.306,4.306,0,0,1,1.842-1.409,6.712,6.712,0,0,1,2.673-.511,5.3,5.3,0,0,1,3.566,1.129,3.948,3.948,0,0,1,1.32,3.173v5.267a5.809,5.809,0,0,0,.483,2.617V0ZM47.168-2.257a2.8,2.8,0,0,0,1.325-.32,2.1,2.1,0,0,0,.9-.859V-5.525H48.179q-2.437,0-2.594,1.685l-.011.191a1.3,1.3,0,0,0,.427,1A1.658,1.658,0,0,0,47.168-2.257ZM59.027-15.139v2.987H61.1v2.381H59.027v6.064a1.448,1.448,0,0,0,.258.966,1.3,1.3,0,0,0,.988.292,5.176,5.176,0,0,0,.955-.079V-.067a6.682,6.682,0,0,1-1.965.292q-3.414,0-3.481-3.448V-9.771H54.007v-2.381h1.774v-2.987ZM69.955,0a3.6,3.6,0,0,1-.326-1.089A3.927,3.927,0,0,1,66.563.225,4.314,4.314,0,0,1,63.6-.809,3.323,3.323,0,0,1,62.43-3.414a3.434,3.434,0,0,1,1.432-2.965A7.065,7.065,0,0,1,68-7.423h1.494v-.7a2,2,0,0,0-.432-1.348A1.7,1.7,0,0,0,67.7-9.973a1.934,1.934,0,0,0-1.286.393A1.335,1.335,0,0,0,65.945-8.5H62.7a3.26,3.26,0,0,1,.651-1.954,4.306,4.306,0,0,1,1.842-1.409,6.712,6.712,0,0,1,2.673-.511,5.3,5.3,0,0,1,3.566,1.129,3.948,3.948,0,0,1,1.32,3.173v5.267a5.809,5.809,0,0,0,.483,2.617V0ZM67.271-2.257a2.8,2.8,0,0,0,1.325-.32,2.1,2.1,0,0,0,.9-.859V-5.525H68.281q-2.437,0-2.594,1.685l-.011.191a1.3,1.3,0,0,0,.427,1A1.658,1.658,0,0,0,67.271-2.257Z" transform="translate(-17828 -16623.998)" fill="#fff"/>
      <path id="Path_279" data-name="Path 279" d="M14.115,0H10.893L4.619-10.291V0H1.4V-15.641H4.619L10.9-5.328V-15.641h3.212Zm9.346,0a3.448,3.448,0,0,1-.312-1.042A3.756,3.756,0,0,1,20.217.215a4.127,4.127,0,0,1-2.831-.988,3.178,3.178,0,0,1-1.123-2.492A3.285,3.285,0,0,1,17.633-6.1a6.758,6.758,0,0,1,3.958-1h1.429v-.666a1.915,1.915,0,0,0-.414-1.289A1.627,1.627,0,0,0,21.3-9.539a1.85,1.85,0,0,0-1.23.376,1.277,1.277,0,0,0-.446,1.031h-3.1A3.118,3.118,0,0,1,17.145-10a4.118,4.118,0,0,1,1.762-1.348,6.42,6.42,0,0,1,2.557-.489,5.073,5.073,0,0,1,3.411,1.08,3.777,3.777,0,0,1,1.262,3.035v5.038a5.557,5.557,0,0,0,.462,2.5V0ZM20.894-2.159a2.674,2.674,0,0,0,1.268-.306,2.011,2.011,0,0,0,.859-.822v-2H21.86q-2.331,0-2.481,1.611l-.011.183a1.243,1.243,0,0,0,.408.956A1.586,1.586,0,0,0,20.894-2.159ZM28.069-5.9a6.812,6.812,0,0,1,1.273-4.308,4.125,4.125,0,0,1,3.432-1.633,3.617,3.617,0,0,1,2.976,1.311l.129-1.1h2.814V-.387A4.968,4.968,0,0,1,38,2.267a4.45,4.45,0,0,1-1.95,1.719,6.854,6.854,0,0,1-2.943.591,6.373,6.373,0,0,1-2.492-.51A4.423,4.423,0,0,1,28.778,2.75L30.153.859a3.637,3.637,0,0,0,2.814,1.3A2.662,2.662,0,0,0,34.891,1.5a2.478,2.478,0,0,0,.688-1.875V-1A3.591,3.591,0,0,1,32.753.215a4.114,4.114,0,0,1-3.389-1.638,6.81,6.81,0,0,1-1.294-4.345Zm3.1.231a4.242,4.242,0,0,0,.634,2.48,2.016,2.016,0,0,0,1.74.9,2.156,2.156,0,0,0,2.03-1.065v-4.9a2.151,2.151,0,0,0-2.009-1.065,2.029,2.029,0,0,0-1.756.915A4.781,4.781,0,0,0,31.174-5.666ZM47.813,0A3.447,3.447,0,0,1,47.5-1.042,3.756,3.756,0,0,1,44.569.215a4.127,4.127,0,0,1-2.831-.988,3.178,3.178,0,0,1-1.123-2.492A3.285,3.285,0,0,1,41.986-6.1a6.758,6.758,0,0,1,3.958-1h1.429v-.666a1.915,1.915,0,0,0-.414-1.289,1.627,1.627,0,0,0-1.305-.483,1.85,1.85,0,0,0-1.23.376,1.277,1.277,0,0,0-.446,1.031h-3.1A3.119,3.119,0,0,1,41.5-10a4.118,4.118,0,0,1,1.762-1.348,6.42,6.42,0,0,1,2.557-.489,5.073,5.073,0,0,1,3.411,1.08,3.777,3.777,0,0,1,1.262,3.035v5.038a5.557,5.557,0,0,0,.462,2.5V0ZM45.246-2.159a2.674,2.674,0,0,0,1.268-.306,2.011,2.011,0,0,0,.859-.822v-2h-1.16q-2.331,0-2.481,1.611l-.011.183a1.243,1.243,0,0,0,.408.956A1.586,1.586,0,0,0,45.246-2.159ZM55.73-11.623l.1,1.343a4.058,4.058,0,0,1,3.341-1.558,3.372,3.372,0,0,1,2.75,1.085,5.062,5.062,0,0,1,.924,3.244V0h-3.1V-7.434a2.014,2.014,0,0,0-.43-1.434,1.924,1.924,0,0,0-1.429-.446A2.136,2.136,0,0,0,55.913-8.2V0h-3.1V-11.623Zm8.98,5.7A6.893,6.893,0,0,1,65.377-9,4.876,4.876,0,0,1,67.294-11.1a5.594,5.594,0,0,1,2.906-.741,5.293,5.293,0,0,1,3.84,1.439,5.777,5.777,0,0,1,1.66,3.91l.021.795A6.075,6.075,0,0,1,74.229-1.4,5.19,5.19,0,0,1,70.222.215,5.216,5.216,0,0,1,66.209-1.4a6.182,6.182,0,0,1-1.5-4.383Zm3.1.22a4.345,4.345,0,0,0,.623,2.534,2.055,2.055,0,0,0,1.783.877,2.06,2.06,0,0,0,1.762-.866,4.754,4.754,0,0,0,.634-2.77,4.3,4.3,0,0,0-.634-2.518A2.06,2.06,0,0,0,70.2-9.335a2.027,2.027,0,0,0-1.762.888A4.834,4.834,0,0,0,67.815-5.7Z" transform="translate(-17959 -16395)" fill="#fff"/>
      <path id="Path_280" data-name="Path 280" d="M14.4-2.066a5.848,5.848,0,0,1-2.572,1.69,10.77,10.77,0,0,1-3.684.6A7.3,7.3,0,0,1,4.419-.7a6.18,6.18,0,0,1-2.471-2.69,9.466,9.466,0,0,1-.893-4.144V-8.647a10.053,10.053,0,0,1,.825-4.24,6.106,6.106,0,0,1,2.381-2.74,6.858,6.858,0,0,1,3.644-.949,6.83,6.83,0,0,1,4.548,1.387A5.927,5.927,0,0,1,14.4-11.152H11.118a3.26,3.26,0,0,0-.994-2.055,3.174,3.174,0,0,0-2.117-.651,2.987,2.987,0,0,0-2.617,1.292,6.791,6.791,0,0,0-.91,3.841v1.044A6.465,6.465,0,0,0,5.458-3.8,3.346,3.346,0,0,0,8.322-2.482a3.737,3.737,0,0,0,2.707-.809V-6.109H7.962V-8.591H14.4Zm9.793.831A4.07,4.07,0,0,1,20.866.225,3.839,3.839,0,0,1,17.885-.9a4.794,4.794,0,0,1-1.05-3.291v-7.962H20.08v7.859q0,1.9,1.729,1.9a2.343,2.343,0,0,0,2.269-1.147v-8.612h3.257V0H24.28Zm8.58-10.916.1,1.4a4.242,4.242,0,0,1,3.493-1.628,3.526,3.526,0,0,1,2.875,1.134,5.292,5.292,0,0,1,.966,3.392V0H36.959V-7.771a2.106,2.106,0,0,0-.449-1.5,2.011,2.011,0,0,0-1.494-.466,2.233,2.233,0,0,0-2.055,1.168V0H29.716V-12.151Zm12.938,0,.1,1.359A4.27,4.27,0,0,1,49.3-12.376a3.241,3.241,0,0,1,3.223,1.853,4.172,4.172,0,0,1,3.65-1.853,3.624,3.624,0,0,1,2.942,1.151,5.291,5.291,0,0,1,.966,3.465V0H56.826V-7.749a2.314,2.314,0,0,0-.4-1.51A1.792,1.792,0,0,0,55-9.737a2.026,2.026,0,0,0-2.021,1.393L52.985,0H49.74V-7.738a2.286,2.286,0,0,0-.416-1.527,1.809,1.809,0,0,0-1.415-.472,2.1,2.1,0,0,0-2,1.146V0H42.665V-12.151ZM69.618,0a3.6,3.6,0,0,1-.326-1.089A3.927,3.927,0,0,1,66.226.225,4.314,4.314,0,0,1,63.267-.809a3.323,3.323,0,0,1-1.174-2.605,3.434,3.434,0,0,1,1.432-2.965,7.065,7.065,0,0,1,4.138-1.044h1.494v-.7a2,2,0,0,0-.432-1.348,1.7,1.7,0,0,0-1.365-.505,1.934,1.934,0,0,0-1.286.393A1.335,1.335,0,0,0,65.608-8.5H62.363a3.26,3.26,0,0,1,.651-1.954,4.306,4.306,0,0,1,1.842-1.409,6.712,6.712,0,0,1,2.673-.511,5.3,5.3,0,0,1,3.566,1.129,3.948,3.948,0,0,1,1.32,3.173v5.267A5.809,5.809,0,0,0,72.9-.191V0ZM66.934-2.257a2.8,2.8,0,0,0,1.325-.32,2.1,2.1,0,0,0,.9-.859V-5.525H67.944q-2.437,0-2.594,1.685l-.011.191a1.3,1.3,0,0,0,.427,1A1.658,1.658,0,0,0,66.934-2.257Z" transform="translate(-17797 -16475.998)" fill="#fff"/>
      <path id="Path_281" data-name="Path 281" d="M13.769-13.623H8.76V0H5.391V-13.623H.449v-2.729H13.769ZM12.634-6.188a7.206,7.206,0,0,1,.7-3.223,5.1,5.1,0,0,1,2-2.19,5.849,5.849,0,0,1,3.038-.775,5.533,5.533,0,0,1,4.015,1.5,6.04,6.04,0,0,1,1.735,4.088l.022.831a6.351,6.351,0,0,1-1.561,4.487A5.426,5.426,0,0,1,18.4.225,5.453,5.453,0,0,1,14.2-1.46a6.463,6.463,0,0,1-1.567-4.582Zm3.246.23a4.542,4.542,0,0,0,.651,2.649,2.149,2.149,0,0,0,1.864.917A2.154,2.154,0,0,0,20.237-3.3a4.97,4.97,0,0,0,.663-2.9,4.5,4.5,0,0,0-.663-2.632,2.154,2.154,0,0,0-1.864-.934,2.119,2.119,0,0,0-1.842.928A5.054,5.054,0,0,0,15.88-5.958ZM31.2-2.392a2.129,2.129,0,0,0,1.46-.494A1.731,1.731,0,0,0,33.242-4.2h3.043a4.163,4.163,0,0,1-.674,2.263A4.446,4.446,0,0,1,33.8-.343a5.676,5.676,0,0,1-2.544.567,5.275,5.275,0,0,1-4.11-1.656,6.555,6.555,0,0,1-1.5-4.576v-.213A6.48,6.48,0,0,1,27.133-10.7a5.214,5.214,0,0,1,4.1-1.673,5.111,5.111,0,0,1,3.656,1.3,4.593,4.593,0,0,1,1.4,3.453H33.242a2.23,2.23,0,0,0-.584-1.541,1.947,1.947,0,0,0-1.482-.593,1.955,1.955,0,0,0-1.713.827,4.791,4.791,0,0,0-.578,2.683v.337a4.852,4.852,0,0,0,.573,2.7A1.979,1.979,0,0,0,31.2-2.392Zm10.107-8.434a4.051,4.051,0,0,1,3.246-1.55q3.953,0,4.009,4.593V0H45.315V-7.693a2.258,2.258,0,0,0-.449-1.544,1.926,1.926,0,0,0-1.494-.5,2.209,2.209,0,0,0-2.066,1.1V0H38.06V-17.25h3.246ZM54.434,0H51.177V-12.151h3.257ZM50.986-15.3a1.6,1.6,0,0,1,.489-1.2,1.835,1.835,0,0,1,1.331-.472,1.839,1.839,0,0,1,1.325.472,1.589,1.589,0,0,1,.494,1.2,1.593,1.593,0,0,1-.5,1.213,1.844,1.844,0,0,1-1.32.472,1.844,1.844,0,0,1-1.32-.472A1.593,1.593,0,0,1,50.986-15.3Zm5.649,9.13a7.121,7.121,0,0,1,1.331-4.5,4.312,4.312,0,0,1,3.588-1.707,3.782,3.782,0,0,1,3.111,1.37l.135-1.146h2.942V-.4a5.193,5.193,0,0,1-.724,2.774,4.652,4.652,0,0,1-2.038,1.8,7.166,7.166,0,0,1-3.077.618A6.663,6.663,0,0,1,59.3,4.251a4.624,4.624,0,0,1-1.92-1.376L58.814.9a3.8,3.8,0,0,0,2.942,1.359,2.783,2.783,0,0,0,2.01-.691,2.591,2.591,0,0,0,.719-1.96v-.651A3.754,3.754,0,0,1,61.532.225a4.3,4.3,0,0,1-3.543-1.713,7.12,7.12,0,0,1-1.353-4.543Zm3.246.242a4.434,4.434,0,0,0,.663,2.593,2.108,2.108,0,0,0,1.819.939,2.254,2.254,0,0,0,2.123-1.114V-8.623a2.248,2.248,0,0,0-2.1-1.114,2.121,2.121,0,0,0-1.836.956A5,5,0,0,0,59.881-5.924ZM73.661,0H70.4V-12.151h3.257ZM70.213-15.3a1.6,1.6,0,0,1,.489-1.2,1.835,1.835,0,0,1,1.331-.472,1.839,1.839,0,0,1,1.325.472,1.589,1.589,0,0,1,.494,1.2,1.593,1.593,0,0,1-.5,1.213,1.844,1.844,0,0,1-1.32.472,1.844,1.844,0,0,1-1.32-.472A1.593,1.593,0,0,1,70.213-15.3Z" transform="translate(-17643 -16508.998)" fill="#fff"/>
      <path id="Path_282" data-name="Path 282" d="M5.042,0H1.673V-16.352H5.042ZM18.9-5.963a7.358,7.358,0,0,1-1.247,4.554A4.129,4.129,0,0,1,14.173.225a3.794,3.794,0,0,1-3.156-1.516L10.871,0H7.951V-17.25H11.2v6.188a3.7,3.7,0,0,1,2.954-1.314,4.163,4.163,0,0,1,3.487,1.634,7.369,7.369,0,0,1,1.263,4.6ZM15.655-6.2a4.834,4.834,0,0,0-.584-2.69,1.975,1.975,0,0,0-1.741-.848A2.141,2.141,0,0,0,11.2-8.468v4.8a2.17,2.17,0,0,0,2.156,1.28,2,2,0,0,0,2.066-1.55A8,8,0,0,0,15.655-6.2ZM27.941,0a3.6,3.6,0,0,1-.326-1.089A3.927,3.927,0,0,1,24.55.225,4.314,4.314,0,0,1,21.591-.809a3.323,3.323,0,0,1-1.174-2.605,3.434,3.434,0,0,1,1.432-2.965,7.065,7.065,0,0,1,4.138-1.044h1.494v-.7a2,2,0,0,0-.432-1.348,1.7,1.7,0,0,0-1.365-.505A1.934,1.934,0,0,0,24.4-9.58,1.335,1.335,0,0,0,23.932-8.5H20.687a3.26,3.26,0,0,1,.651-1.954,4.306,4.306,0,0,1,1.842-1.409,6.712,6.712,0,0,1,2.673-.511,5.3,5.3,0,0,1,3.566,1.129,3.948,3.948,0,0,1,1.32,3.173v5.267a5.809,5.809,0,0,0,.483,2.617V0ZM25.257-2.257a2.8,2.8,0,0,0,1.325-.32,2.1,2.1,0,0,0,.9-.859V-5.525H26.268q-2.437,0-2.594,1.685l-.011.191a1.3,1.3,0,0,0,.427,1A1.658,1.658,0,0,0,25.257-2.257Zm14.8-6.851a8.818,8.818,0,0,0-1.168-.09,2.377,2.377,0,0,0-2.415,1.247V0H33.231V-12.151H36.3l.09,1.449a3.007,3.007,0,0,1,2.707-1.673,3.4,3.4,0,0,1,1.011.146ZM48.325,0A3.6,3.6,0,0,1,48-1.089,3.927,3.927,0,0,1,44.933.225,4.314,4.314,0,0,1,41.974-.809,3.323,3.323,0,0,1,40.8-3.414a3.434,3.434,0,0,1,1.432-2.965,7.065,7.065,0,0,1,4.138-1.044h1.494v-.7a2,2,0,0,0-.432-1.348,1.7,1.7,0,0,0-1.365-.505,1.934,1.934,0,0,0-1.286.393A1.335,1.335,0,0,0,44.315-8.5H41.07a3.26,3.26,0,0,1,.651-1.954,4.306,4.306,0,0,1,1.842-1.409,6.712,6.712,0,0,1,2.673-.511A5.3,5.3,0,0,1,49.8-11.247a3.948,3.948,0,0,1,1.32,3.173v5.267A5.809,5.809,0,0,0,51.6-.191V0ZM45.641-2.257a2.8,2.8,0,0,0,1.325-.32,2.1,2.1,0,0,0,.9-.859V-5.525H46.651q-2.437,0-2.594,1.685l-.011.191a1.3,1.3,0,0,0,.427,1A1.658,1.658,0,0,0,45.641-2.257ZM58.028-4.874,56.86-3.706V0H53.614V-17.25H56.86v9.557l.629-.809,3.111-3.65h3.9L60.105-7.086,64.878,0H61.15ZM69.326,0H66.069V-12.151h3.257ZM65.878-15.3a1.6,1.6,0,0,1,.489-1.2,1.835,1.835,0,0,1,1.331-.472,1.839,1.839,0,0,1,1.325.472,1.589,1.589,0,0,1,.494,1.2,1.593,1.593,0,0,1-.5,1.213,1.844,1.844,0,0,1-1.32.472,1.844,1.844,0,0,1-1.32-.472A1.593,1.593,0,0,1,65.878-15.3Z" transform="translate(-17560 -16401)" fill="#fff"/>
      <path id="Path_283" data-name="Path 283" d="M9.939-4.29a1.729,1.729,0,0,0-.674-1.466A8.838,8.838,0,0,0,6.839-6.834,17.2,17.2,0,0,1,4.065-7.951Q1.28-9.456,1.28-12.005a3.949,3.949,0,0,1,.747-2.364,4.871,4.871,0,0,1,2.145-1.623,8.074,8.074,0,0,1,3.139-.584,7.349,7.349,0,0,1,3.122.635,4.971,4.971,0,0,1,2.128,1.791,4.687,4.687,0,0,1,.758,2.628H9.95a2.2,2.2,0,0,0-.708-1.746,2.908,2.908,0,0,0-1.988-.623,3.107,3.107,0,0,0-1.92.522,1.647,1.647,0,0,0-.685,1.376,1.578,1.578,0,0,0,.8,1.336A9.072,9.072,0,0,0,7.816-9.647,10.214,10.214,0,0,1,12.005-7.5a4.272,4.272,0,0,1,1.314,3.189,3.935,3.935,0,0,1-1.606,3.33A7.031,7.031,0,0,1,7.39.225,8.349,8.349,0,0,1,3.953-.466,5.438,5.438,0,0,1,1.589-2.358,4.846,4.846,0,0,1,.775-5.144h3.38q0,2.707,3.234,2.707a3.146,3.146,0,0,0,1.875-.489A1.589,1.589,0,0,0,9.939-4.29ZM22.427,0A3.6,3.6,0,0,1,22.1-1.089,3.927,3.927,0,0,1,19.036.225,4.314,4.314,0,0,1,16.076-.809,3.323,3.323,0,0,1,14.9-3.414a3.434,3.434,0,0,1,1.432-2.965,7.065,7.065,0,0,1,4.138-1.044h1.494v-.7a2,2,0,0,0-.432-1.348,1.7,1.7,0,0,0-1.365-.505,1.934,1.934,0,0,0-1.286.393A1.335,1.335,0,0,0,18.418-8.5H15.172a3.26,3.26,0,0,1,.651-1.954,4.306,4.306,0,0,1,1.842-1.409,6.712,6.712,0,0,1,2.673-.511A5.3,5.3,0,0,1,23.9-11.247a3.948,3.948,0,0,1,1.32,3.173v5.267a5.809,5.809,0,0,0,.483,2.617V0ZM19.743-2.257a2.8,2.8,0,0,0,1.325-.32,2.1,2.1,0,0,0,.9-.859V-5.525H20.754q-2.437,0-2.594,1.685l-.011.191a1.3,1.3,0,0,0,.427,1A1.658,1.658,0,0,0,19.743-2.257ZM31.142,0H27.885V-12.151h3.257ZM27.694-15.3a1.6,1.6,0,0,1,.489-1.2,1.835,1.835,0,0,1,1.331-.472,1.839,1.839,0,0,1,1.325.472,1.589,1.589,0,0,1,.494,1.2,1.593,1.593,0,0,1-.5,1.213,1.844,1.844,0,0,1-1.32.472,1.844,1.844,0,0,1-1.32-.472A1.593,1.593,0,0,1,27.694-15.3Zm10.006.157v2.987h2.078v2.381H37.7v6.064a1.448,1.448,0,0,0,.258.966,1.3,1.3,0,0,0,.988.292,5.176,5.176,0,0,0,.955-.079V-.067a6.682,6.682,0,0,1-1.965.292q-3.414,0-3.481-3.448V-9.771H32.681v-2.381h1.774v-2.987ZM48.628,0A3.6,3.6,0,0,1,48.3-1.089,3.927,3.927,0,0,1,45.236.225,4.314,4.314,0,0,1,42.277-.809,3.323,3.323,0,0,1,41.1-3.414a3.434,3.434,0,0,1,1.432-2.965,7.065,7.065,0,0,1,4.138-1.044h1.494v-.7a2,2,0,0,0-.432-1.348,1.7,1.7,0,0,0-1.365-.505,1.934,1.934,0,0,0-1.286.393A1.335,1.335,0,0,0,44.619-8.5H41.373a3.26,3.26,0,0,1,.651-1.954,4.306,4.306,0,0,1,1.842-1.409,6.712,6.712,0,0,1,2.673-.511A5.3,5.3,0,0,1,50.1-11.247a3.948,3.948,0,0,1,1.32,3.173v5.267a5.809,5.809,0,0,0,.483,2.617V0ZM45.944-2.257a2.8,2.8,0,0,0,1.325-.32,2.1,2.1,0,0,0,.9-.859V-5.525H46.955q-2.437,0-2.594,1.685l-.011.191a1.3,1.3,0,0,0,.427,1A1.658,1.658,0,0,0,45.944-2.257Zm11.017-9.894.1,1.359a4.27,4.27,0,0,1,3.493-1.583,3.241,3.241,0,0,1,3.223,1.853,4.172,4.172,0,0,1,3.65-1.853,3.624,3.624,0,0,1,2.942,1.151,5.291,5.291,0,0,1,.966,3.465V0H68.079V-7.749a2.314,2.314,0,0,0-.4-1.51,1.792,1.792,0,0,0-1.426-.477,2.026,2.026,0,0,0-2.021,1.393L64.238,0H60.993V-7.738a2.286,2.286,0,0,0-.416-1.527,1.809,1.809,0,0,0-1.415-.472,2.1,2.1,0,0,0-2,1.146V0H53.917V-12.151ZM80.871,0a3.6,3.6,0,0,1-.326-1.089A3.927,3.927,0,0,1,77.479.225,4.314,4.314,0,0,1,74.52-.809a3.323,3.323,0,0,1-1.174-2.605,3.434,3.434,0,0,1,1.432-2.965,7.065,7.065,0,0,1,4.138-1.044H80.41v-.7a2,2,0,0,0-.432-1.348,1.7,1.7,0,0,0-1.365-.505,1.934,1.934,0,0,0-1.286.393A1.335,1.335,0,0,0,76.861-8.5H73.616a3.26,3.26,0,0,1,.651-1.954,4.306,4.306,0,0,1,1.842-1.409,6.712,6.712,0,0,1,2.673-.511,5.3,5.3,0,0,1,3.566,1.129,3.948,3.948,0,0,1,1.32,3.173v5.267A5.809,5.809,0,0,0,84.15-.191V0ZM78.187-2.257a2.8,2.8,0,0,0,1.325-.32,2.1,2.1,0,0,0,.9-.859V-5.525H79.2q-2.437,0-2.594,1.685l-.011.191a1.3,1.3,0,0,0,.427,1A1.658,1.658,0,0,0,78.187-2.257Z" transform="translate(-17735 -16356.999)" fill="#fff"/>
      <path id="Path_284" data-name="Path 284" d="M7.1-8.984l3.4-7.367h3.684L8.816-5.93V0H5.391V-5.93L.022-16.352H3.717ZM21.8,0a3.6,3.6,0,0,1-.326-1.089A3.927,3.927,0,0,1,18.407.225,4.314,4.314,0,0,1,15.448-.809a3.323,3.323,0,0,1-1.174-2.605,3.434,3.434,0,0,1,1.432-2.965,7.065,7.065,0,0,1,4.138-1.044h1.494v-.7a2,2,0,0,0-.432-1.348,1.7,1.7,0,0,0-1.365-.505,1.934,1.934,0,0,0-1.286.393A1.335,1.335,0,0,0,17.789-8.5H14.543a3.26,3.26,0,0,1,.651-1.954,4.306,4.306,0,0,1,1.842-1.409,6.712,6.712,0,0,1,2.673-.511,5.3,5.3,0,0,1,3.566,1.129,3.948,3.948,0,0,1,1.32,3.173v5.267a5.809,5.809,0,0,0,.483,2.617V0ZM19.114-2.257a2.8,2.8,0,0,0,1.325-.32,2.1,2.1,0,0,0,.9-.859V-5.525H20.125q-2.437,0-2.594,1.685l-.011.191a1.3,1.3,0,0,0,.427,1A1.658,1.658,0,0,0,19.114-2.257Zm11.017-9.894.1,1.359a4.27,4.27,0,0,1,3.493-1.583,3.241,3.241,0,0,1,3.223,1.853,4.172,4.172,0,0,1,3.65-1.853,3.624,3.624,0,0,1,2.942,1.151,5.291,5.291,0,0,1,.966,3.465V0H41.25V-7.749a2.314,2.314,0,0,0-.4-1.51,1.792,1.792,0,0,0-1.426-.477A2.026,2.026,0,0,0,37.4-8.344L37.409,0H34.163V-7.738a2.286,2.286,0,0,0-.416-1.527,1.809,1.809,0,0,0-1.415-.472,2.1,2.1,0,0,0-2,1.146V0H27.088V-12.151ZM54.041,0a3.6,3.6,0,0,1-.326-1.089A3.927,3.927,0,0,1,50.649.225,4.314,4.314,0,0,1,47.69-.809a3.323,3.323,0,0,1-1.174-2.605,3.434,3.434,0,0,1,1.432-2.965,7.065,7.065,0,0,1,4.138-1.044h1.494v-.7a2,2,0,0,0-.432-1.348,1.7,1.7,0,0,0-1.365-.505A1.934,1.934,0,0,0,50.5-9.58,1.335,1.335,0,0,0,50.032-8.5H46.786a3.26,3.26,0,0,1,.651-1.954,4.306,4.306,0,0,1,1.842-1.409,6.712,6.712,0,0,1,2.673-.511,5.3,5.3,0,0,1,3.566,1.129,3.948,3.948,0,0,1,1.32,3.173v5.267A5.809,5.809,0,0,0,57.32-.191V0ZM51.357-2.257a2.8,2.8,0,0,0,1.325-.32,2.1,2.1,0,0,0,.9-.859V-5.525H52.368q-2.437,0-2.594,1.685l-.011.191a1.3,1.3,0,0,0,.427,1A1.658,1.658,0,0,0,51.357-2.257Zm10.961-9.894.1,1.4a4.242,4.242,0,0,1,3.493-1.628,3.526,3.526,0,0,1,2.875,1.134,5.292,5.292,0,0,1,.966,3.392V0H66.507V-7.771a2.106,2.106,0,0,0-.449-1.5,2.011,2.011,0,0,0-1.494-.466,2.233,2.233,0,0,0-2.055,1.168V0H59.263V-12.151ZM79.253,0a3.6,3.6,0,0,1-.326-1.089A3.927,3.927,0,0,1,75.862.225,4.314,4.314,0,0,1,72.9-.809a3.323,3.323,0,0,1-1.174-2.605,3.434,3.434,0,0,1,1.432-2.965A7.065,7.065,0,0,1,77.3-7.423h1.494v-.7a2,2,0,0,0-.432-1.348A1.7,1.7,0,0,0,77-9.973a1.934,1.934,0,0,0-1.286.393A1.335,1.335,0,0,0,75.244-8.5H72a3.26,3.26,0,0,1,.651-1.954,4.306,4.306,0,0,1,1.842-1.409,6.712,6.712,0,0,1,2.673-.511,5.3,5.3,0,0,1,3.566,1.129,3.948,3.948,0,0,1,1.32,3.173v5.267a5.809,5.809,0,0,0,.483,2.617V0ZM76.569-2.257a2.8,2.8,0,0,0,1.325-.32,2.1,2.1,0,0,0,.9-.859V-5.525H77.58q-2.437,0-2.594,1.685l-.011.191a1.3,1.3,0,0,0,.427,1A1.658,1.658,0,0,0,76.569-2.257Zm14.555-1.1a1.046,1.046,0,0,0-.59-.938,6.7,6.7,0,0,0-1.892-.612q-4.335-.91-4.335-3.684a3.339,3.339,0,0,1,1.342-2.7,5.414,5.414,0,0,1,3.51-1.084,5.827,5.827,0,0,1,3.7,1.089,3.433,3.433,0,0,1,1.387,2.83H91a1.57,1.57,0,0,0-.449-1.151,1.9,1.9,0,0,0-1.4-.455,1.943,1.943,0,0,0-1.269.371,1.17,1.17,0,0,0-.449.943,1,1,0,0,0,.511.87,5.257,5.257,0,0,0,1.724.573,14.08,14.08,0,0,1,2.044.545A3.358,3.358,0,0,1,94.28-3.493,3.17,3.17,0,0,1,92.854-.8,6.153,6.153,0,0,1,89.17.225,6.426,6.426,0,0,1,86.458-.32,4.551,4.551,0,0,1,84.6-1.814a3.471,3.471,0,0,1-.674-2.05H87a1.694,1.694,0,0,0,.64,1.325,2.539,2.539,0,0,0,1.595.46,2.35,2.35,0,0,0,1.409-.354A1.1,1.1,0,0,0,91.124-3.358Zm8.412-7.468a4.051,4.051,0,0,1,3.246-1.55q3.953,0,4.009,4.593V0h-3.246V-7.693a2.258,2.258,0,0,0-.449-1.544,1.926,1.926,0,0,0-1.494-.5,2.209,2.209,0,0,0-2.066,1.1V0H96.29V-17.25h3.246ZM112.664,0h-3.257V-12.151h3.257Zm-3.448-15.3a1.6,1.6,0,0,1,.489-1.2,1.835,1.835,0,0,1,1.331-.472,1.839,1.839,0,0,1,1.325.472,1.589,1.589,0,0,1,.494,1.2,1.593,1.593,0,0,1-.5,1.213,1.844,1.844,0,0,1-1.32.472,1.844,1.844,0,0,1-1.32-.472A1.593,1.593,0,0,1,109.216-15.3Z" transform="translate(-17871 -16273.999)" fill="#fff"/>
      <path id="Path_285" data-name="Path 285" d="M14.3-5.447a5.786,5.786,0,0,1-1.948,4.155A6.843,6.843,0,0,1,7.715.225,6.153,6.153,0,0,1,2.768-1.892,8.68,8.68,0,0,1,.966-7.7v-1A9.8,9.8,0,0,1,1.8-12.859a6.228,6.228,0,0,1,2.375-2.757,6.654,6.654,0,0,1,3.588-.96,6.666,6.666,0,0,1,4.56,1.516,6.218,6.218,0,0,1,2,4.256H10.95a3.415,3.415,0,0,0-.882-2.3,3.265,3.265,0,0,0-2.308-.713,2.863,2.863,0,0,0-2.521,1.207A6.766,6.766,0,0,0,4.38-8.861v1.235a7.242,7.242,0,0,0,.8,3.875A2.81,2.81,0,0,0,7.715-2.527a3.326,3.326,0,0,0,2.33-.713,3.221,3.221,0,0,0,.882-2.207Zm5.166-5.379a4.051,4.051,0,0,1,3.246-1.55q3.953,0,4.009,4.593V0H23.472V-7.693a2.258,2.258,0,0,0-.449-1.544,1.926,1.926,0,0,0-1.494-.5,2.209,2.209,0,0,0-2.066,1.1V0H16.217V-17.25h3.246ZM32.591,0H29.334V-12.151h3.257ZM29.143-15.3a1.6,1.6,0,0,1,.489-1.2,1.835,1.835,0,0,1,1.331-.472,1.839,1.839,0,0,1,1.325.472,1.589,1.589,0,0,1,.494,1.2,1.593,1.593,0,0,1-.5,1.213,1.844,1.844,0,0,1-1.32.472,1.844,1.844,0,0,1-1.32-.472A1.593,1.593,0,0,1,29.143-15.3Zm17.07,9.333a7.358,7.358,0,0,1-1.247,4.554A4.129,4.129,0,0,1,41.485.225,3.794,3.794,0,0,1,38.33-1.292L38.184,0h-2.92V-17.25h3.246v6.188a3.7,3.7,0,0,1,2.954-1.314,4.163,4.163,0,0,1,3.487,1.634,7.369,7.369,0,0,1,1.263,4.6ZM42.968-6.2a4.834,4.834,0,0,0-.584-2.69,1.975,1.975,0,0,0-1.741-.848,2.141,2.141,0,0,0-2.134,1.269v4.8a2.17,2.17,0,0,0,2.156,1.28,2,2,0,0,0,2.066-1.55A8,8,0,0,0,42.968-6.2ZM55.254,0a3.6,3.6,0,0,1-.326-1.089A3.927,3.927,0,0,1,51.862.225,4.314,4.314,0,0,1,48.9-.809a3.323,3.323,0,0,1-1.174-2.605,3.434,3.434,0,0,1,1.432-2.965A7.065,7.065,0,0,1,53.3-7.423h1.494v-.7a2,2,0,0,0-.432-1.348A1.7,1.7,0,0,0,53-9.973a1.934,1.934,0,0,0-1.286.393A1.335,1.335,0,0,0,51.245-8.5H48a3.26,3.26,0,0,1,.651-1.954,4.306,4.306,0,0,1,1.842-1.409,6.712,6.712,0,0,1,2.673-.511,5.3,5.3,0,0,1,3.566,1.129,3.948,3.948,0,0,1,1.32,3.173v5.267a5.809,5.809,0,0,0,.483,2.617V0ZM52.57-2.257a2.8,2.8,0,0,0,1.325-.32,2.1,2.1,0,0,0,.9-.859V-5.525H53.581q-2.437,0-2.594,1.685l-.011.191a1.3,1.3,0,0,0,.427,1A1.658,1.658,0,0,0,52.57-2.257Z" transform="translate(-17549 -16287.999)" fill="#fff"/>
      <path id="Path_286" data-name="Path 286" d="M6.295-6.273l-1.676,1.8V0H1.4V-15.641H4.619v7.09L6.037-10.5l3.985-5.146h3.964L8.433-8.69,14.147,0H10.313ZM21.893,0a3.448,3.448,0,0,1-.312-1.042A3.756,3.756,0,0,1,18.648.215a4.127,4.127,0,0,1-2.831-.988A3.178,3.178,0,0,1,14.7-3.266,3.285,3.285,0,0,1,16.065-6.1a6.758,6.758,0,0,1,3.958-1h1.429v-.666a1.915,1.915,0,0,0-.414-1.289,1.627,1.627,0,0,0-1.305-.483,1.85,1.85,0,0,0-1.23.376,1.277,1.277,0,0,0-.446,1.031h-3.1A3.118,3.118,0,0,1,15.576-10a4.118,4.118,0,0,1,1.762-1.348,6.42,6.42,0,0,1,2.557-.489,5.073,5.073,0,0,1,3.411,1.08,3.777,3.777,0,0,1,1.262,3.035v5.038a5.557,5.557,0,0,0,.462,2.5V0ZM19.325-2.159a2.674,2.674,0,0,0,1.268-.306,2.011,2.011,0,0,0,.859-.822v-2h-1.16q-2.331,0-2.481,1.611l-.011.183a1.243,1.243,0,0,0,.408.956A1.586,1.586,0,0,0,19.325-2.159ZM29.81-11.623l.1,1.343a4.058,4.058,0,0,1,3.341-1.558A3.372,3.372,0,0,1,36-10.753a5.062,5.062,0,0,1,.924,3.244V0h-3.1V-7.434a2.014,2.014,0,0,0-.43-1.434,1.924,1.924,0,0,0-1.429-.446A2.136,2.136,0,0,0,29.992-8.2V0h-3.1V-11.623ZM46.009,0A3.447,3.447,0,0,1,45.7-1.042,3.756,3.756,0,0,1,42.765.215a4.127,4.127,0,0,1-2.831-.988,3.178,3.178,0,0,1-1.123-2.492A3.285,3.285,0,0,1,40.181-6.1a6.758,6.758,0,0,1,3.958-1h1.429v-.666a1.915,1.915,0,0,0-.414-1.289,1.627,1.627,0,0,0-1.305-.483,1.85,1.85,0,0,0-1.23.376,1.277,1.277,0,0,0-.446,1.031h-3.1A3.119,3.119,0,0,1,39.692-10a4.118,4.118,0,0,1,1.762-1.348,6.42,6.42,0,0,1,2.557-.489,5.073,5.073,0,0,1,3.411,1.08,3.777,3.777,0,0,1,1.262,3.035v5.038a5.557,5.557,0,0,0,.462,2.5V0ZM43.441-2.159a2.674,2.674,0,0,0,1.268-.306,2.011,2.011,0,0,0,.859-.822v-2h-1.16q-2.331,0-2.481,1.611l-.011.183a1.243,1.243,0,0,0,.408.956A1.586,1.586,0,0,0,43.441-2.159ZM50.617-5.9a6.812,6.812,0,0,1,1.273-4.308,4.125,4.125,0,0,1,3.432-1.633A3.617,3.617,0,0,1,58.3-10.527l.129-1.1h2.814V-.387a4.968,4.968,0,0,1-.693,2.653A4.45,4.45,0,0,1,58.6,3.985a6.854,6.854,0,0,1-2.943.591,6.373,6.373,0,0,1-2.492-.51A4.423,4.423,0,0,1,51.326,2.75L52.7.859a3.637,3.637,0,0,0,2.814,1.3A2.662,2.662,0,0,0,57.438,1.5a2.478,2.478,0,0,0,.688-1.875V-1A3.591,3.591,0,0,1,55.3.215a4.114,4.114,0,0,1-3.389-1.638,6.81,6.81,0,0,1-1.294-4.345Zm3.1.231a4.242,4.242,0,0,0,.634,2.48,2.016,2.016,0,0,0,1.74.9,2.156,2.156,0,0,0,2.03-1.065v-4.9a2.151,2.151,0,0,0-2.009-1.065,2.029,2.029,0,0,0-1.756.915A4.781,4.781,0,0,0,53.722-5.666ZM70.361,0a3.448,3.448,0,0,1-.312-1.042A3.756,3.756,0,0,1,67.117.215a4.127,4.127,0,0,1-2.831-.988,3.178,3.178,0,0,1-1.123-2.492A3.285,3.285,0,0,1,64.534-6.1a6.758,6.758,0,0,1,3.958-1h1.429v-.666a1.915,1.915,0,0,0-.414-1.289A1.627,1.627,0,0,0,68.2-9.539a1.85,1.85,0,0,0-1.23.376,1.277,1.277,0,0,0-.446,1.031h-3.1A3.119,3.119,0,0,1,64.045-10a4.118,4.118,0,0,1,1.762-1.348,6.42,6.42,0,0,1,2.557-.489,5.073,5.073,0,0,1,3.411,1.08,3.777,3.777,0,0,1,1.262,3.035v5.038a5.557,5.557,0,0,0,.462,2.5V0ZM67.794-2.159a2.674,2.674,0,0,0,1.268-.306,2.011,2.011,0,0,0,.859-.822v-2h-1.16q-2.331,0-2.481,1.611l-.011.183a1.243,1.243,0,0,0,.408.956A1.586,1.586,0,0,0,67.794-2.159ZM85.529-4.222l1.525-7.4h3L87.087,0h-2.6l-2.2-7.315L80.083,0H77.494L74.529-11.623h3l1.515,7.391,2.127-7.391h2.245ZM98.323,0a3.448,3.448,0,0,1-.312-1.042A3.756,3.756,0,0,1,95.079.215a4.127,4.127,0,0,1-2.831-.988,3.178,3.178,0,0,1-1.123-2.492A3.285,3.285,0,0,1,92.5-6.1a6.758,6.758,0,0,1,3.958-1h1.429v-.666a1.915,1.915,0,0,0-.414-1.289,1.627,1.627,0,0,0-1.305-.483,1.85,1.85,0,0,0-1.23.376,1.277,1.277,0,0,0-.446,1.031h-3.1A3.118,3.118,0,0,1,92.007-10a4.118,4.118,0,0,1,1.762-1.348,6.42,6.42,0,0,1,2.557-.489,5.073,5.073,0,0,1,3.411,1.08A3.777,3.777,0,0,1,101-7.724v5.038a5.557,5.557,0,0,0,.462,2.5V0ZM95.756-2.159a2.674,2.674,0,0,0,1.268-.306,2.011,2.011,0,0,0,.859-.822v-2h-1.16q-2.331,0-2.481,1.611l-.011.183a1.243,1.243,0,0,0,.408.956A1.586,1.586,0,0,0,95.756-2.159Z" transform="translate(-17747 -16230.999)" fill="#fff"/>
      <path id="Path_287" data-name="Path 287" d="M13.17-13.03H8.379V0H5.156V-13.03H.43v-2.61H13.17ZM12.085-5.919A6.893,6.893,0,0,1,12.751-9,4.876,4.876,0,0,1,14.668-11.1a5.594,5.594,0,0,1,2.906-.741,5.293,5.293,0,0,1,3.84,1.439,5.777,5.777,0,0,1,1.66,3.91l.021.795A6.075,6.075,0,0,1,21.6-1.4,5.19,5.19,0,0,1,17.6.215,5.216,5.216,0,0,1,13.583-1.4a6.182,6.182,0,0,1-1.5-4.383Zm3.1.22a4.345,4.345,0,0,0,.623,2.534,2.055,2.055,0,0,0,1.783.877,2.06,2.06,0,0,0,1.762-.866,4.754,4.754,0,0,0,.634-2.77,4.3,4.3,0,0,0-.634-2.518,2.06,2.06,0,0,0-1.783-.893,2.027,2.027,0,0,0-1.762.888A4.834,4.834,0,0,0,15.189-5.7Zm14.04,1.036L28.112-3.545V0h-3.1V-16.5h3.1v9.142l.6-.773,2.976-3.491h3.728l-4.2,4.845L35.782,0H32.216Zm11.87.269,2.148-7.229h3.33L41.905,1.8l-.258.612A3.543,3.543,0,0,1,38.21,4.694a4.885,4.885,0,0,1-1.375-.2V2.138l.473.011a2.554,2.554,0,0,0,1.316-.269,1.764,1.764,0,0,0,.682-.892l.365-.956L35.6-11.623H38.94Zm6.059-1.525A6.893,6.893,0,0,1,47.824-9,4.876,4.876,0,0,1,49.742-11.1a5.594,5.594,0,0,1,2.906-.741,5.293,5.293,0,0,1,3.84,1.439,5.777,5.777,0,0,1,1.66,3.91l.021.795A6.075,6.075,0,0,1,56.676-1.4,5.19,5.19,0,0,1,52.669.215,5.216,5.216,0,0,1,48.657-1.4a6.182,6.182,0,0,1-1.5-4.383Zm3.1.22a4.345,4.345,0,0,0,.623,2.534,2.055,2.055,0,0,0,1.783.877,2.06,2.06,0,0,0,1.762-.866,4.754,4.754,0,0,0,.634-2.77,4.3,4.3,0,0,0-.634-2.518,2.06,2.06,0,0,0-1.783-.893,2.027,2.027,0,0,0-1.762.888A4.834,4.834,0,0,0,50.263-5.7Z" transform="translate(-17706 -16292.999)" fill="#fff"/>
    </g>
  </g>
</svg>
