<svg xmlns="http://www.w3.org/2000/svg" width="221.076" height="206.438" viewBox="0 0 221.076 206.438">
  <g id="map_small" transform="translate(-444.065 -1474.413)">
    <g id="Group_16" data-name="Group 16" transform="translate(444.065 1474.412)">
      <g id="Group_15" data-name="Group 15" transform="translate(0 0)">
        <g id="Group_12" data-name="Group 12" transform="translate(5.003)">
          <g id="Group_11" data-name="Group 11" transform="translate(110.088)">
            <path id="Path_62" data-name="Path 62" d="M1756.44-1616.726l-.505,1.444-1.517.65-.216,2.672-1.734.217-1.011,1.661-.65-.578H1749.8l-.65-3.033,1.589-3.611.217-1.734-1.3-1.95-.939-.361-.65-1.227h-.867v-2.167l.578-.866-.217-2.672.795-1.156,1.444-.289,1.589-1.228v-.939l1.445.65v-.794l.65-1.517,1.878-.867-.073-1.156-1.589-1.806-.216-2.239.722.145.505-.578,1.661.506.506,1.011,1.806,1.155,2.094-1.228-.072.866,1.517.795,2.022-1.011,1.083-1.589.217-1.806-1.083-1.517.361-.867-.722-1.589.145-.939.722-.795,2.528-1.155.578-2.672-.144-3.611,1.155-2.961.289-1.589v-3.611l-2.167-4.405-.145-2.094.505-1.155.361-2.095.722.433.867-.072.939-.289-.145-1.155h1.155l.578,1.589,1.589.65,3.033,4.405,1.084,1.083,1.3,2.817,2.6,2.816,4.044,3.683,3.106,2.167,2.817,1.517h-1.156l1.228,1.083,1.733.144,1.011-.289-.795-.65,2.167.65-.795.867.795.722.578-.217v-1.01l.939.216.217,1.372,1.661,1.011,3.9.217,2.239-2.022,1.734-1.661,1.95-2.889.578,1.3-1.011,2.022h-.794l.433,1.012-.289,1.011-1.444,1.228v1.877l-.4.619,1.552,2.2.866.145-.722.433.867,2.455.794,1.733-1.372-.578,1.011,1.3,1.806-.145,2.022-1.806,1.589.072-1.083,1.444h-1.228l-.578.505-.072,1.156-1.3-.361-2.166.795-1.155-.073-.434,1.011.65.289-1.516.939-.867.794-.746-.418.88-.924-.836-.4-1.056.352-.44,1.1.4.88-2.2-.44-1.627.088-.748-.924-2.507.4-1.8,1.1-2.067,1.584-3.694,4.53-.968,1.5-.571,1.847-.044,1.539-.528,1.8-.308,1.847-1.935-1.935-1.539-.572-3.035-1.32-2.023-1.232-3.607-2.507-1.979-.792-1.32-1.627-2.375-.44-3.386,1.143-2.067,1.627-2.155,1.891-1.408-1.76-.923-1.539-2.727-.66-1.32.836-1.055,1.1-.4,2.507.44,1.012,1.056.264.4.484,1.143.836,1.935-.176.44.88,1.452,1.055.616,1.5,1.891.22.616,1.056-.4.572h-.572l-1.539,1.011-.4-.924-2.023-.088-.264.484-.132-1.276Z" transform="translate(-1742.801 1673.717)" fill="#ccc"/>
            <path id="Path_63" data-name="Path 63" d="M2057.213-1585.36l.448.551v.965l1.309.173.345-1.172.069-1.378.31-.517.758.1,1.1-.483.31-1.068.414.1.276-1.757.9-.724,1.068-.482.379-.931,1.275-.172,1.309-.482.9-1.068.724-.379.31.448.448-.172.241-.9-.793-.035-1.1.069-1.275-.241-1.413-1.1-.655.517-.689,1.275-.448,1.516-1.412,1.31-.62,1.412-.586.207-.276,1.137-.655.448-.31.483-.621.172-.241.861-.689.069-.621.758Z" transform="translate(-1990.029 1611.928)" fill="#ccc"/>
            <path id="Path_64" data-name="Path 64" d="M2094.042-1522.169l-.93.344.9.965.724-.276Z" transform="translate(-2018.657 1553.044)" fill="#ccc"/>
            <path id="Path_65" data-name="Path 65" d="M2081.883-1515.023h.758l.173.689Z" transform="translate(-2009.702 1547.346)" fill="#ccc"/>
            <path id="Path_66" data-name="Path 66" d="M2121.938-1545.945l-.413.413.482.379-.344.31.344.62.482-.035.9-.724h.517l.31-.827.655-.1v-.758h-1.1l-.552.793Z" transform="translate(-2041.316 1572.582)" fill="#ccc"/>
            <path id="Path_67" data-name="Path 67" d="M2138.552-1660.517l-.1,1.378-.655.551-.276.483,1.068.586.586-.654.207-.724.93-.516.517.275.964-.517.241-.792.793-1.344.758-.379.758-.517.172-.792.758.172.448-.9.482-.965-.138-.69.861-.31,1.034.724.862-.241,1.137-.62,1.1-1.344.827-.965,1.964-1,2.1-.862,1.275-.758,1.068-.241.655.138.62-.379.483-2.653-.654-.241-1.516.138-1.137.724-1.516,2.55-.759.1-1,.517-1.551.413-1.275-.1-.758-.792-.482-1.689-.482.345-.38,1.516-.034,1.447-.931.1-.482.586-.482,1.309-1.792.035-.034,1-.655.827-.448.311-.551.551-.414.379h-.552l-.241,1.034-.585.172-.551-.172-.035.379.621.379-.1.965-.724.792-1.034.069h-.448l-.172.9Z" transform="translate(-2054.069 1674.611)" fill="#ccc"/>
            <path id="Path_68" data-name="Path 68" d="M1822.144-1655.773l-.054-.815-.924.869-.054.924,1.032,1.63,1.087-.924v-1.358Z" transform="translate(-1801.747 1660.238)" fill="#ccc"/>
            <path id="Path_69" data-name="Path 69" d="M1812.912-1672.145l-.652,1.412v1.2l.761.707.217-1.141Z" transform="translate(-1794.688 1672.644)" fill="#ccc"/>
            <path id="Path_70" data-name="Path 70" d="M1727.133-1423.885l-1.584.594-.049.891.4,1.535.891-1.188-.049-.743Z" transform="translate(-1725.499 1474.666)" fill="#ccc"/>
          </g>
          <path id="Path_71" data-name="Path 71" d="M1758.933-1358.192l-.318,1.007.583.9.318,1.271.954,1.059.371,2.49-.265,2.437-.106.688.636-.265.265-.53.106,1.271-.053.53-.3-.134.164.846.355.246-.437.546-.928.273.355.682-.464.191.328.355-.546.355.164.546h.355l-.219.874-.764.846.355.546-.655-.055v.846l.3.464-.873-.409-.328.3-.327.246-.273.9-.6-.928.027,1.119-.027.846-.409-.546v.955l-.464-.682v.983l-.518.464.3.464v.71h-.464l-.164.682-.219.191.6.218-.819.546.628.792.027.546h-.6l.628.6-.846.464.491.355.382.682.191.682-.464.273-.28-.629-.574-.053-.07-.888-.679-.1-.278-.349-.793-.025-.655.682-.191.709-.164-.792-.3.6-.873-1.419-.3,1.419.3.683-1.228,1.5-.382,1.61.245,1.938v2.429l-5,5.443-10.9-5.952.11-7.784.212-2.967.636-1.218,1.166-1.272.848-1.748v-1.007l1.06-1.7.159-2.384,1.219-1.8.477-1.855.265-2.808-.424-2.172-.742-.954-1.06-.212-1.06.212-.636-.159v-1.589l.795.318,1.113-.106.742-1.06.424-2.331.106-.9.256-.862-.4-.635-.437-.437v-2.106l-.834-.635.119-.834.954-.6.437-.914.675-.119.358.119,1.629-.476.675-1.232.12-2.463.516.318.437-.278-.834-.477-.079-.636-.874-.4.993-.6.318-1.311,1.152,1.351.715-.794.755.079.4.715.358,3.257.278,1.47.715.039,1.231-.357.238-.635-.358-.556.238-.954.874.477.556.675,1.152.278v.6l.755-.278.834-1.152.079-1.827.4-1.073-.6-1.43-.6-.119-.914.914-.874.318-.6-.437-1.51.794-.675-.2.159-1.867.4-1.47.675-1.47.2-.516.874.516.954.159.715.516.477,1.112,1.072.477,1.152-.119,1.311-1.152-.914,2.105-.119,2.78-.04,2.265.079,2.105.278,1.748.4,1.311.556.874,1.112.477,1.112,1.39.874,1.311Z" transform="translate(-1621.579 1437.179)" fill="#ccc"/>
          <path id="Path_72" data-name="Path 72" d="M1308.415-1062.444l.73-1.251,1.467-.131.177-.283.035-1.026.5-.566.177.814.425.637.248-.849.071-.566-.495-1.061-.531-.424L1311-1068l-.531-.814.5-.354.424-1.1.566-.531.353-.6.152-1.052,1.049-.289.941-.8,1.447-1.266,1.122-1.52,1.3-2.062,1.267-2.5-.036-.615-.29-.362.434-.941v-.615l-.542-.542.145-.289v-.506l-.542-.036v-.47l.036-.832.543-.615-.4-.47.362-.724.832-.145.615-.579.651.254,1.447-.76.868-.326,1.483-.832h.507l.579.507-.109.579-.687.073-.578.615.289.362v.615l-.217.326-1.266.072-.109.579-.506.723-1.05.326-.724-.326-.434.8-.181,1.013,1.23.4.688-.471.072.362.072,1.664-.542,1.194.8.941,1.23.362,1.3.073,1.122-.579.289-1.411.687-.362,1.95-.931,1.627.353,2.157,16.873,10.541,2.335,2.37,4.139-.566,2.618.248,1.273.6.566-.354.354v.425l-.247.531-.955.884-.5,1.1v.919l-.708-.071-.99.672-.424-.283v-.849l-.531-.141-.106-.283.566-.92-.46-.46.318-.53-.141-.531.318-.354-.354-.672.248-.6,1.238-.46-.177-.46-.707-.318-.814-.46-.955.177-1.167.531-.141,1.238-1.309.46-.884.531-.071,1.026-.283.672-1.132,1.273-.106.778.354.637-2.087-.814-1.45-.389-1.415.5-.531-.071-1.529-.394.327-.809-.283-.177v-.425l-.409-.125-.39.341-.024.707.585.487-1.437.1-2.68.78-2.144.707v-.536l.39-.634.414.292,1.364-.585,1.072-.755.219-.658-.463-.366-1.243-.1-.244.439-1.681-.024-.633-.926.075-.563-.318.636-1.023-.1-.195-1.218.438-1.681-.561.512-1.218.024-.463.268-.341.634-.073,1.023-.926,1.56-.122,1.51-.091.533.8.1.926.682.657.78.707.1.926.463.438.463-.243.658-.658.049.609.39-.342.731-.219.56-.561-.195.39-.317-.365-.195-.9.025.048-.464-.707.512-.56.439-.487-.292-.439.707-.948.27-.838.074-.537.3-.59.644.456.483-.751.564.215.241.107.859-.671.161-.161.939-.322-.027-.268-.215-.51.483-.778,1.878-.3.725-.268.161-.617.778.456.375-.644.242-.108.456-1.127.536-.349.564h-.456l-1.342-.725-1.5-.349-1.208-1.664.215-.913-1.5-.859-.939-.376-.054-1.02-1.02-.268.242-.537-.242-.456,1.45-.027-.4-.483-.8-.859.751-.43.4.027-.134-.805-.4-.376-.8-.859.349-.7h.752l.832-.4.859-.8.886-1.181.322-.376-.269-.644.054-1.02-.268-.536-.537-.43-1.449.671-1.879.537-.644-.242-1.878-1.208-1.315-.563-1.637.081-.376.134-.645-.349-.859.376-.376.59-.617-.161-.188.215-.483.644-.644.107-.3.671-.59.322-.832.027-.4.671h-.456l-.215,1.235-1.986-.322-.779-.376-.966.456-1.583.4-.59.026-.591.859-.832-.349-.349-.617-.537.913-.617-.215-.778.161-.187.322-.537.215-.94.215-1.53.456-.188.376-.456.43-.51.322.4.242-.778.027-.376-.376-.912-.215-.376-.859-.188-.939-.483.376-.51-.188-.429-.269-.939,1.047-.429.456-.43.054.322.644-.054.349-.215.671-.08,1.771-.027.537.993.268.43.3.671-.242.563-.054-.859.832-.429-.349-.725.322-.537.134-.241-.537-.108-.484-.59-.188.054.644.3.644-.188.269-.3-.456-.268-.349-.724.188-.912-.993-1.127-.886-.778-.456h-1.1l-.913.456-.859.053-.483-.241-.242.832-.778-.805-.671,1.127-.7.4-1.047-.617-.483-.591-.966-.483-.563.591-.322.617-.483.456-.456-.913.295-.322-.053-.429-.43-.885.456-.134.3-1.422s-.59-.724-.59-.617a8.677,8.677,0,0,0,.322-.912l.805-.027.268-.483.3.053-.644-.805.563.161.806.054.7.51h1.1l1.8-.51.456-.912.054-.725s.59-.134.59.027a13.648,13.648,0,0,0,.966-1.583l.805-.188,1.932-.242.054-.188.215-.859,1.422-1.1.778-.752.3-.725.966-.456.161-.563.861-.188.559-.112,1.146-1.789,1.147-.615,1.649-.951.224-.587-.112-.923-.587-.279,1.23-.112,1.006-.895,1.4-.168.923-.419.951-.727.979.559.895.112-.5.335-.559-.14-.671.391.252.951.951-.168h.615l-.448-.447.252-.364.643.559.335.14.894-.224.587-.363.951-.419,1.51.531h2.292l.895-.363.7.252,1.342-.531,1.23-.2,1.845-1.2,1.062-.447,1.006.112,1.174.028.531-.112,1.314.308,1.761-.867,1.733-.615.867.671.028.531-.363.279-.168.531-.447.615.392-.2.643,1.062.336.559.671-.643-.559-.168v-.615l.979-.224.755.335.168.923H1306l.811-.224.363-.168-.475.671,1.063-.587.14-.783Z" transform="translate(-1238.971 1208.633)" fill="#ccc"/>
          <path id="Path_73" data-name="Path 73" d="M1468.085-890.554l-.318.389-.283.495-.495.212-.495.6h-.459l-.141.919-.389.954-.884.177v.848l.353.212.212.672,1.131-.495,1.166-.495.177-.459-.6-1.06.177-.99.778-.565.495-.954Z" transform="translate(-1407.371 1049.355)" fill="#ccc"/>
          <path id="Path_74" data-name="Path 74" d="M1437.63-887.1l-.778.106-.671.035v.565l.777.495.848-.424.283.636.353-.813-.035-.742Z" transform="translate(-1384.691 1046.711)" fill="#ccc"/>
          <path id="Path_75" data-name="Path 75" d="M1348.457-874.093l.53.318h.565l.636-.177.954.6-.566.742v1.59l1.06.99v.565l-.459.424.919.035-.354.636-1.767,1.237-1.343.707-1.414,2.12-1.1,2.474-.212.954-.424-.106-1.272-1.944-.742-.354-.812-.742-2.121-.424-1.272.353-1.838.565.389.247-.212.459h-1.06l-.247.636-.459-.424-.53,1.025.283.354-.212,1.025-.353.742h-.495l-.495,1.025-.6.707h-.636l-.106,2.05-.389.177v.6l.566.919-.672.141-.6-.671-1.166.495-.53-.035-.106-.636-.742.035-.353.6-.389-.459.919-1.131.248-.742-.672-.212-.495.318-.742-.6-.07.565-.884-.389.353-.636-.106-.424-.6-.283.636-.565-.671-.707v-.53l.848-.424.248-.495-.636-.283.636-.318-.353-.53-.707.389-.459-.424.318-.389-.53-.742.459-.424-1.166-.177-1.131.671-.672.566-.318-.459,1.908-1.131,1.7-.707.318-.919.707-.353,1.2-.636.353-.035.283-1.2.177-1.449.459-.318.353-.989,1.2-.707.495-.212v-.99l.883.566.813,1.731.813.212,1.625-.354,1.025-.424.813.247.848-.141,1.2-1.555v-.99l-.495-.919,1.2.106.777-.565v-.6l1.025-.106.212-.565h1.307l.247.318h.565l.459-.495h.424l.212.459.707.036.247.777Z" transform="translate(-1294.246 1037.806)" fill="#ccc"/>
          <path id="Path_76" data-name="Path 76" d="M1197.08-848.486l-.353.628-.53-.884-.777.671-.53-.495-.671.035-.283.954-.813-.071-.389-.53-.954,1.272.353.919-.813.672-.742.424.954-.035-.141.671-.565.566-.954-.141-.884-1.06-.707.884-.706.035.919.389-.459.6-.954.459-.036.459-.883-.53.07-.742-1.06-.035-.282.6.282.354v.565l-.671-.53-.036.672.672.424-.565.247h0l.884.353-.177.919-1.908-1.06-.177-.6-1.237.495.141,1.343-.071.53.813.566.424.848.389-.353.53.389.141.247.459.177,1.307.777.141.778.035.989.6.389-.106.46-.813-.283h-1.237l-.353-.53.353-.53-.035-1.025-.919-.035v-.566l-.636-.282-.353.954.565,1.378.6,1.131h.389l.778,1.272-.459.883-.566,1.2,1.52-1.237.742-1.414,1.307-.459,1.2.283.247.6-.424.283-.495.248.07.813.813.354.919-.46,1.025-.919.036-1.131-.389-.636-.6-.459-1.025.353h-1.166l1.555-1.873-.919-1.7.636-.777.777-.106.283.389.884.247.283.813.106,1.131.459,1.272,1.378.6.177,1.555-.954.742-.418.491-.4.464-.212.707.459.071.424-1.06,1.767.071-.919.777-.318,1.626-.919,1.308-.106.883-1.025,1.414-.954.848-.636-.177-.566.318.318.353-.071.565-.459.354.636.212-.141,1.484-.459,1.131.671.353,1.166.848.177,1.555-.566,1.237-.247,1.025-.565-.035-.99-.353.141.636.813.565-.071,1.1h2.015l1.166.318.106.6.707-.035.318-.53.389.53.566-1.272h-.672l-.883-1.944v-1.237l.494-1.1.53-.813.247-.848,1.414.212.565.636-.036.813-1.025.742-.353-.884-.919.212-.036.636,1.1.353.106.954.671.565.141,1.52-.53,1.626-.813.919v1.025l1.131-.848,1.767-.459.636-.46.177-1.025.919-.318.459-.247-.777-.424.636-.212-1.06-.672.177-.813.742-.354.919.212.707.389.707.778.671-.884v-.671l.247-1.343.636-.459.389-2.014-.53-1.414.494-1.519.672-2.262.813-2.227.671-1.025-.389-.459.177-.6.672-.177-.354-.6.6-.318.46-1.661.778-.177.247-1.131,1.7-.318-.389-.495.318-.495-.318-.424.99-.354-1.8-.424.424-.707-.848-.671.459-.671h-1.06l.707-1.661-1.378.424-.389-.459h-1.06l-.954.318-.424-.495V-841l1.1.071.636-.848.671-.141.177-.813-.283-.883-.6-1.272-.989-.353-.883.353-.389.636-.636.742-1.767-.495-1.8-.672-.884-1.378-.389-2.085.318-.707-.283-.353Z" transform="translate(-1181.956 1016.377)" fill="#ccc"/>
        </g>
        <g id="Group_13" data-name="Group 13" transform="translate(92.065 104.1)">
          <path id="Path_77" data-name="Path 77" d="M1695.087-967.034l1.608.175.419.7-.349,1.049.21.839.559.839.594.175.734-1.4,1.153-.769,1.224-.35,1.748.175.664.979.1,1.049.629.28v-.839l.594-.419v-.454l-.629-.524-.21-.28.35-.21-.454-.594.245-1.293.873-.07.525-.454-.455-2.237-8.284-2.027-1.4,3.6Z" transform="translate(-1678.22 1010.76)" fill="#dc000c"/>
          <path id="Path_78" data-name="Path 78" d="M1698.532-981.917l.734-.28,1.293,1.223,1.678.035,1.188,1.048-.1-1.4,1.328.035.594.035.49.769.734.14.245-.664.314-.839.521.4.947-.994-.034-2.656-10.486-1.957-1.678,1.782.943,3.391Z" transform="translate(-1679.184 1022.182)" fill="#dc000c"/>
          <path id="Path_79" data-name="Path 79" d="M1685.222-1006.684l.734-.594.245-.629h.559l1.084.419,1.748.42,1.084.629,1.923-.1h2.551l.489-.21.979.419,1.363-5.208-5.068-4.125-10.136,2.377-.8,4.4Z" transform="translate(-1667.76 1045.028)" fill="#dc000c"/>
          <path id="Path_80" data-name="Path 80" d="M1656.985-982.122l.874.419.14,1.5-.036,1.188-.209.594.559.909.874.07.314.839.245.559.594.629.769-.594v-.629l-.28-.7.594-1.782.455.1.1.385.734.21.384.35,1.363-.35.979-.489,1.118-.874,1.049-.559.14-2.132-.839-.454-.664-.524-.384-1.258-.734.175-.629-.559-.454.07-1.328-1.049-5.7-1.293-.245,3.74Z" transform="translate(-1647.668 1022.458)" fill="#dc000c"/>
          <path id="Path_81" data-name="Path 81" d="M1746.549-993.336l.272,1.479.584,1.128.389.934-.233,1.439.35.7-.506,1.206.35.233.545-.428.039-.428h.856l.817,1.362-.506.35-.7,1.167-.973.35v.817l.195.428-.739-.195-.234.622.35.856v.7l-.389.273.311.506-.116.973-.273.506.506.35-1.168.467.467.428.311.389.934-.078.623-.856.233-.506,1.285-.778v-.545l.817-.35.428.311,1.206-.195.739-.934.272-.739-.078-1.128-.272-1.323.467-.778.7-1.167.584-.506,1.011-.895.817-.35h.584l.707-.2.343.2v-.7l-.376-.115-2-2.609-6.575-1.712Z" transform="translate(-1719.042 1027.219)" fill="#dc000c"/>
          <path id="Path_82" data-name="Path 82" d="M1754.9-1052.917l-.117,2.1-1.012,2.451-1.167,2.918.428,1.167-.778.622.156,1.284.9,2.412.972,1.868.312.817.467.7.428.389-.312.2-.739-.586-.505-.739-1.557-1.245h-.7l-1.128.156-.856.622-.583-.117-1.128.389-.778.039-.739-.856h-.934l-1.011-1.284-.311-.661-1.3-.565-.35-.7.092-2.7,3.891-8.793,4.435-.428Z" transform="translate(-1716.074 1075.167)" fill="#dc000c"/>
          <path id="Path_83" data-name="Path 83" d="M1727.87-1065.634l-.272,2.373.389.817.117.506-.739.194v.817l.116,1.323-.467,1.751-1.75.739-1.012.078-1.167,1.012-.973,1.011-1.284-.039-2.918-.778-1.945-5.291-.039-5.642,6.886-2.451,3.774.156Z" transform="translate(-1694.838 1087.729)" fill="#dc000c"/>
          <path id="Path_84" data-name="Path 84" d="M1709.185-1119.056l1.906.194h1.323l.7.817.584-.35.623.039.428.428h1.361l.389-.817-.506-.389.234-.467v-1.478l.739.389h1.323l.155.311,2.413.506.078.817.739.622.856-.195.194-1.556.9.272.194.506.467.817.506,4.941.039.778-.389,1.362v2.14l-.35,1.984-.817.7-1.245.583-.233.428-1.517-.389-.973-.078.311.505-.778.273-.545.7-.817-.467-.038-.506-.74-.661-.895-.194.039-.973-1.44-1.439-1.439-.428-1.362.155-1.012.545-1.946.856-1.556.778-1.206.817-1.517-.856-3.035-5.6,2.724-3.307Z" transform="translate(-1683.195 1129.09)" fill="#dc000c"/>
          <path id="Path_85" data-name="Path 85" d="M1666.88-1046.993l.934-.195.039-.661.35-.273.467.273.662-.35.156-.817,1.012.078,1.011-.584.856-1.868.545.156,1.673.584.233-.35,1.323.739.545.039.156-.35,1.751.195-.778-.739-1.751-.195-1.012-1.751.7-1.011v-.934l.389-.739-1.362-.312v-1.206l.312-1.089-.117-.973.389-.9-2.062-1.167-1.362-2.062-5.991,3.229-3.424,5.058,2.724,6.342Z" transform="translate(-1652.251 1083.133)" fill="#dc000c"/>
          <path id="Path_86" data-name="Path 86" d="M1616.595-1054.925v3.7l-.779.272v.856l-1.011,1.79.467.584v.661l-.661,1.012v.778l-.467.934.623.467-.623,1.167-.583,1.206h-.972l-.778,1.051.233.389,1.167.389.389.933.428.467-.195.505.369.973.681.272.272.545-.35.312.311.584-.544.545.194.389-.545,1.129.311.973,1.556-.739,1.245.506,2.568-1.518.584-.234.467-.933-.038-.973.233-1.245.623-.895-.506-.895.661-.9-.428-.583.506-.817h.584l.661-1.012h1.05l.117.584h.467l.35-.117.934.117.311.544h.389l.739-.934-.856-1.089-.35-1.362-.583-.583.545-.583-.156-1.362.428-.194-.039-1.556-1.44.233-.739-.078-.622-.389.039-1.206.428-1.245.895-.623.156-.661,1.556-.623,1.167-1.79-1.906-2.49-8.171,1.167Z" transform="translate(-1611.809 1078.537)" fill="#dc000c"/>
          <path id="Path_87" data-name="Path 87" d="M1650.266-1160.6l-.856,1.284-.272,1.206v2.373l-1.128,1.712-1.206,1.09-1.6.583h-.817l-2.218,2.023-.583,1.6-.194,1.245-.778,1.556s-.623-.233-.661.506a1.9,1.9,0,0,1-.7,1.245l-1.518.622-1.011,1.4-1.984.934h-1.09l-1.673,1.206-2.373.934-.7.195.661.817.156,1.012.156,1.012.583.35.545-.467.739-1.79.973.234.623.35-.156.545.233.622.778-.7,1.829.195.778-1.557,1.4-.856,1.381.311v1.245l.837.545.078,1.517h.584l1.011-.311.272-.584.778-.156.545-1.05v-1.051l1.4-.311.194-.817.9,1.011.039.7h.7l.078-3-.25-.757-.645-.413.739-1.708-.351-.661.234-.623h1.323l1.082-.716.514.171.934-.234.039-.544-.27-1.628.893-.279.332-1.2.6-.312.117-.467-.934-.973v-1.167l.584-1.79v-1.79l.467.272h1.206l.622-.856-.272-.934-.74-.467-.389.35-.661-.817v-.973l.428-.467-1.5-.58Z" transform="translate(-1625.443 1160.631)" fill="#dc000c"/>
        </g>
        <g id="Group_14" data-name="Group 14" transform="translate(12.024 45.75)">
          <path id="Path_88" data-name="Path 88" d="M1438.029-1341.99l-.613.255-.485.562-.843.51h-.74l.076.74.23.561.178.306-.715.639-.613.715.434.485.1.485.306.026.945-.613.025-.562-.357-.306.664-1.047.51-.459-.306-.791.128-.383.919-.077,1.021-.791v-.408h.792l.562-.332v-.485l1-.383.843-1.328v-.74l-.332-.46-.256-.255-.153.179-.459.715-.23.792-.434.153-.306.485-.51.408-.511.281-.357-.817-1.378-.025.255.715.587.536.306.128Z" transform="translate(-1390.376 1366.906)" fill="#ccc"/>
          <path id="Path_89" data-name="Path 89" d="M1484.923-1380.458v.383l.357.485.434-.153.868-.664-.051-.255-.255.128-.588.178Z" transform="translate(-1430.582 1394.447)" fill="#ccc"/>
          <path id="Path_90" data-name="Path 90" d="M1503.052-1409.4v1.48l-.357.434.587.383.051.383.459.1.536-.459v-.766l-.434-.485-.128-.613Z" transform="translate(-1444.755 1417.365)" fill="#ccc"/>
          <path id="Path_91" data-name="Path 91" d="M1521.557-1442.15l.026.306-.485.485.587.51.791.766.536.255.51-.715.536-.255-.23-.408.23-.664.689-.281.97-.74.229-.511-.051-.408h-.664l-.409.587-.689-.025-.97.332-.74.383Z" transform="translate(-1459.43 1444.805)" fill="#ccc"/>
          <path id="Path_92" data-name="Path 92" d="M1546.461-1448.725v.714l-.281.307.128.255h.332l.332-.485v-.459Z" transform="translate(-1479.433 1448.725)" fill="#ccc"/>
          <path id="Path_93" data-name="Path 93" d="M1521.126-1428.306l-.281.306.2.434,1,.638.562-.306-.817-.511Z" transform="translate(-1459.229 1432.442)" fill="#ccc"/>
          <path id="Path_94" data-name="Path 94" d="M1218.038-1198.452l-.308,1.078h-.493l-.616.524.554.216h.647l.185.37.4-.37.308.277h.586l.339-1.2-.4-.37-.647-.062Z" transform="translate(-1216.621 1249.142)" fill="#ccc"/>
          <path id="Path_95" data-name="Path 95" d="M1240.528-1206.22l.524-.616.709-1.2-.524,1.51-.031.617-.432.8h-.616l-.493-.123-.308-.339.308-.524-.493.277-.031-.524Z" transform="translate(-1234.58 1256.786)" fill="#ccc"/>
          <path id="Path_96" data-name="Path 96" d="M1303.938-1227.82l.092.863-.524.431.093.493.894.586.246-.277h.863v-.4l-1.079-.555Z" transform="translate(-1285.909 1272.561)" fill="#ccc"/>
        </g>
        <path id="Path_97" data-name="Path 97" d="M1269.818-1525.671,1217.2-1440.92h-59.945" transform="translate(-1157.252 1555.837)" fill="none" stroke="#ccc" stroke-miterlimit="10" stroke-width="1"/>
      </g>
    </g>
  </g>
</svg>
